<svg xmlns="http://www.w3.org/2000/svg" viewBox="0 0 400 80"><defs><style>.cls-1{fill:#3a225f;}.cls-2{fill:#27b14b;}</style></defs><title>Client</title><g id="Layer_2" data-name="Layer 2"><g id="Layer_1-2" data-name="Layer 1"><rect class="cls-1" width="400" height="80"/><path class="cls-2" d="M31.46,69.62A.94.94,0,0,0,32.61,69c1.93-7.21,9.79-9.08,14.49-10.2A18.91,18.91,0,0,0,49.81,58c5.35-2.32,7.09-6.06,7.62-8.78a.94.94,0,0,0-.31-.89,24.32,24.32,0,0,1-6.62-10.17.92.92,0,0,0-.19-.32c-2-2.13-3.09-4.39-3.09-6.18a2.42,2.42,0,0,1,1.29-2.28A.94.94,0,0,0,49,28.6c.41-9.56,7.23-17.09,15.58-17.14h.2c8.39.12,15.16,7.81,15.4,17.5a.93.93,0,0,0,.33.69,2.41,2.41,0,0,1,.86,2,9.07,9.07,0,0,1-2.25,5.2,1,1,0,0,0-.16.3,24.43,24.43,0,0,1-7.39,11.54.94.94,0,0,0-.33.91c.52,2.72,2.27,6.46,7.62,8.78a17.63,17.63,0,0,0,2.86.76C86.32,60.14,94.1,61.83,96,69a.94.94,0,0,0,.9.69,1,1,0,0,0,.24,0,.94.94,0,0,0,.66-1.15c-2.21-8.24-11-10.14-15.75-11.17a17.44,17.44,0,0,1-2.51-.65c-3.49-1.52-5.64-3.83-6.4-6.88a26.64,26.64,0,0,0,7.5-11.9,10.76,10.76,0,0,0,2.55-6.23A4.29,4.29,0,0,0,82,28.53c-.45-10.52-8-18.8-17.27-18.94h-.28C55.31,9.63,47.77,17.7,47.11,28a4.24,4.24,0,0,0-1.77,3.61c0,2.22,1.26,4.88,3.45,7.31a26.47,26.47,0,0,0,6.68,10.41c-.76,3.06-2.91,5.38-6.41,6.9a18.47,18.47,0,0,1-2.4.66C41.89,58.06,33,60.18,30.79,68.47A.94.94,0,0,0,31.46,69.62Z"/><path class="cls-2" d="M138.34,33.86V47h-3.61V33.86h-3V30.74h9.58v3.13Z"/><path class="cls-2" d="M146.15,47h-3.61V29.64h3.61v7h.07a3.27,3.27,0,0,1,1-1.42,2.71,2.71,0,0,1,1.83-.62,2.94,2.94,0,0,1,1.67.43,2.82,2.82,0,0,1,1,1.14,5.22,5.22,0,0,1,.46,1.63,15.45,15.45,0,0,1,.12,1.91V47h-3.61V39.63a3.74,3.74,0,0,0-.22-1.33.86.86,0,0,0-.88-.57,1.15,1.15,0,0,0-1,.61,3.06,3.06,0,0,0-.37,1.6Z"/><path class="cls-2" d="M157.71,41.91a3.52,3.52,0,0,0,.13,1,3,3,0,0,0,.33.78,1.68,1.68,0,0,0,.51.53,1.19,1.19,0,0,0,.67.2,1.26,1.26,0,0,0,1-.39,2.84,2.84,0,0,0,.57-.92l2.64,1.49a5.18,5.18,0,0,1-1.67,2.12,4.38,4.38,0,0,1-2.65.78,4.69,4.69,0,0,1-2-.41,4.44,4.44,0,0,1-1.58-1.23,5.91,5.91,0,0,1-1.06-2,9.12,9.12,0,0,1-.38-2.76,9.41,9.41,0,0,1,.36-2.68,6.11,6.11,0,0,1,1-2,4.66,4.66,0,0,1,1.55-1.3,4.27,4.27,0,0,1,2-.46,4.33,4.33,0,0,1,2.11.48,4.11,4.11,0,0,1,1.44,1.32,5.76,5.76,0,0,1,.82,2,12,12,0,0,1,.25,2.54v1Zm2.71-2.34a3.81,3.81,0,0,0-.3-1.61,1,1,0,0,0-1-.64,1,1,0,0,0-.63.22,1.9,1.9,0,0,0-.45.55,2.82,2.82,0,0,0-.28.74,3.35,3.35,0,0,0-.09.75Z"/><path class="cls-2" d="M170.44,47V30.74h3.7V47Z"/><path class="cls-2" d="M182.82,47V45.56h0a3.07,3.07,0,0,1-.84,1.28,2.41,2.41,0,0,1-1.69.54,2.9,2.9,0,0,1-1.69-.52,4.21,4.21,0,0,1-1.25-1.4,7.38,7.38,0,0,1-.77-2.08,11.74,11.74,0,0,1-.26-2.55,11.37,11.37,0,0,1,.25-2.47,6.39,6.39,0,0,1,.76-2,3.91,3.91,0,0,1,1.25-1.3,3.13,3.13,0,0,1,1.71-.47,2.63,2.63,0,0,1,1.55.46,2.15,2.15,0,0,1,.86,1.13h.07V29.64h3.56V47Zm.07-6a8.33,8.33,0,0,0-.09-1.28,4.26,4.26,0,0,0-.29-1A2,2,0,0,0,182,38a1,1,0,0,0-.68-.25,1,1,0,0,0-.7.25,1.86,1.86,0,0,0-.47.7,4.61,4.61,0,0,0-.28,1,8.82,8.82,0,0,0,0,2.54,4.59,4.59,0,0,0,.28,1,1.84,1.84,0,0,0,.47.7,1,1,0,0,0,.7.25A1,1,0,0,0,182,44a2,2,0,0,0,.48-.7,4.25,4.25,0,0,0,.29-1A8.42,8.42,0,0,0,182.89,41Z"/><path class="cls-2" d="M191.9,41.91a3.52,3.52,0,0,0,.13,1,3,3,0,0,0,.33.78,1.68,1.68,0,0,0,.51.53,1.19,1.19,0,0,0,.67.2,1.26,1.26,0,0,0,1-.39,2.84,2.84,0,0,0,.57-.92l2.64,1.49A5.18,5.18,0,0,1,196,46.66a4.38,4.38,0,0,1-2.65.78,4.69,4.69,0,0,1-2-.41,4.44,4.44,0,0,1-1.58-1.23,5.91,5.91,0,0,1-1.06-2,9.12,9.12,0,0,1-.38-2.76,9.41,9.41,0,0,1,.36-2.68,6.11,6.11,0,0,1,1-2,4.66,4.66,0,0,1,1.55-1.3,4.27,4.27,0,0,1,2-.46,4.33,4.33,0,0,1,2.11.48,4.11,4.11,0,0,1,1.44,1.32,5.76,5.76,0,0,1,.82,2,12,12,0,0,1,.25,2.54v1Zm2.71-2.34a3.81,3.81,0,0,0-.3-1.61,1,1,0,0,0-1-.64,1,1,0,0,0-.63.22,1.9,1.9,0,0,0-.45.55,2.82,2.82,0,0,0-.28.74,3.35,3.35,0,0,0-.09.75Z"/><path class="cls-2" d="M204.86,45.51a2.37,2.37,0,0,1-.91,1.3,2.91,2.91,0,0,1-1.76.49,3.39,3.39,0,0,1-1.08-.18,2.76,2.76,0,0,1-1-.61,3.21,3.21,0,0,1-.76-1.12,4.44,4.44,0,0,1-.3-1.74,4.17,4.17,0,0,1,.45-2,3.67,3.67,0,0,1,1.17-1.29,4.72,4.72,0,0,1,1.64-.68,9,9,0,0,1,1.86-.2h.46v-.18a1.71,1.71,0,0,0-.4-1.26,1.47,1.47,0,0,0-1.07-.39,2.45,2.45,0,0,0-1.21.3,3.33,3.33,0,0,0-.93.76l-1.59-2.21a5,5,0,0,1,1.83-1.36,5.32,5.32,0,0,1,2.17-.48,5.18,5.18,0,0,1,2.07.37,3.32,3.32,0,0,1,1.38,1.08,4.54,4.54,0,0,1,.76,1.73,10.87,10.87,0,0,1,.23,2.36V47h-3V45.51Zm-.11-3.74h-.64a4,4,0,0,0-.76.07,1.65,1.65,0,0,0-.64.26,1.41,1.41,0,0,0-.44.51,1.71,1.71,0,0,0-.16.79,1.49,1.49,0,0,0,.31,1,1,1,0,0,0,.75.33,1.27,1.27,0,0,0,.72-.21,1.54,1.54,0,0,0,.49-.54,2.76,2.76,0,0,0,.28-.76,3.94,3.94,0,0,0,.09-.84Z"/><path class="cls-2" d="M210.56,47V29.64h3.68V47Z"/><path class="cls-2" d="M228.5,47l-2.17-6.48h-1.08V47H221.7V30.74h5.21A5.14,5.14,0,0,1,230.58,32a4.8,4.8,0,0,1,1.31,3.66,5.82,5.82,0,0,1-.21,1.61,4.48,4.48,0,0,1-.54,1.22,3.4,3.4,0,0,1-.75.83,2.88,2.88,0,0,1-.8.46L232.37,47Zm-.22-11.17a2.53,2.53,0,0,0-.17-1,1.66,1.66,0,0,0-.45-.62,1.48,1.48,0,0,0-.61-.31,2.83,2.83,0,0,0-.65-.08h-1.15v4.11h1.08a2.05,2.05,0,0,0,1.37-.49A2,2,0,0,0,228.28,35.84Z"/><path class="cls-2" d="M242.43,47l-.94-1.36a3.71,3.71,0,0,1-1.34,1.21,4.36,4.36,0,0,1-2.15.49,4.52,4.52,0,0,1-3.38-1.26,5,5,0,0,1-1.24-3.63,4.81,4.81,0,0,1,.76-2.77A5.31,5.31,0,0,1,236.07,38a6.2,6.2,0,0,1-.86-1.57,5.23,5.23,0,0,1-.31-1.83,4.57,4.57,0,0,1,.33-1.78,3.89,3.89,0,0,1,.92-1.34,4.1,4.1,0,0,1,1.38-.85,4.82,4.82,0,0,1,1.71-.3,4.74,4.74,0,0,1,1.61.26,3.48,3.48,0,0,1,2.11,2,4.58,4.58,0,0,1,.3,1.71,3.92,3.92,0,0,1-.24,1.41,4.45,4.45,0,0,1-.65,1.16,5.65,5.65,0,0,1-1,1q-.54.42-1.11.79l1.36,1.88,1.13-2.41h3.47L243.63,43l2.9,4Zm-4.78-6.78a2,2,0,0,0-.64.7,2.84,2.84,0,0,0,.12,2.83,1.4,1.4,0,0,0,1.17.56,1.25,1.25,0,0,0,.94-.36,2.48,2.48,0,0,0,.51-.72Zm2.62-5.72a2.24,2.24,0,0,0-.25-1.12.82.82,0,0,0-.76-.45.93.93,0,0,0-.83.48,2.09,2.09,0,0,0-.3,1.13,3.29,3.29,0,0,0,.78,2.12,3.84,3.84,0,0,0,.94-.88A2,2,0,0,0,240.27,34.51Z"/><path class="cls-2" d="M254.35,45.9a4.23,4.23,0,0,1-3.57,1.47,4.41,4.41,0,0,1-4.46-3.52l3-1.33a2.67,2.67,0,0,0,.45,1,1,1,0,0,0,.84.41,1,1,0,0,0,1-.62,4.9,4.9,0,0,0,.24-1.72V30.74h3.65V41.89A6.41,6.41,0,0,1,254.35,45.9Z"/><path class="cls-2" d="M271.32,46.81a5.4,5.4,0,0,1-2.76.63,5.31,5.31,0,0,1-2.58-.63A6,6,0,0,1,264,45a8.72,8.72,0,0,1-1.29-2.71,12.3,12.3,0,0,1-.46-3.46,12.5,12.5,0,0,1,.46-3.49A8.59,8.59,0,0,1,264,32.67a5.93,5.93,0,0,1,2-1.75,5.41,5.41,0,0,1,2.58-.62,5.71,5.71,0,0,1,2.72.59A5.36,5.36,0,0,1,273,32.35l-2,2.67a3.43,3.43,0,0,0-.93-.87,2.43,2.43,0,0,0-1.3-.32,2.12,2.12,0,0,0-1.28.39,3.25,3.25,0,0,0-.92,1.07,5.42,5.42,0,0,0-.56,1.61,10.23,10.23,0,0,0-.18,2,10,10,0,0,0,.18,2,5.6,5.6,0,0,0,.56,1.61,3.18,3.18,0,0,0,.93,1.08,2.18,2.18,0,0,0,1.29.39,2.26,2.26,0,0,0,1.29-.37,3,3,0,0,0,.87-.87l2,2.55A5.49,5.49,0,0,1,271.32,46.81Z"/><path class="cls-2" d="M274.65,47V29.64h3.68V47Z"/><path class="cls-2" d="M284.9,31.73a2.13,2.13,0,0,1-.55,1.48,2,2,0,0,1-2.85,0,2.13,2.13,0,0,1-.55-1.48,2.19,2.19,0,0,1,.15-.82,2.24,2.24,0,0,1,.4-.67,1.89,1.89,0,0,1,.62-.46,1.91,1.91,0,0,1,2.23.46,2.24,2.24,0,0,1,.4.67A2.21,2.21,0,0,1,284.9,31.73ZM281.11,47V35h3.63V47Z"/><path class="cls-2" d="M290.27,41.91a3.52,3.52,0,0,0,.13,1,3,3,0,0,0,.33.78,1.68,1.68,0,0,0,.51.53,1.19,1.19,0,0,0,.67.2,1.26,1.26,0,0,0,1-.39,2.84,2.84,0,0,0,.57-.92l2.64,1.49a5.18,5.18,0,0,1-1.67,2.12,4.38,4.38,0,0,1-2.65.78,4.69,4.69,0,0,1-2-.41,4.44,4.44,0,0,1-1.58-1.23,5.91,5.91,0,0,1-1.06-2,9.12,9.12,0,0,1-.38-2.76,9.41,9.41,0,0,1,.36-2.68,6.11,6.11,0,0,1,1-2A4.66,4.66,0,0,1,289.7,35a4.27,4.27,0,0,1,2-.46,4.33,4.33,0,0,1,2.11.48,4.11,4.11,0,0,1,1.44,1.32,5.76,5.76,0,0,1,.82,2,12,12,0,0,1,.25,2.54v1ZM293,39.56a3.81,3.81,0,0,0-.3-1.61,1,1,0,0,0-1-.64,1,1,0,0,0-.63.22,1.9,1.9,0,0,0-.45.55,2.82,2.82,0,0,0-.28.74,3.35,3.35,0,0,0-.09.75Z"/><path class="cls-2" d="M301.9,35v1.7h0a3.35,3.35,0,0,1,1.06-1.5,2.84,2.84,0,0,1,1.88-.63,2.64,2.64,0,0,1,2.62,1.56,5.22,5.22,0,0,1,.46,1.63,15.26,15.26,0,0,1,.12,1.91V47h-3.61V39.63a3.74,3.74,0,0,0-.22-1.33.84.84,0,0,0-.86-.57,1.15,1.15,0,0,0-1,.61,3.06,3.06,0,0,0-.37,1.6V47h-3.61V35Z"/><path class="cls-2" d="M315.53,47.19a5.29,5.29,0,0,1-1.1.12,3.27,3.27,0,0,1-2.64-1A4.44,4.44,0,0,1,311,43.4V37.79h-1.45V35h1.42v-2.9h3.49V35h2.07v2.8h-2.07v4.8a2.32,2.32,0,0,0,.28,1.28,1,1,0,0,0,.87.4,1.6,1.6,0,0,0,.8-.18v2.83A3.22,3.22,0,0,1,315.53,47.19Z"/></g></g></svg>