<?xml version="1.0" encoding="utf-8"?>
<!-- Generator: Adobe Illustrator 21.1.0, SVG Export Plug-In . SVG Version: 6.00 Build 0)  -->
<svg version="1.1" id="Layer_1" xmlns="http://www.w3.org/2000/svg" xmlns:xlink="http://www.w3.org/1999/xlink" x="0px" y="0px"
	 viewBox="0 0 400 80" style="enable-background:new 0 0 400 80;" xml:space="preserve">
<style type="text/css">
	.st0{fill:#3A225F;}
	.st1{fill:#FCE800;}
</style>
<title>Goal</title>
<rect class="st0" width="400" height="80"/>
<path class="st1" d="M37.3,43.5c0.3,0.3,0.9,0.3,1.1-0.2l0,0l3.7-4.4c0,0,0.1,0,0.2,0h2.2l-2.8,3.4c-0.3,0.4-0.3,0.9,0.1,1.2
	c0.4,0.3,0.9,0.3,1.2-0.1l3.7-4.4h2.5l-2.8,3.3c-0.3,0.4-0.3,0.9,0.1,1.2c0.4,0.3,0.9,0.3,1.2-0.1l0,0l3.7-4.4h1.2
	c-0.3,14.1,10.9,25.7,25,26s25.7-10.9,26-25c0.3-14.1-10.9-25.7-25-26c-13.5-0.2-24.8,10-26,23.2h-1.3l-3.6-4.4
	c-0.3-0.3-0.8-0.4-1.2-0.1c-0.3,0.3-0.4,0.8-0.1,1.2l2.8,3.4h-2.4l-3.7-4.4c-0.3-0.3-0.8-0.4-1.2-0.1c-0.3,0.3-0.4,0.8-0.1,1.2
	l2.8,3.4h-2.2c0,0-0.1,0-0.2,0L38.5,33c-0.3-0.3-0.8-0.4-1.2-0.1c-0.3,0.3-0.4,0.8-0.1,1.2l3.5,4l-3.5,4.2
	C36.9,42.7,37,43.2,37.3,43.5L37.3,43.5z M77.6,15.6c12.9-0.1,23.3,10.5,23.3,23.4S90.4,62.4,77.5,62.4S54.1,51.9,54.1,39h4.7
	c-0.1,10.4,8.3,18.9,18.7,19s19-8.3,19.1-18.7s-8.3-19-18.7-19.1c-9.8-0.1-18.1,7.4-19,17.2h-4.7C55,25.1,65.2,15.6,77.6,15.6
	L77.6,15.6z M65.1,39c-0.1,7,5.6,12.5,12.5,12.6s12.6-5.5,12.7-12.5c0.1-6.9-5.5-12.6-12.5-12.7c-6.3,0-11.8,4.7-12.6,11h-4.8
	c1.2-9.4,9.7-16.1,19.1-14.9s16.1,9.7,14.9,19.1s-9.7,16.1-19.1,14.9c-8.8-1.1-15.3-8.7-15-17.5H65.1z M66.6,39l4.7,0.1
	c-0.1,3.6,2.8,6.5,6.3,6.6c3.6,0.1,6.5-2.7,6.6-6.3c0.1-3.6-2.8-6.5-6.3-6.6c-2.9-0.1-5.5,1.9-6.3,4.7h-4.8
	c0.9-5.9,6.5-9.9,12.4-8.9c5.9,0.9,9.9,6.5,8.9,12.4c-0.9,5.9-6.5,9.9-12.4,8.9C70.4,49,66.5,44.4,66.6,39L66.6,39z M76.8,37.5h-3.6
	c0.9-2.4,3.5-3.6,5.9-2.7s3.6,3.5,2.7,5.9s-3.5,3.6-5.9,2.7c-1.8-0.7-3-2.5-3-4.4h3.9c0.5,0,0.8-0.4,0.8-0.8S77.2,37.4,76.8,37.5z"
	/>
<path class="st1" d="M137.1,45.9h-3.9l-2-10.9l0,0l-2,10.9h-3.9l-3.1-16.3h3.8l1.7,11.3h0.1l1.8-11.3h3.6l1.8,11.3h0.1l1.7-11.3h3.6
	L137.1,45.9z"/>
<path class="st1" d="M145.3,45.9h-3.5V28.6h3.6v7h0.1c0.2-0.6,0.5-1,1-1.4s1.2-0.6,1.8-0.6s1.2,0.1,1.7,0.4c0.4,0.3,0.8,0.7,1,1.1
	c0.2,0.5,0.4,1.1,0.5,1.6c0.1,0.6,0.1,1.3,0.1,1.9V46H148v-7.4c0-0.5-0.1-0.9-0.2-1.3c-0.1-0.4-0.5-0.6-0.9-0.6s-0.8,0.2-1,0.6
	c-0.3,0.5-0.4,1-0.4,1.6L145.3,45.9z"/>
<path class="st1" d="M159.1,44.4c-0.1,0.5-0.5,1-0.9,1.3c-0.5,0.3-1.1,0.5-1.8,0.5c-0.4,0-0.7-0.1-1.1-0.2c-0.4-0.1-0.7-0.3-1-0.6
	s-0.6-0.7-0.8-1.1c-0.2-0.6-0.3-1.1-0.3-1.7c0-0.7,0.1-1.4,0.4-2c0.3-0.5,0.7-1,1.2-1.3s1.1-0.6,1.6-0.7c0.6-0.1,1.2-0.2,1.9-0.2
	h0.5v-0.2c0-0.5-0.1-0.9-0.4-1.3c-0.3-0.3-0.7-0.4-1.1-0.4c-0.4,0-0.8,0.1-1.2,0.3s-0.7,0.5-0.9,0.8l-1.6-2.2
	c0.5-0.6,1.1-1.1,1.8-1.4c0.7-0.3,1.4-0.5,2.2-0.5c0.7,0,1.4,0.1,2.1,0.4c0.6,0.2,1,0.6,1.4,1.1s0.6,1.1,0.8,1.7
	c0.2,0.8,0.2,1.6,0.2,2.4V46h-3L159.1,44.4L159.1,44.4z M159,40.7h-0.6c-0.3,0-0.5,0-0.8,0.1c-0.2,0-0.4,0.1-0.6,0.3
	c-0.2,0.1-0.3,0.3-0.4,0.5c-0.1,0.2-0.2,0.5-0.2,0.8c0,0.4,0.1,0.7,0.3,1c0.2,0.2,0.5,0.3,0.8,0.3s0.5-0.1,0.7-0.2
	c0.2-0.1,0.4-0.3,0.5-0.5s0.2-0.5,0.3-0.8s0.1-0.6,0.1-0.8v-0.7C159.1,40.7,159,40.7,159,40.7z"/>
<path class="st1" d="M169.3,46.1c-0.4,0.1-0.7,0.1-1.1,0.1c-1,0.1-2-0.3-2.6-1c-0.6-0.8-0.9-1.9-0.8-2.9v-5.6h-1.4v-2.8h1.4V31h3.5
	v2.9h2.1v2.8h-2.1v4.8c0,0.4,0.1,0.9,0.3,1.3c0.2,0.3,0.5,0.4,0.9,0.4c0.3,0,0.6-0.1,0.8-0.2v2.8C169.9,46,169.6,46.1,169.3,46.1z"
	/>
<path class="st1" d="M172.8,29.7h2.7l-1.4,5.9h-2.4L172.8,29.7z"/>
<path class="st1" d="M182.5,37.3c-0.3-0.3-0.6-0.5-0.9-0.7c-0.3-0.2-0.7-0.3-1.1-0.2c-0.3,0-0.5,0.1-0.8,0.3
	c-0.2,0.2-0.3,0.5-0.3,0.8s0.1,0.5,0.3,0.7c0.4,0.2,0.8,0.4,1.2,0.5s0.7,0.3,1.1,0.4c0.7,0.4,1.3,1,1.6,1.8c0.2,0.5,0.3,0.9,0.3,1.4
	c0,0.6-0.1,1.3-0.4,1.9c-0.2,0.5-0.6,0.9-1,1.3c-0.4,0.3-0.9,0.6-1.3,0.7c-0.5,0.1-1,0.2-1.4,0.2c-0.8,0-1.6-0.1-2.3-0.4
	c-0.7-0.3-1.4-0.7-1.9-1.2l1.8-2.3c0.3,0.3,0.6,0.6,1,0.8s0.8,0.3,1.2,0.3c0.3,0,0.6-0.1,0.8-0.3s0.3-0.5,0.3-0.8s-0.2-0.7-0.5-0.8
	c-0.4-0.2-0.9-0.4-1.4-0.6c-0.3-0.1-0.7-0.2-1-0.4s-0.6-0.4-0.9-0.7c-0.3-0.3-0.5-0.6-0.6-1c-0.2-0.5-0.3-0.9-0.2-1.4
	c0-0.6,0.1-1.2,0.4-1.8c0.2-0.5,0.6-0.9,1-1.2s0.8-0.6,1.3-0.7c0.5-0.2,1-0.2,1.5-0.2c0.7,0,1.4,0.1,2.1,0.4
	c0.7,0.2,1.3,0.6,1.9,1.1L182.5,37.3z"/>
<path class="st1" d="M196.7,46.3c-0.2,0.7-0.4,1.3-0.6,2c-0.2,0.6-0.5,1.1-0.9,1.6c-0.4,0.4-0.8,0.8-1.3,1c-0.6,0.3-1.3,0.4-2,0.4
	c-0.4,0-0.7,0-1.1-0.1c-0.4,0-0.7-0.1-1-0.2l0.5-3.3c0.2,0.1,0.3,0.1,0.5,0.1s0.3,0,0.5,0c0.4,0,0.7-0.1,1-0.4
	c0.2-0.3,0.4-0.6,0.4-0.9l0.2-0.7l-3.6-12.3h3.8l1.7,8l0,0l1.6-8h3.6L196.7,46.3z"/>
<path class="st1" d="M210.8,39.9c0,0.9-0.1,1.7-0.3,2.6c-0.2,0.7-0.6,1.4-1,2c-0.9,1.2-2.2,1.9-3.7,1.8c-0.7,0-1.4-0.2-2.1-0.5
	c-0.6-0.3-1.1-0.8-1.6-1.3c-0.5-0.6-0.8-1.3-1-2c-0.2-0.8-0.4-1.7-0.3-2.6c0-0.9,0.1-1.8,0.3-2.6c0.2-0.7,0.5-1.4,1-2
	c0.4-0.6,1-1,1.7-1.3c2-1,4.4-0.5,5.8,1.3c0.4,0.6,0.8,1.3,1,2C210.7,38.2,210.8,39.1,210.8,39.9z M207.3,39.9c0-0.4,0-0.9-0.1-1.3
	c-0.1-0.3-0.1-0.7-0.3-1c-0.1-0.3-0.3-0.5-0.5-0.7s-0.4-0.3-0.7-0.2c-0.2,0-0.5,0.1-0.7,0.2c-0.2,0.2-0.4,0.4-0.5,0.7
	s-0.2,0.7-0.3,1c-0.1,0.8-0.1,1.7,0,2.5c0.1,0.3,0.1,0.7,0.3,1c0.1,0.3,0.3,0.5,0.5,0.7s0.4,0.3,0.7,0.2c0.3,0,0.5-0.1,0.7-0.2
	c0.2-0.2,0.4-0.4,0.5-0.7s0.2-0.7,0.3-1C207.3,40.8,207.3,40.3,207.3,39.9L207.3,39.9z"/>
<path class="st1" d="M219,45.9v-1.7l0,0c-0.2,0.6-0.6,1.1-1.1,1.5s-1.2,0.7-1.9,0.6c-1.1,0.1-2.2-0.5-2.6-1.6
	c-0.2-0.5-0.4-1.1-0.5-1.6c-0.1-0.6-0.1-1.3-0.1-1.9v-7.3h3.6v7.3c0,0.2,0,0.5,0,0.7s0.1,0.4,0.2,0.6c0.1,0.2,0.2,0.3,0.3,0.4
	c0.2,0.1,0.3,0.2,0.5,0.2c0.4,0,0.8-0.2,1-0.6c0.3-0.5,0.4-1,0.4-1.6v-7h3.6v12L219,45.9z"/>
<path class="st1" d="M225.3,33.9h3.5v2l0,0c0.4-1.6,1.2-2.4,2.4-2.4h0.3l0.3,0.1l-0.2,3.6l-0.4-0.1c-0.1,0-0.3,0-0.4,0
	c-0.3,0-0.6,0.1-0.8,0.2c-0.2,0.2-0.4,0.4-0.6,0.6c-0.2,0.3-0.3,0.6-0.4,0.9c-0.1,0.4-0.1,0.7-0.1,1.1v6h-3.6V33.9z"/>
<path class="st1" d="M241.6,33v3.3h3.9v3.2h-3.9V46h-3.7V29.7h7.9V33H241.6z"/>
<path class="st1" d="M247.2,33.9h3.5v2l0,0c0.4-1.6,1.2-2.4,2.4-2.4h0.3l0.3,0.1l-0.2,3.6l-0.4-0.1c-0.1,0-0.3,0-0.4,0
	c-0.3,0-0.6,0.1-0.8,0.2c-0.2,0.2-0.4,0.4-0.6,0.6c-0.2,0.3-0.3,0.6-0.4,0.9c-0.1,0.4-0.1,0.7-0.1,1.1v6h-3.6V33.9z"/>
<path class="st1" d="M257.8,40.8c0,0.3,0,0.7,0.1,1s0.2,0.5,0.3,0.8c0.1,0.2,0.3,0.4,0.5,0.5s0.4,0.2,0.7,0.2c0.4,0,0.7-0.1,1-0.4
	c0.2-0.3,0.4-0.6,0.6-0.9l2.6,1.5c-0.4,0.8-0.9,1.6-1.7,2.1c-0.8,0.5-1.7,0.8-2.6,0.8c-0.7,0-1.4-0.1-2-0.4
	c-0.6-0.3-1.2-0.7-1.6-1.2c-0.5-0.6-0.8-1.3-1.1-2c-0.3-0.9-0.4-1.8-0.4-2.8c0-0.9,0.1-1.8,0.4-2.7c0.2-0.7,0.5-1.4,1-2
	c0.4-0.5,0.9-1,1.5-1.3s1.3-0.5,2-0.5s1.5,0.1,2.1,0.5c0.6,0.3,1.1,0.8,1.4,1.3c0.4,0.6,0.7,1.3,0.8,2c0.2,0.8,0.3,1.7,0.2,2.5v1
	L257.8,40.8z M260.5,38.5c0-0.6-0.1-1.1-0.3-1.6c-0.2-0.4-0.6-0.7-1-0.6c-0.2,0-0.5,0.1-0.6,0.2c-0.2,0.2-0.3,0.3-0.5,0.5
	c-0.1,0.2-0.2,0.5-0.3,0.7c-0.1,0.2-0.1,0.5-0.1,0.8L260.5,38.5z"/>
<path class="st1" d="M268.6,40.8c0,0.3,0,0.7,0.1,1s0.2,0.5,0.3,0.8c0.1,0.2,0.3,0.4,0.5,0.5s0.4,0.2,0.7,0.2c0.4,0,0.7-0.1,1-0.4
	c0.2-0.3,0.4-0.6,0.5-1l2.6,1.5c-0.4,0.8-0.9,1.5-1.6,2.1c-0.8,0.5-1.7,0.8-2.6,0.8c-0.7,0-1.4-0.1-2-0.4c-0.6-0.3-1.2-0.7-1.6-1.2
	c-0.5-0.6-0.8-1.3-1.1-2c-0.3-0.9-0.4-1.8-0.4-2.8c0-0.9,0.1-1.8,0.4-2.7c0.2-0.7,0.5-1.4,1-2c0.4-0.5,0.9-1,1.5-1.3s1.3-0.5,2-0.5
	s1.5,0.1,2.1,0.5c0.6,0.3,1.1,0.8,1.4,1.3c0.4,0.6,0.7,1.3,0.8,2c0.2,0.8,0.3,1.7,0.2,2.5v1L268.6,40.8z M271.3,38.5
	c0-0.6-0.1-1.1-0.3-1.6c-0.2-0.4-0.6-0.7-1-0.6c-0.2,0-0.5,0.1-0.6,0.2c-0.2,0.2-0.3,0.3-0.5,0.5c-0.1,0.2-0.2,0.5-0.3,0.7
	c-0.1,0.2-0.1,0.5-0.1,0.8L271.3,38.5z"/>
<path class="st1" d="M282.5,45.9v-1.5l0,0c-0.2,0.5-0.5,0.9-0.8,1.3c-0.5,0.4-1.1,0.6-1.7,0.5c-0.6,0-1.2-0.2-1.7-0.5
	c-0.5-0.4-0.9-0.8-1.2-1.4c-0.4-0.7-0.6-1.4-0.8-2.1c-0.2-0.8-0.3-1.7-0.3-2.5s0.1-1.7,0.2-2.5c0.1-0.7,0.4-1.4,0.8-2
	c0.3-0.5,0.7-1,1.2-1.3s1.1-0.5,1.7-0.5s1.1,0.1,1.5,0.5c0.4,0.3,0.7,0.7,0.9,1.1h0.1v-6.5h3.6v17.4H282.5z M282.6,39.9
	c0-0.4,0-0.9-0.1-1.3c-0.1-0.3-0.2-0.7-0.3-1c-0.1-0.3-0.3-0.5-0.5-0.7s-0.4-0.3-0.7-0.2c-0.3,0-0.5,0.1-0.7,0.2
	c-0.2,0.2-0.4,0.4-0.5,0.7s-0.2,0.7-0.3,1c-0.1,0.8-0.1,1.7,0,2.5c0.1,0.3,0.1,0.7,0.3,1c0.1,0.3,0.3,0.5,0.5,0.7s0.4,0.3,0.7,0.2
	c0.2,0,0.5-0.1,0.7-0.2c0.2-0.2,0.4-0.4,0.5-0.7s0.2-0.7,0.3-1C282.6,40.8,282.6,40.3,282.6,39.9L282.6,39.9z"/>
<path class="st1" d="M298.1,39.9c0,0.9-0.1,1.7-0.3,2.6c-0.2,0.7-0.6,1.4-1,2c-0.9,1.2-2.2,1.9-3.7,1.8c-0.7,0-1.4-0.2-2.1-0.5
	c-0.6-0.3-1.1-0.8-1.6-1.3c-0.5-0.6-0.8-1.3-1-2c-0.2-0.8-0.4-1.7-0.3-2.6c0-0.9,0.1-1.8,0.3-2.6c0.2-0.7,0.5-1.4,1-2
	c0.4-0.6,1-1,1.6-1.3c2-1,4.4-0.5,5.7,1.3c0.4,0.6,0.8,1.3,1,2C298,38.1,298.1,39,298.1,39.9z M294.7,39.9c0-0.4,0-0.9-0.1-1.3
	c-0.1-0.3-0.1-0.7-0.3-1c-0.1-0.3-0.3-0.5-0.5-0.7s-0.4-0.3-0.7-0.2c-0.2,0-0.5,0.1-0.7,0.2c-0.2,0.2-0.4,0.4-0.5,0.7
	s-0.2,0.7-0.3,1c-0.1,0.8-0.1,1.7,0,2.5c0.1,0.3,0.1,0.7,0.3,1c0.1,0.3,0.3,0.5,0.5,0.7s0.4,0.3,0.7,0.2c0.3,0,0.5-0.1,0.7-0.2
	c0.2-0.2,0.4-0.4,0.5-0.7s0.2-0.7,0.3-1C294.6,40.8,294.7,40.3,294.7,39.9L294.7,39.9z"/>
<path class="st1" d="M303.8,33.9v1.7l0,0c0.2-0.6,0.5-1.1,1-1.5s1.2-0.7,1.9-0.6c0.7-0.1,1.4,0.2,1.9,0.6c0.4,0.4,0.7,0.9,0.9,1.5
	l0,0c0.1-0.3,0.2-0.5,0.4-0.8c0.2-0.3,0.4-0.5,0.6-0.7c0.3-0.2,0.6-0.4,0.9-0.5c0.4-0.1,0.7-0.2,1.1-0.2c0.6,0,1.2,0.1,1.7,0.4
	c0.4,0.3,0.8,0.7,1,1.1c0.2,0.5,0.4,1.1,0.5,1.6c0.1,0.6,0.1,1.3,0.1,1.9v7.3h-3.6v-7.4c0-0.5-0.1-0.9-0.2-1.3
	c-0.1-0.4-0.5-0.6-0.9-0.6s-0.8,0.2-1,0.6c-0.3,0.5-0.4,1-0.4,1.6v7.1h-3.5v-7.4c0-0.5-0.1-0.9-0.2-1.3c-0.1-0.4-0.5-0.6-0.9-0.6
	s-0.8,0.2-1,0.6c-0.3,0.5-0.4,1-0.4,1.6v7.1h-3.5v-12L303.8,33.9z"/>
<path class="st1" d="M331.6,45.9c-0.8,0.3-1.7,0.4-2.6,0.4c-1.9,0-3.7-0.8-4.8-2.4c-0.6-0.8-1-1.7-1.3-2.7c-0.3-1.1-0.5-2.3-0.5-3.5
	s0.1-2.3,0.5-3.5c0.3-1,0.7-1.9,1.3-2.7c0.5-0.7,1.2-1.3,2-1.8c0.8-0.4,1.7-0.6,2.6-0.6c1,0,1.9,0.2,2.8,0.6
	c0.7,0.3,1.3,0.8,1.8,1.4l-2,2.7c-0.5-0.7-1.4-1.2-2.3-1.2c-0.5,0-0.9,0.1-1.3,0.4c-0.4,0.3-0.7,0.7-0.9,1.1c-0.3,0.5-0.4,1-0.5,1.6
	c-0.1,0.7-0.2,1.3-0.2,2s0,1.3,0.2,2c0.1,0.6,0.3,1.1,0.5,1.6c0.2,0.4,0.5,0.8,0.9,1.1s0.8,0.4,1.3,0.4s0.9-0.1,1.3-0.3v-3h-1.8
	v-3.3h5V45C332.9,45.4,332.3,45.7,331.6,45.9z"/>
<path class="st1" d="M345.2,39.9c0,0.9-0.1,1.7-0.3,2.6c-0.2,0.7-0.6,1.4-1,2c-0.9,1.2-2.2,1.9-3.7,1.8c-0.7,0-1.4-0.2-2.1-0.5
	c-0.6-0.3-1.1-0.8-1.6-1.3c-0.5-0.6-0.8-1.3-1-2c-0.2-0.8-0.4-1.7-0.3-2.6c0-0.9,0.1-1.8,0.3-2.6c0.2-0.7,0.5-1.4,1-2
	c0.4-0.6,1-1,1.6-1.3c2-1,4.4-0.5,5.8,1.3c0.4,0.6,0.8,1.3,1,2C345.1,38.2,345.3,39.1,345.2,39.9z M341.8,39.9c0-0.4,0-0.9-0.1-1.3
	c-0.1-0.3-0.1-0.7-0.3-1c-0.1-0.3-0.3-0.5-0.5-0.7s-0.4-0.3-0.7-0.2c-0.2,0-0.5,0.1-0.7,0.2c-0.2,0.2-0.4,0.4-0.5,0.7
	s-0.2,0.7-0.3,1c-0.1,0.8-0.1,1.7,0,2.5c0.1,0.3,0.1,0.7,0.3,1c0.1,0.3,0.3,0.5,0.5,0.7s0.4,0.3,0.7,0.2c0.3,0,0.5-0.1,0.7-0.2
	c0.2-0.2,0.4-0.4,0.5-0.7s0.2-0.7,0.3-1C341.8,40.8,341.8,40.3,341.8,39.9L341.8,39.9z"/>
<path class="st1" d="M352.3,44.4c-0.1,0.5-0.5,1-0.9,1.3c-0.5,0.3-1.1,0.5-1.8,0.5c-0.4,0-0.7-0.1-1.1-0.2c-0.4-0.1-0.7-0.3-1-0.6
	s-0.6-0.7-0.8-1.1c-0.2-0.6-0.3-1.1-0.3-1.7c0-0.7,0.1-1.4,0.5-2c0.3-0.5,0.7-1,1.2-1.3s1.1-0.6,1.6-0.7c0.6-0.1,1.2-0.2,1.9-0.2
	h0.5v-0.2c0-0.5-0.1-0.9-0.4-1.3c-0.3-0.3-0.7-0.4-1.1-0.4s-0.8,0.1-1.2,0.3c-0.4,0.2-0.7,0.5-0.9,0.8l-1.6-2.2
	c0.5-0.6,1.1-1.1,1.8-1.4c0.7-0.3,1.4-0.5,2.2-0.5c0.7,0,1.4,0.1,2.1,0.4c0.5,0.2,1,0.6,1.4,1.1s0.6,1.1,0.8,1.7
	c0.2,0.8,0.2,1.6,0.2,2.4V46h-3L352.3,44.4L352.3,44.4z M352.2,40.7h-0.6c-0.3,0-0.5,0-0.8,0.1c-0.2,0-0.4,0.1-0.6,0.3
	c-0.2,0.1-0.3,0.3-0.4,0.5s-0.2,0.5-0.2,0.8c0,0.4,0.1,0.7,0.3,1c0.2,0.2,0.5,0.3,0.8,0.3s0.5-0.1,0.7-0.2c0.2-0.1,0.4-0.3,0.5-0.5
	s0.2-0.5,0.3-0.8c0.1-0.3,0.1-0.6,0.1-0.8L352.2,40.7z"/>
<path class="st1" d="M358,45.9V28.6h3.7V46L358,45.9L358,45.9z"/>
<path class="st1" d="M369.6,40.5h-3v-1c0-0.7,0.1-1.4,0.4-2s0.7-1.1,1.2-1.5l0.4-0.4c0.2-0.2,0.4-0.5,0.6-0.7
	c0.2-0.3,0.2-0.6,0.2-0.9c0-0.4-0.1-0.8-0.3-1.2c-0.2-0.3-0.6-0.5-1-0.4c-0.2,0-0.5,0.1-0.7,0.2c-0.2,0.1-0.3,0.3-0.5,0.5
	c-0.1,0.2-0.2,0.4-0.3,0.6c-0.1,0.2-0.1,0.4-0.1,0.6l-3-0.5c0.1-0.6,0.2-1.2,0.5-1.7c0.2-0.5,0.5-1,0.9-1.4s0.9-0.8,1.4-1
	c0.6-0.3,1.3-0.4,2-0.4c2.3-0.2,4.3,1.5,4.4,3.8c0,0.2,0,0.5,0,0.7c0,0.4,0,0.9-0.2,1.3c-0.1,0.4-0.3,0.7-0.4,1.1
	c-0.2,0.3-0.4,0.6-0.7,0.9c-0.3,0.3-0.6,0.6-0.9,0.8c-0.3,0.3-0.6,0.6-0.8,1c-0.1,0.3-0.2,0.7-0.2,1L369.6,40.5z M370.2,44.1
	c0,0.5-0.2,1.1-0.5,1.5c-0.8,0.8-2,0.8-2.8,0l0,0c-0.4-0.4-0.6-0.9-0.5-1.5c0-0.5,0.2-1.1,0.5-1.5c0.7-0.8,1.9-0.8,2.7-0.1l0.1,0.1
	C370,43,370.2,43.5,370.2,44.1z"/>
</svg>
