<svg xmlns="http://www.w3.org/2000/svg" viewBox="0 0 400 80"><defs><style>.cls-1{fill:#3a225f;}.cls-2{fill:#f36c24;}</style></defs><title>Journey</title><g id="Layer_2" data-name="Layer 2"><g id="Layer_1-2" data-name="Layer 1"><rect class="cls-1" width="400" height="80"/><path class="cls-2" d="M136.88,44.84a4.23,4.23,0,0,1-3.57,1.47,4.41,4.41,0,0,1-4.46-3.52l3-1.33a2.67,2.67,0,0,0,.45,1,1,1,0,0,0,.84.41,1,1,0,0,0,1-.62,4.92,4.92,0,0,0,.24-1.72V29.67H138V40.82A6.41,6.41,0,0,1,136.88,44.84Z"/><path class="cls-2" d="M143.57,40.84a3.49,3.49,0,0,0,.13,1,3,3,0,0,0,.33.78,1.67,1.67,0,0,0,.51.53,1.19,1.19,0,0,0,.67.2,1.26,1.26,0,0,0,1-.39,2.83,2.83,0,0,0,.57-.92l2.64,1.49a5.18,5.18,0,0,1-1.67,2.11,4.38,4.38,0,0,1-2.65.78,4.68,4.68,0,0,1-2-.41,4.45,4.45,0,0,1-1.59-1.23,5.9,5.9,0,0,1-1.06-2,9.14,9.14,0,0,1-.38-2.76,9.45,9.45,0,0,1,.36-2.68,6.09,6.09,0,0,1,1-2,4.65,4.65,0,0,1,1.55-1.3,4.26,4.26,0,0,1,2-.46,4.32,4.32,0,0,1,2.11.48,4.1,4.1,0,0,1,1.44,1.32,5.76,5.76,0,0,1,.82,2,12,12,0,0,1,.25,2.54v1Zm2.71-2.34a3.82,3.82,0,0,0-.3-1.61,1,1,0,0,0-1-.64,1,1,0,0,0-.63.22,1.91,1.91,0,0,0-.45.55,2.81,2.81,0,0,0-.28.74,3.36,3.36,0,0,0-.09.75Z"/><path class="cls-2" d="M155.2,33.92v1.7h0a3.35,3.35,0,0,1,1.06-1.5,2.85,2.85,0,0,1,1.88-.63A2.64,2.64,0,0,1,160.81,35a5.21,5.21,0,0,1,.46,1.63,15.28,15.28,0,0,1,.12,1.91v7.35h-3.61V38.56a3.74,3.74,0,0,0-.22-1.33.84.84,0,0,0-.86-.58,1.15,1.15,0,0,0-1,.61,3.06,3.06,0,0,0-.37,1.6v7.08h-3.61v-12Z"/><path class="cls-2" d="M164.53,29.67h2.69l-1.45,5.93h-2.39Z"/><path class="cls-2" d="M174.16,37.3a3.71,3.71,0,0,0-.9-.67,2.24,2.24,0,0,0-1.06-.25,1.09,1.09,0,0,0-.75.28,1,1,0,0,0-.31.76.75.75,0,0,0,.33.68,5.38,5.38,0,0,0,1.25.49,6.2,6.2,0,0,1,1.06.44,3.51,3.51,0,0,1,1.62,1.76,3.6,3.6,0,0,1,.26,1.44,4.18,4.18,0,0,1-.39,1.88,3.75,3.75,0,0,1-1,1.26,4,4,0,0,1-1.34.71,4.88,4.88,0,0,1-1.44.23,6.28,6.28,0,0,1-2.31-.44,5.68,5.68,0,0,1-1.92-1.22l1.79-2.3a4.61,4.61,0,0,0,1,.83,2.43,2.43,0,0,0,1.23.32,1,1,0,0,0,.79-.3,1.08,1.08,0,0,0,.29-.78.9.9,0,0,0-.46-.84A7.71,7.71,0,0,0,170.6,41a7.36,7.36,0,0,1-1-.4,3,3,0,0,1-.86-.66,3.36,3.36,0,0,1-.62-1,3.79,3.79,0,0,1-.24-1.44,3.94,3.94,0,0,1,.37-1.76,3.78,3.78,0,0,1,1-1.24,4,4,0,0,1,1.31-.74,4.58,4.58,0,0,1,1.46-.24,5.81,5.81,0,0,1,2.11.39A5.89,5.89,0,0,1,175.91,35Z"/><path class="cls-2" d="M190.75,45.74a5.41,5.41,0,0,1-2.76.63,5.32,5.32,0,0,1-2.58-.63,6,6,0,0,1-2-1.77,8.72,8.72,0,0,1-1.29-2.71,12.29,12.29,0,0,1-.46-3.46,12.51,12.51,0,0,1,.46-3.49,8.57,8.57,0,0,1,1.29-2.71,5.92,5.92,0,0,1,2-1.75,5.4,5.4,0,0,1,2.58-.62,5.71,5.71,0,0,1,2.72.59,5.36,5.36,0,0,1,1.76,1.46l-2,2.67a3.44,3.44,0,0,0-.93-.87,2.42,2.42,0,0,0-1.3-.32,2.12,2.12,0,0,0-1.28.39,3.24,3.24,0,0,0-.92,1.07,5.43,5.43,0,0,0-.56,1.61,10.23,10.23,0,0,0-.18,2,10,10,0,0,0,.18,2,5.59,5.59,0,0,0,.56,1.61,3.15,3.15,0,0,0,.93,1.08,2.16,2.16,0,0,0,1.29.39,2.27,2.27,0,0,0,1.29-.37,3,3,0,0,0,.87-.87l2,2.55A5.51,5.51,0,0,1,190.75,45.74Z"/><path class="cls-2" d="M203.07,39.94a9.2,9.2,0,0,1-.34,2.59,6.33,6.33,0,0,1-1,2,4.42,4.42,0,0,1-3.67,1.82,4.43,4.43,0,0,1-2.09-.48,4.76,4.76,0,0,1-1.57-1.33,6.07,6.07,0,0,1-1-2,9.23,9.23,0,0,1-.34-2.59,9.35,9.35,0,0,1,.34-2.6,6.21,6.21,0,0,1,1-2A4.63,4.63,0,0,1,196,34a4.56,4.56,0,0,1,5.77,1.33,6.33,6.33,0,0,1,1,2A9.32,9.32,0,0,1,203.07,39.94Zm-3.45,0a8.21,8.21,0,0,0-.09-1.28,4.6,4.6,0,0,0-.28-1,1.86,1.86,0,0,0-.47-.7,1,1,0,0,0-.7-.25,1,1,0,0,0-.68.25,1.85,1.85,0,0,0-.47.7,4.65,4.65,0,0,0-.28,1,8.91,8.91,0,0,0,0,2.55,4.65,4.65,0,0,0,.28,1,1.84,1.84,0,0,0,.47.7,1,1,0,0,0,.68.25,1,1,0,0,0,.7-.25,1.85,1.85,0,0,0,.47-.7,4.6,4.6,0,0,0,.28-1A8.22,8.22,0,0,0,199.62,39.92Z"/><path class="cls-2" d="M210.17,44.45a2.37,2.37,0,0,1-.91,1.3,2.92,2.92,0,0,1-1.76.49,3.41,3.41,0,0,1-1.08-.18,2.76,2.76,0,0,1-1-.61,3.22,3.22,0,0,1-.76-1.13,4.43,4.43,0,0,1-.3-1.74,4.17,4.17,0,0,1,.45-2A3.66,3.66,0,0,1,206,39.25a4.7,4.7,0,0,1,1.64-.68,8.94,8.94,0,0,1,1.86-.2h.46V38.2a1.7,1.7,0,0,0-.4-1.26,1.47,1.47,0,0,0-1.07-.39,2.45,2.45,0,0,0-1.21.3,3.31,3.31,0,0,0-.93.76l-1.59-2.21A5,5,0,0,1,206.57,34a5.32,5.32,0,0,1,2.17-.48,5.2,5.2,0,0,1,2.07.37A3.32,3.32,0,0,1,212.19,35a4.55,4.55,0,0,1,.76,1.74,10.87,10.87,0,0,1,.23,2.36v6.85h-3V44.45Zm-.11-3.75h-.64a4.11,4.11,0,0,0-.76.07A1.62,1.62,0,0,0,208,41a1.4,1.4,0,0,0-.44.51,1.73,1.73,0,0,0-.16.79,1.5,1.5,0,0,0,.31,1,1,1,0,0,0,.75.33,1.27,1.27,0,0,0,.72-.21,1.53,1.53,0,0,0,.49-.54,2.77,2.77,0,0,0,.28-.76,4,4,0,0,0,.09-.84Z"/><path class="cls-2" d="M221.59,46a4.58,4.58,0,0,1-3.77-.13,4.24,4.24,0,0,1-1.47-1.32,6.28,6.28,0,0,1-.91-2,10,10,0,0,1-.31-2.57,9.56,9.56,0,0,1,.32-2.56,6.46,6.46,0,0,1,.92-2,4.11,4.11,0,0,1,3.52-1.79,3.87,3.87,0,0,1,2.9,1.19l-1.45,2.8a1.61,1.61,0,0,0-.51-.51,1.25,1.25,0,0,0-.67-.18,1.3,1.3,0,0,0-1.12.8,4.67,4.67,0,0,0-.45,2.25,4.69,4.69,0,0,0,.44,2.24,1.33,1.33,0,0,0,1.19.79,1.18,1.18,0,0,0,.68-.2,1.54,1.54,0,0,0,.47-.52L222.83,45A3.34,3.34,0,0,1,221.59,46Z"/><path class="cls-2" d="M227.72,45.94h-3.61V28.57h3.61v7h.07a3.26,3.26,0,0,1,1-1.42,2.71,2.71,0,0,1,1.83-.62,2.94,2.94,0,0,1,1.67.42,2.83,2.83,0,0,1,1,1.14,5.24,5.24,0,0,1,.46,1.63,15.47,15.47,0,0,1,.11,1.91v7.35h-3.61V38.56a3.74,3.74,0,0,0-.22-1.33.86.86,0,0,0-.88-.58,1.15,1.15,0,0,0-1,.61,3.05,3.05,0,0,0-.37,1.6Z"/><path class="cls-2" d="M240.25,30.66a2.13,2.13,0,0,1-.55,1.48,2,2,0,0,1-2.85,0,2.12,2.12,0,0,1-.55-1.48,2.21,2.21,0,0,1,.15-.82,2.24,2.24,0,0,1,.4-.67,1.91,1.91,0,0,1,2.85,0,2.26,2.26,0,0,1,.4.67A2.21,2.21,0,0,1,240.25,30.66Zm-3.79,15.28v-12h3.63v12Z"/><path class="cls-2" d="M246.38,33.92v1.7h0a3.36,3.36,0,0,1,1.06-1.5,2.85,2.85,0,0,1,1.88-.63A2.64,2.64,0,0,1,252,35a5.21,5.21,0,0,1,.46,1.63,15.28,15.28,0,0,1,.12,1.91v7.35H249V38.56a3.74,3.74,0,0,0-.22-1.33.84.84,0,0,0-.86-.58,1.15,1.15,0,0,0-1,.61,3.05,3.05,0,0,0-.37,1.6v7.08h-3.61v-12Z"/><path class="cls-2" d="M264.54,33.92V45.09a7.52,7.52,0,0,1-1.29,4.72,4.88,4.88,0,0,1-4.09,1.64A7,7,0,0,1,256.7,51a6.58,6.58,0,0,1-2-1.12l1.68-2.67a5.07,5.07,0,0,0,1.16.76,3.15,3.15,0,0,0,1.37.3,1.77,1.77,0,0,0,1.62-.78,3.59,3.59,0,0,0,.49-2v-1h0a2.54,2.54,0,0,1-.92,1.07,2.6,2.6,0,0,1-1.54.47,3.18,3.18,0,0,1-1.74-.47,3.86,3.86,0,0,1-1.25-1.31,6.52,6.52,0,0,1-.76-2,11.24,11.24,0,0,1-.25-2.45,11.4,11.4,0,0,1,.26-2.54,6.56,6.56,0,0,1,.78-2A4.14,4.14,0,0,1,256.84,34a3,3,0,0,1,1.7-.48,2.4,2.4,0,0,1,1.62.5,3,3,0,0,1,.86,1.29h.07V33.92Zm-3.38,6a8.22,8.22,0,0,0-.09-1.28,4.25,4.25,0,0,0-.29-1,2,2,0,0,0-.48-.7,1,1,0,0,0-.68-.25,1,1,0,0,0-.7.25,1.85,1.85,0,0,0-.47.7,4.6,4.6,0,0,0-.28,1,8.82,8.82,0,0,0,0,2.54,4.59,4.59,0,0,0,.28,1,1.84,1.84,0,0,0,.47.7,1,1,0,0,0,.7.25,1,1,0,0,0,.68-.25,2,2,0,0,0,.48-.7,4.25,4.25,0,0,0,.29-1A8.28,8.28,0,0,0,261.16,39.92Z"/><path class="cls-2" d="M278,44.84a4.23,4.23,0,0,1-3.57,1.47A4.41,4.41,0,0,1,270,42.79l3-1.33a2.68,2.68,0,0,0,.45,1,1,1,0,0,0,.84.41,1,1,0,0,0,1-.62,4.93,4.93,0,0,0,.24-1.72V29.67h3.65V40.82A6.41,6.41,0,0,1,278,44.84Z"/><path class="cls-2" d="M291.19,39.94a9.23,9.23,0,0,1-.34,2.59,6.35,6.35,0,0,1-1,2,4.42,4.42,0,0,1-3.67,1.82,4.43,4.43,0,0,1-2.09-.48,4.77,4.77,0,0,1-1.57-1.33,6.07,6.07,0,0,1-1-2,9.2,9.2,0,0,1-.34-2.59,9.32,9.32,0,0,1,.34-2.6,6.19,6.19,0,0,1,1-2A4.63,4.63,0,0,1,284.1,34a4.56,4.56,0,0,1,5.77,1.33,6.35,6.35,0,0,1,1,2A9.35,9.35,0,0,1,291.19,39.94Zm-3.45,0a8.34,8.34,0,0,0-.09-1.28,4.65,4.65,0,0,0-.28-1,1.86,1.86,0,0,0-.47-.7,1,1,0,0,0-.7-.25,1,1,0,0,0-.68.25,1.85,1.85,0,0,0-.47.7,4.55,4.55,0,0,0-.28,1,8.81,8.81,0,0,0,0,2.55,4.55,4.55,0,0,0,.28,1,1.84,1.84,0,0,0,.47.7,1,1,0,0,0,.68.25,1,1,0,0,0,.7-.25,1.85,1.85,0,0,0,.47-.7,4.65,4.65,0,0,0,.28-1A8.35,8.35,0,0,0,287.75,39.92Z"/><path class="cls-2" d="M299.35,45.94v-1.7h0a3.34,3.34,0,0,1-1.06,1.5,2.85,2.85,0,0,1-1.88.63,2.64,2.64,0,0,1-2.62-1.56,5.17,5.17,0,0,1-.46-1.63,15.26,15.26,0,0,1-.11-1.91V33.92h3.61v7.35a5.46,5.46,0,0,0,0,.74,2.09,2.09,0,0,0,.16.6,1,1,0,0,0,.33.41.89.89,0,0,0,.54.16,1.15,1.15,0,0,0,1-.61,3.06,3.06,0,0,0,.37-1.6V33.92h3.61v12Z"/><path class="cls-2" d="M305.72,33.92h3.49v2h0q.64-2.39,2.41-2.39h.3l.28.06L312,37.23l-.36-.08a2.25,2.25,0,0,0-.42,0,1.36,1.36,0,0,0-.8.24,2.11,2.11,0,0,0-.59.63,3.11,3.11,0,0,0-.37.92,4.65,4.65,0,0,0-.13,1.08v6h-3.61Z"/><path class="cls-2" d="M317.14,33.92v1.7h0a3.36,3.36,0,0,1,1.06-1.5,2.85,2.85,0,0,1,1.88-.63A2.64,2.64,0,0,1,322.74,35a5.21,5.21,0,0,1,.46,1.63,15.28,15.28,0,0,1,.12,1.91v7.35h-3.61V38.56a3.74,3.74,0,0,0-.22-1.33.84.84,0,0,0-.86-.58,1.15,1.15,0,0,0-1,.61,3.05,3.05,0,0,0-.37,1.6v7.08h-3.61v-12Z"/><path class="cls-2" d="M328.79,40.84a3.51,3.51,0,0,0,.13,1,3,3,0,0,0,.33.78,1.67,1.67,0,0,0,.5.53,1.2,1.2,0,0,0,.67.2,1.26,1.26,0,0,0,1-.39A2.83,2.83,0,0,0,332,42l2.64,1.49a5.17,5.17,0,0,1-1.67,2.11,4.38,4.38,0,0,1-2.65.78,4.68,4.68,0,0,1-2-.41,4.44,4.44,0,0,1-1.59-1.23,5.9,5.9,0,0,1-1.06-2,9.15,9.15,0,0,1-.38-2.76,9.45,9.45,0,0,1,.36-2.68,6.09,6.09,0,0,1,1-2,4.65,4.65,0,0,1,1.55-1.3,4.26,4.26,0,0,1,2-.46,4.32,4.32,0,0,1,2.11.48,4.11,4.11,0,0,1,1.44,1.32,5.77,5.77,0,0,1,.82,2,11.92,11.92,0,0,1,.25,2.54v1Zm2.71-2.34a3.83,3.83,0,0,0-.3-1.61,1,1,0,0,0-1-.64,1,1,0,0,0-.63.22,1.89,1.89,0,0,0-.45.55,2.78,2.78,0,0,0-.28.74,3.36,3.36,0,0,0-.09.75Z"/><path class="cls-2" d="M342.94,46.35a18.85,18.85,0,0,1-.63,2,6.28,6.28,0,0,1-.91,1.62A4.07,4.07,0,0,1,340,51a4.29,4.29,0,0,1-2,.41,8.43,8.43,0,0,1-1.07-.07q-.54-.07-1-.16l.48-3.26a2.06,2.06,0,0,0,.48.14,3,3,0,0,0,.48,0,1.24,1.24,0,0,0,1-.37,2.27,2.27,0,0,0,.45-.87l.18-.67-3.58-12.32h3.79l1.72,8h0l1.59-8h3.65Z"/><path class="cls-2" d="M46.51,65h0a.8.8,0,0,0,.36.1l.21,0,17.06-4.66,17.06,4.66.21,0a.77.77,0,0,0,.36-.1h0L96,56.36a.79.79,0,0,0,.35-.88L88.51,28a.78.78,0,0,0-.46-.51.8.8,0,0,0-.68,0l-7.79,4.37a.79.79,0,1,0,.77,1.37l6.92-3.88,7.39,25.94L82.08,63l-3-23.91a.79.79,0,0,0-.88-.68.79.79,0,0,0-.68.88l3,24L65,59V54.73a.78.78,0,0,0-1.57,0V59L47.85,63.26l3-24a.79.79,0,0,0-1.56-.19L46.29,63,33.71,55.34,41.1,29.4,48,33.28a.79.79,0,1,0,.77-1.37L41,27.54a.78.78,0,0,0-1.14.47L32,55.48a.78.78,0,0,0,.35.88ZM63.66,51.56a.79.79,0,0,0,1.06,0c.52-.48,12.81-11.75,12.81-23.34a13.34,13.34,0,0,0-26.68,0C50.85,39.61,63.13,51.08,63.66,51.56Zm.53-35.11A11.51,11.51,0,0,1,76,28.23c0,9.57-9.41,19.36-11.77,21.67-2.36-2.33-11.78-12.26-11.78-21.67A11.51,11.51,0,0,1,64.19,16.46Zm7.06,11.77a7.06,7.06,0,1,0-7.06,7.06A7.07,7.07,0,0,0,71.25,28.23Zm-7.06,5.49a5.49,5.49,0,1,1,5.49-5.49A5.5,5.5,0,0,1,64.19,33.72Z"/></g></g></svg>