<svg xmlns="http://www.w3.org/2000/svg" viewBox="0 0 400 80"><defs><style>.cls-1{fill:#3a225f;}.cls-2{fill:#3a7cbf;}</style></defs><title>Process</title><g id="Layer_2" data-name="Layer 2"><g id="Layer_1-2" data-name="Layer 1"><rect class="cls-1" width="400" height="80"/><path class="cls-2" d="M37.14,49a1.26,1.26,0,0,1,.74.7L38.42,51a1.25,1.25,0,0,1,0,1l-2.14,3.5a2.17,2.17,0,0,0,.25,2.5l1.81,1.81a2.23,2.23,0,0,0,2.47.22l3.5-2.14a1.23,1.23,0,0,1,1,0l1.29.53a1.25,1.25,0,0,1,.66.72l1,4a2.22,2.22,0,0,0,1.88,1.62s.53,0,1.33,0,1.33,0,1.33,0a2.21,2.21,0,0,0,1.88-1.62l1-4a1.26,1.26,0,0,1,.7-.74l1.29-.54a1.34,1.34,0,0,1,1,0L62,60a2,2,0,0,0,1.07.29,2.15,2.15,0,0,0,1.44-.54L66.36,58a2.16,2.16,0,0,0,.22-2.47L64.44,52a1.27,1.27,0,0,1,0-1l.53-1.29a1.25,1.25,0,0,1,.72-.66l4-1a2.22,2.22,0,0,0,1.62-1.88s0-.53,0-1.33,0-1.33,0-1.33a2.22,2.22,0,0,0-1.62-1.88l-4-1a1.26,1.26,0,0,1-.74-.7l-.54-1.29a1.25,1.25,0,0,1,0-1l2.14-3.5a2.17,2.17,0,0,0-.25-2.5l-1.81-1.81A2.23,2.23,0,0,0,62,29.67l-3.5,2.14a1.23,1.23,0,0,1-1,0l-1.29-.53a1.25,1.25,0,0,1-.66-.72l-1-4A2.22,2.22,0,0,0,52.74,25s-.53,0-1.33,0-1.33,0-1.33,0a2.22,2.22,0,0,0-1.88,1.62l-1,4a1.26,1.26,0,0,1-.7.74l-1.29.54a1.34,1.34,0,0,1-1,0l-3.5-2.14a2.2,2.2,0,0,0-2.5.25l-1.81,1.81a2.16,2.16,0,0,0-.22,2.47l2.14,3.5a1.27,1.27,0,0,1,0,1L37.86,40a1.25,1.25,0,0,1-.72.66l-4,1a2.22,2.22,0,0,0-1.62,1.88s0,.53,0,1.33,0,1.33,0,1.33A2.22,2.22,0,0,0,33.15,48ZM33,44.84c0-.7,0-1.18,0-1.19a.71.71,0,0,1,.45-.53l4-1a2.74,2.74,0,0,0,1.8-1.6l.5-1.21a2.76,2.76,0,0,0-.11-2.45l-2.14-3.5a.66.66,0,0,1,0-.62L39.31,31A.69.69,0,0,1,40,31l3.5,2.14a2.89,2.89,0,0,0,2.4.13l1.21-.5a2.76,2.76,0,0,0,1.65-1.81l1-4a.71.71,0,0,1,.53-.46s.49,0,1.19,0,1.18,0,1.19,0a.71.71,0,0,1,.53.45l1,4a2.74,2.74,0,0,0,1.6,1.8l1.21.5a2.81,2.81,0,0,0,2.45-.11L62.84,31a.77.77,0,0,1,.62,0l1.75,1.75a.66.66,0,0,1,.06.65l-2.14,3.5a2.74,2.74,0,0,0-.13,2.4l.5,1.21a2.76,2.76,0,0,0,1.81,1.65l4,1a.71.71,0,0,1,.46.53s0,.49,0,1.19,0,1.18,0,1.19a.71.71,0,0,1-.45.53l-4,1a2.74,2.74,0,0,0-1.8,1.6L63,50.33a2.76,2.76,0,0,0,.11,2.45l2.14,3.5a.66.66,0,0,1,0,.62l-1.75,1.75a.61.61,0,0,1-.38.12.53.53,0,0,1-.27-.06l-3.5-2.14a2.89,2.89,0,0,0-2.4-.13l-1.21.5a2.76,2.76,0,0,0-1.65,1.81l-1,4a.71.71,0,0,1-.53.46s-.49,0-1.19,0-1.18,0-1.19,0a.71.71,0,0,1-.53-.45l-1-4a2.74,2.74,0,0,0-1.6-1.8l-1.21-.5a2.5,2.5,0,0,0-1.1-.23,2.62,2.62,0,0,0-1.35.35L40,58.71a.78.78,0,0,1-.62,0L37.6,56.93a.66.66,0,0,1-.06-.65l2.14-3.5a2.74,2.74,0,0,0,.13-2.4l-.5-1.21a2.76,2.76,0,0,0-1.81-1.65l-4-1a.71.71,0,0,1-.46-.53S33,45.54,33,44.84ZM51.4,53.27A8.43,8.43,0,1,0,43,44.84,8.44,8.44,0,0,0,51.4,53.27Zm0-15.32a6.9,6.9,0,1,1-6.9,6.9A6.9,6.9,0,0,1,51.4,37.94ZM73.59,23.87a.65.65,0,0,1-.4.21l-2.85,0a1.78,1.78,0,0,0-1.61,1.14s-.13.36-.26.9-.2.92-.2.92a1.78,1.78,0,0,0,.89,1.78l2.51,1.32a.67.67,0,0,1,.25.42l.14,1a.65.65,0,0,1-.13.43l-2,2a1.74,1.74,0,0,0-.29,2l.92,1.53a1.77,1.77,0,0,0,1.89.66l2.8-.86a.66.66,0,0,1,.39.13l.79.58a.66.66,0,0,1,.21.4l0,2.84a1.77,1.77,0,0,0,1.14,1.63s.36.13.9.26.92.2.92.2l.24,0a1.79,1.79,0,0,0,1.54-.91l1.32-2.51a.67.67,0,0,1,.42-.25l1-.15a.67.67,0,0,1,.38.13l2,2a1.7,1.7,0,0,0,2,.29L90,41a1.73,1.73,0,0,0,.66-1.89l-.85-2.71a.66.66,0,0,1,.12-.48l.58-.79a.65.65,0,0,1,.4-.21l2.85,0a1.78,1.78,0,0,0,1.61-1.14s.13-.36.26-.9.2-.92.2-.92a1.78,1.78,0,0,0-.89-1.78l-2.51-1.32a.67.67,0,0,1-.25-.42l-.14-1a.65.65,0,0,1,.13-.43l2-2a1.74,1.74,0,0,0,.29-2l-.92-1.53a1.78,1.78,0,0,0-1.89-.66l-2.8.86a.66.66,0,0,1-.39-.13l-.79-.58a.66.66,0,0,1-.21-.4l0-2.84a1.77,1.77,0,0,0-1.14-1.63s-.36-.13-.9-.26-.92-.2-.92-.2l-.24,0a1.79,1.79,0,0,0-1.54.91l-1.32,2.51a.67.67,0,0,1-.42.25l-1,.15a.67.67,0,0,1-.38-.13l-2-2a1.7,1.7,0,0,0-2-.29L74.1,18a1.73,1.73,0,0,0-.66,1.89l.85,2.71a.66.66,0,0,1-.12.48Zm1.26.88.53-.71a2.12,2.12,0,0,0,.38-1.88l-.84-2.71s0-.14,0-.14l1.45-.87.17,0,2,2a2.16,2.16,0,0,0,1.48.59,1.45,1.45,0,0,0,.31,0l.88-.13a2.14,2.14,0,0,0,1.6-1.06l1.32-2.51a.28.28,0,0,1,.18-.09s.33.05.79.17.76.22.77.22a.28.28,0,0,1,.12.17l0,2.84a2.12,2.12,0,0,0,.87,1.67l.71.53a2.16,2.16,0,0,0,1.88.38l2.72-.85c.06,0,.14,0,.13,0l.87,1.45a.24.24,0,0,1,0,.17l-2,2a2.11,2.11,0,0,0-.56,1.79l.13.88a2.13,2.13,0,0,0,1.07,1.6l2.51,1.32a.29.29,0,0,1,.09.18s-.05.33-.17.79-.22.76-.22.77a.28.28,0,0,1-.17.12l-2.85,0a2.13,2.13,0,0,0-1.65.87l-.52.71a2.12,2.12,0,0,0-.38,1.88l.84,2.71s0,.14,0,.14l-1.45.87-.17,0-2-2A2.16,2.16,0,0,0,84.09,38a1.45,1.45,0,0,0-.31,0l-.88.13a2.14,2.14,0,0,0-1.6,1.06L80,41.7a.28.28,0,0,1-.18.09h0s-.33-.05-.79-.17-.76-.22-.77-.22a.28.28,0,0,1-.12-.17l0-2.84a2.12,2.12,0,0,0-.87-1.67l-.71-.53a2.12,2.12,0,0,0-1.34-.46,1.83,1.83,0,0,0-.54.08L72,36.66c-.07,0-.14,0-.13,0L71,35.19A.24.24,0,0,1,71,35l2-2a2.11,2.11,0,0,0,.56-1.79l-.13-.88a2.13,2.13,0,0,0-1.07-1.6l-2.51-1.32a.29.29,0,0,1-.09-.18s.05-.33.17-.79.22-.76.22-.77a.28.28,0,0,1,.17-.12l2.85,0A2.13,2.13,0,0,0,74.85,24.74Zm7.21,9.37a4.6,4.6,0,1,0-4.6-4.6A4.6,4.6,0,0,0,82.05,34.11Zm0-7.66A3.06,3.06,0,1,1,79,29.52,3.07,3.07,0,0,1,82.05,26.45Z"/><path class="cls-2" d="M136,32.25V45.39h-3.61V32.25h-3V29.12H139v3.13Z"/><path class="cls-2" d="M143.84,45.39h-3.61V28h3.61v7h.07a3.26,3.26,0,0,1,1-1.42,2.71,2.71,0,0,1,1.83-.62,2.94,2.94,0,0,1,1.67.42,2.83,2.83,0,0,1,1,1.14,5.22,5.22,0,0,1,.46,1.63A15.47,15.47,0,0,1,150,38v7.35h-3.61V38a3.74,3.74,0,0,0-.22-1.33.86.86,0,0,0-.88-.58,1.15,1.15,0,0,0-1,.61,3.06,3.06,0,0,0-.37,1.6Z"/><path class="cls-2" d="M155.4,40.29a3.51,3.51,0,0,0,.13,1,3,3,0,0,0,.33.78,1.68,1.68,0,0,0,.51.53,1.19,1.19,0,0,0,.67.2,1.26,1.26,0,0,0,1-.39,2.84,2.84,0,0,0,.57-.92l2.64,1.49A5.17,5.17,0,0,1,159.55,45a4.38,4.38,0,0,1-2.65.78,4.69,4.69,0,0,1-2-.41,4.44,4.44,0,0,1-1.58-1.23,5.9,5.9,0,0,1-1.06-2,9.12,9.12,0,0,1-.38-2.76,9.41,9.41,0,0,1,.36-2.68,6.09,6.09,0,0,1,1-2,4.66,4.66,0,0,1,1.55-1.3,4.27,4.27,0,0,1,2-.46,4.32,4.32,0,0,1,2.11.48,4.11,4.11,0,0,1,1.44,1.32,5.77,5.77,0,0,1,.82,2,12,12,0,0,1,.25,2.54v1Zm2.71-2.34a3.81,3.81,0,0,0-.3-1.61,1,1,0,0,0-1-.64,1,1,0,0,0-.63.22,1.89,1.89,0,0,0-.45.55,2.82,2.82,0,0,0-.28.74,3.36,3.36,0,0,0-.09.75Z"/><path class="cls-2" d="M176.54,45.2a5.41,5.41,0,0,1-2.76.63,5.32,5.32,0,0,1-2.58-.63,6,6,0,0,1-2-1.77,8.72,8.72,0,0,1-1.29-2.71,12.29,12.29,0,0,1-.46-3.46,12.51,12.51,0,0,1,.46-3.49,8.57,8.57,0,0,1,1.29-2.71,5.93,5.93,0,0,1,2-1.75,5.4,5.4,0,0,1,2.58-.62,5.71,5.71,0,0,1,2.72.59,5.36,5.36,0,0,1,1.76,1.46l-2,2.67a3.44,3.44,0,0,0-.93-.87,2.42,2.42,0,0,0-1.3-.32,2.12,2.12,0,0,0-1.28.39,3.26,3.26,0,0,0-.92,1.07,5.43,5.43,0,0,0-.56,1.61,10.23,10.23,0,0,0-.18,2,10,10,0,0,0,.18,2,5.59,5.59,0,0,0,.56,1.61,3.17,3.17,0,0,0,.93,1.08,2.17,2.17,0,0,0,1.29.39,2.27,2.27,0,0,0,1.29-.37,3,3,0,0,0,.87-.87l2,2.55A5.5,5.5,0,0,1,176.54,45.2Z"/><path class="cls-2" d="M188.86,39.4a9.23,9.23,0,0,1-.34,2.59,6.35,6.35,0,0,1-1,2,4.42,4.42,0,0,1-3.67,1.82,4.44,4.44,0,0,1-2.09-.48A4.77,4.77,0,0,1,180.2,44a6.05,6.05,0,0,1-1-2,9.23,9.23,0,0,1-.34-2.59,9.35,9.35,0,0,1,.34-2.6,6.19,6.19,0,0,1,1-2,4.62,4.62,0,0,1,1.57-1.33,4.56,4.56,0,0,1,5.77,1.33,6.35,6.35,0,0,1,1,2A9.35,9.35,0,0,1,188.86,39.4Zm-3.45,0a8.22,8.22,0,0,0-.09-1.28,4.65,4.65,0,0,0-.28-1,1.86,1.86,0,0,0-.47-.7,1,1,0,0,0-.7-.25,1,1,0,0,0-.68.25,1.85,1.85,0,0,0-.47.7,4.55,4.55,0,0,0-.28,1,8.91,8.91,0,0,0,0,2.55,4.55,4.55,0,0,0,.28,1,1.84,1.84,0,0,0,.47.7,1,1,0,0,0,.68.25,1,1,0,0,0,.7-.25,1.85,1.85,0,0,0,.47-.7,4.65,4.65,0,0,0,.28-1A8.22,8.22,0,0,0,185.41,39.37Z"/><path class="cls-2" d="M196,43.9a2.37,2.37,0,0,1-.91,1.3,2.92,2.92,0,0,1-1.76.49,3.41,3.41,0,0,1-1.08-.18,2.77,2.77,0,0,1-1-.61,3.21,3.21,0,0,1-.76-1.13,4.43,4.43,0,0,1-.3-1.74,4.17,4.17,0,0,1,.45-2,3.66,3.66,0,0,1,1.17-1.29,4.71,4.71,0,0,1,1.64-.68,9,9,0,0,1,1.86-.2h.46v-.18a1.7,1.7,0,0,0-.4-1.26,1.47,1.47,0,0,0-1.07-.39,2.45,2.45,0,0,0-1.21.3,3.31,3.31,0,0,0-.93.76l-1.59-2.21a5,5,0,0,1,1.83-1.36,5.32,5.32,0,0,1,2.17-.48,5.2,5.2,0,0,1,2.07.37A3.33,3.33,0,0,1,198,34.46a4.55,4.55,0,0,1,.76,1.74,10.87,10.87,0,0,1,.23,2.36v6.85h-3V43.9Zm-.11-3.75h-.64a4.11,4.11,0,0,0-.76.07,1.63,1.63,0,0,0-.64.26,1.41,1.41,0,0,0-.44.51,1.71,1.71,0,0,0-.16.79,1.49,1.49,0,0,0,.31,1,1,1,0,0,0,.75.33A1.28,1.28,0,0,0,195,43a1.54,1.54,0,0,0,.49-.54,2.77,2.77,0,0,0,.28-.76,3.94,3.94,0,0,0,.09-.84Z"/><path class="cls-2" d="M207.38,45.42a4.58,4.58,0,0,1-3.77-.13A4.24,4.24,0,0,1,202.14,44a6.26,6.26,0,0,1-.91-2,10,10,0,0,1-.31-2.57,9.6,9.6,0,0,1,.32-2.56,6.49,6.49,0,0,1,.92-2,4.21,4.21,0,0,1,1.48-1.32,4.27,4.27,0,0,1,2-.47,3.87,3.87,0,0,1,2.9,1.19L207.13,37a1.61,1.61,0,0,0-.5-.51,1.25,1.25,0,0,0-.67-.18,1.3,1.3,0,0,0-1.11.8,4.67,4.67,0,0,0-.45,2.25,4.7,4.7,0,0,0,.44,2.24,1.33,1.33,0,0,0,1.2.79,1.18,1.18,0,0,0,.68-.2,1.52,1.52,0,0,0,.47-.52l1.45,2.78A3.35,3.35,0,0,1,207.38,45.42Z"/><path class="cls-2" d="M213.51,45.39h-3.61V28h3.61v7h.07a3.26,3.26,0,0,1,1-1.42,2.71,2.71,0,0,1,1.83-.62,2.94,2.94,0,0,1,1.67.42,2.83,2.83,0,0,1,1,1.14,5.22,5.22,0,0,1,.46,1.63,15.47,15.47,0,0,1,.12,1.91v7.35H216V38a3.74,3.74,0,0,0-.22-1.33.86.86,0,0,0-.88-.58,1.15,1.15,0,0,0-1,.61,3.06,3.06,0,0,0-.37,1.6Z"/><path class="cls-2" d="M226,30.11a2.12,2.12,0,0,1-.55,1.48,2,2,0,0,1-2.85,0,2.13,2.13,0,0,1-.55-1.48,2.19,2.19,0,0,1,.15-.82,2.24,2.24,0,0,1,.4-.67,1.91,1.91,0,0,1,2.85,0,2.24,2.24,0,0,1,.4.67A2.21,2.21,0,0,1,226,30.11Zm-3.79,15.28v-12h3.63v12Z"/><path class="cls-2" d="M232.17,33.38v1.7h0a3.35,3.35,0,0,1,1.06-1.5,2.84,2.84,0,0,1,1.88-.63,2.64,2.64,0,0,1,2.62,1.56,5.21,5.21,0,0,1,.46,1.63,15.28,15.28,0,0,1,.12,1.91v7.35h-3.61V38a3.74,3.74,0,0,0-.22-1.33.84.84,0,0,0-.86-.58,1.15,1.15,0,0,0-1,.61,3.06,3.06,0,0,0-.37,1.6v7.08h-3.61v-12Z"/><path class="cls-2" d="M250.33,33.38V44.54A7.52,7.52,0,0,1,249,49.27,4.88,4.88,0,0,1,245,50.91a6.94,6.94,0,0,1-2.46-.45,6.57,6.57,0,0,1-2-1.12l1.68-2.67a5.08,5.08,0,0,0,1.16.76,3.16,3.16,0,0,0,1.37.3,1.77,1.77,0,0,0,1.62-.78,3.58,3.58,0,0,0,.49-2V44h0a2.55,2.55,0,0,1-.92,1.07,2.6,2.6,0,0,1-1.54.47,3.18,3.18,0,0,1-1.73-.47,3.87,3.87,0,0,1-1.25-1.31,6.54,6.54,0,0,1-.76-2,11.24,11.24,0,0,1-.25-2.45,11.4,11.4,0,0,1,.26-2.54,6.56,6.56,0,0,1,.78-2,4.14,4.14,0,0,1,1.25-1.32,3,3,0,0,1,1.7-.48,2.4,2.4,0,0,1,1.62.5,3,3,0,0,1,.86,1.29h.07V33.38Zm-3.38,6a8.34,8.34,0,0,0-.09-1.28,4.25,4.25,0,0,0-.29-1,2,2,0,0,0-.48-.7,1,1,0,0,0-.68-.25,1,1,0,0,0-.7.25,1.85,1.85,0,0,0-.47.7,4.6,4.6,0,0,0-.28,1,8.82,8.82,0,0,0,0,2.54,4.6,4.6,0,0,0,.28,1,1.84,1.84,0,0,0,.47.7,1,1,0,0,0,.7.25,1,1,0,0,0,.68-.25,2,2,0,0,0,.48-.7,4.25,4.25,0,0,0,.29-1A8.41,8.41,0,0,0,246.95,39.37Z"/><path class="cls-2" d="M267.84,34.23a6.05,6.05,0,0,1-.41,2.34,4.65,4.65,0,0,1-1.1,1.63,4.47,4.47,0,0,1-1.56,1,5.24,5.24,0,0,1-1.77.31H261.4v5.93H257.8V29.12h5.06a6.36,6.36,0,0,1,1.76.25,4.51,4.51,0,0,1,1.61.84,4.23,4.23,0,0,1,1.17,1.57A5.89,5.89,0,0,1,267.84,34.23Zm-3.45.07a2.06,2.06,0,0,0-.53-1.58,1.84,1.84,0,0,0-1.29-.48H261.4v4.25h1.17a1.7,1.7,0,0,0,1.29-.56A2.28,2.28,0,0,0,264.39,34.29Z"/><path class="cls-2" d="M269.35,33.38h3.49v2h0q.64-2.39,2.41-2.39h.3l.28.06-.23,3.61-.36-.08a2.25,2.25,0,0,0-.42,0,1.37,1.37,0,0,0-.8.24,2.13,2.13,0,0,0-.59.63,3.14,3.14,0,0,0-.37.92,4.6,4.6,0,0,0-.13,1.08v6h-3.61Z"/><path class="cls-2" d="M286.38,39.4A9.23,9.23,0,0,1,286,42a6.35,6.35,0,0,1-1,2,4.42,4.42,0,0,1-3.67,1.82,4.44,4.44,0,0,1-2.09-.48A4.77,4.77,0,0,1,277.73,44a6.05,6.05,0,0,1-1-2,9.23,9.23,0,0,1-.34-2.59,9.35,9.35,0,0,1,.34-2.6,6.19,6.19,0,0,1,1-2,4.62,4.62,0,0,1,1.57-1.33,4.56,4.56,0,0,1,5.77,1.33,6.35,6.35,0,0,1,1,2A9.35,9.35,0,0,1,286.38,39.4Zm-3.45,0a8.22,8.22,0,0,0-.09-1.28,4.65,4.65,0,0,0-.28-1,1.86,1.86,0,0,0-.47-.7,1,1,0,0,0-.7-.25,1,1,0,0,0-.68.25,1.85,1.85,0,0,0-.47.7,4.55,4.55,0,0,0-.28,1,8.91,8.91,0,0,0,0,2.55,4.55,4.55,0,0,0,.28,1,1.84,1.84,0,0,0,.47.7,1,1,0,0,0,.68.25,1,1,0,0,0,.7-.25,1.85,1.85,0,0,0,.47-.7,4.65,4.65,0,0,0,.28-1A8.22,8.22,0,0,0,282.93,39.37Z"/><path class="cls-2" d="M294.22,45.42a4.58,4.58,0,0,1-3.77-.13A4.24,4.24,0,0,1,289,44a6.26,6.26,0,0,1-.91-2,10,10,0,0,1-.31-2.57,9.6,9.6,0,0,1,.32-2.56,6.49,6.49,0,0,1,.92-2,4.21,4.21,0,0,1,1.48-1.32,4.27,4.27,0,0,1,2-.47,3.87,3.87,0,0,1,2.9,1.19L294,37a1.61,1.61,0,0,0-.5-.51,1.25,1.25,0,0,0-.67-.18,1.3,1.3,0,0,0-1.11.8,4.67,4.67,0,0,0-.45,2.25,4.7,4.7,0,0,0,.44,2.24,1.33,1.33,0,0,0,1.2.79,1.18,1.18,0,0,0,.68-.2,1.52,1.52,0,0,0,.47-.52l1.45,2.78A3.35,3.35,0,0,1,294.22,45.42Z"/><path class="cls-2" d="M299.55,40.29a3.51,3.51,0,0,0,.13,1A3,3,0,0,0,300,42a1.68,1.68,0,0,0,.51.53,1.19,1.19,0,0,0,.67.2,1.26,1.26,0,0,0,1-.39,2.84,2.84,0,0,0,.57-.92l2.64,1.49A5.17,5.17,0,0,1,303.7,45a4.38,4.38,0,0,1-2.65.78,4.69,4.69,0,0,1-2-.41,4.44,4.44,0,0,1-1.58-1.23,5.9,5.9,0,0,1-1.06-2,9.12,9.12,0,0,1-.38-2.76,9.41,9.41,0,0,1,.36-2.68,6.09,6.09,0,0,1,1-2A4.66,4.66,0,0,1,299,33.4a4.27,4.27,0,0,1,2-.46,4.32,4.32,0,0,1,2.11.48,4.11,4.11,0,0,1,1.44,1.32,5.77,5.77,0,0,1,.82,2,12,12,0,0,1,.25,2.54v1Zm2.71-2.34a3.81,3.81,0,0,0-.3-1.61,1,1,0,0,0-1-.64,1,1,0,0,0-.63.22,1.89,1.89,0,0,0-.45.55,2.82,2.82,0,0,0-.28.74,3.36,3.36,0,0,0-.09.75Z"/><path class="cls-2" d="M313.29,36.75a3.69,3.69,0,0,0-.9-.67,2.24,2.24,0,0,0-1.06-.25,1.09,1.09,0,0,0-.75.28,1,1,0,0,0-.31.76.75.75,0,0,0,.33.68,5.37,5.37,0,0,0,1.25.49,6.21,6.21,0,0,1,1.06.44,3.52,3.52,0,0,1,1.62,1.76,3.6,3.6,0,0,1,.26,1.44,4.17,4.17,0,0,1-.39,1.88,3.75,3.75,0,0,1-1,1.26,4,4,0,0,1-1.34.71,4.88,4.88,0,0,1-1.44.23,6.28,6.28,0,0,1-2.31-.44,5.68,5.68,0,0,1-1.92-1.22l1.79-2.3a4.58,4.58,0,0,0,1,.83,2.43,2.43,0,0,0,1.23.32,1,1,0,0,0,.79-.3,1.08,1.08,0,0,0,.29-.78.9.9,0,0,0-.46-.84,7.72,7.72,0,0,0-1.38-.56,7.36,7.36,0,0,1-1-.4,3,3,0,0,1-.86-.66,3.34,3.34,0,0,1-.62-1A3.77,3.77,0,0,1,307,37a3.94,3.94,0,0,1,.37-1.76,3.79,3.79,0,0,1,1-1.24,4,4,0,0,1,1.31-.74,4.58,4.58,0,0,1,1.46-.24,5.81,5.81,0,0,1,2.11.39A5.89,5.89,0,0,1,315,34.48Z"/><path class="cls-2" d="M322.35,36.75a3.69,3.69,0,0,0-.9-.67,2.24,2.24,0,0,0-1.06-.25,1.09,1.09,0,0,0-.75.28,1,1,0,0,0-.31.76.75.75,0,0,0,.33.68,5.37,5.37,0,0,0,1.25.49,6.21,6.21,0,0,1,1.06.44,3.52,3.52,0,0,1,1.62,1.76,3.6,3.6,0,0,1,.26,1.44,4.17,4.17,0,0,1-.39,1.88,3.75,3.75,0,0,1-1,1.26,4,4,0,0,1-1.34.71,4.88,4.88,0,0,1-1.44.23,6.28,6.28,0,0,1-2.31-.44,5.68,5.68,0,0,1-1.92-1.22l1.79-2.3a4.58,4.58,0,0,0,1,.83,2.43,2.43,0,0,0,1.23.32,1,1,0,0,0,.79-.3,1.08,1.08,0,0,0,.29-.78.9.9,0,0,0-.46-.84,7.72,7.72,0,0,0-1.38-.56,7.36,7.36,0,0,1-1-.4,3,3,0,0,1-.86-.66,3.34,3.34,0,0,1-.62-1A3.77,3.77,0,0,1,316.1,37a3.94,3.94,0,0,1,.37-1.76,3.79,3.79,0,0,1,1-1.24,4,4,0,0,1,1.31-.74,4.58,4.58,0,0,1,1.46-.24,5.81,5.81,0,0,1,2.11.39,5.89,5.89,0,0,1,1.79,1.08Z"/></g></g></svg>