<svg xmlns="http://www.w3.org/2000/svg" viewBox="0 0 378 70.6"><defs><style>.cls-1{fill:#fff;}</style></defs><title>RJLogo</title><g id="Layer_2" data-name="Layer 2"><g id="Layer_1-2" data-name="Layer 1"><path class="cls-1" d="M72.7,39.1v-.4l.6-.1c.4-.1.7-.2,1-.3a2.07,2.07,0,0,0,1-.6,1.28,1.28,0,0,0,.4-1,5,5,0,0,0-.2-1.2c-.2-.6-.4-1.3-.7-2.2s-.6-1.8-1-2.8-.8-2.1-1.2-3.3H61.1c-.4,1.1-.9,2.2-1.2,3.2l-1.2,3a9.54,9.54,0,0,0-.9,3.3,1.4,1.4,0,0,0,.3.9,2.36,2.36,0,0,0,.9.6,2.66,2.66,0,0,0,1.2.3l1.2.2v.4H52v-.5a6,6,0,0,0,1.9-.6,7,7,0,0,0,.9-.6,7.1,7.1,0,0,0,1-1.4c.6-1.1,1.2-2.2,1.7-3.3.6-1.4,1.3-2.9,2.1-4.7l2.3-5.4c.8-1.8,1.6-3.7,2.4-5.6s1.5-3.6,2.2-5.2l-.4-1a6.38,6.38,0,0,0,1.4-.8,5.24,5.24,0,0,0,1.1-1,7,7,0,0,0,.8-1,9.22,9.22,0,0,0,.5-.8h.3l2.6,6.9c.8,2.2,1.6,4.2,2.3,6.2l2.2,5.8c.7,1.9,1.4,3.7,2.1,5.5a12.29,12.29,0,0,0,.9,2.2l.9,2a2.09,2.09,0,0,0,.4.6,6.47,6.47,0,0,0,.8.9,8.34,8.34,0,0,0,1.2.8,4.71,4.71,0,0,0,1.7.4V39H72.7ZM67,12.7c-.2.4-.4,1-.8,1.8s-.7,1.8-1.2,3-1,2.5-1.6,3.9l-1.9,4.8H72.3l-1.5-3.9c-.5-1.3-1-2.6-1.5-3.7l-1.2-3.3C67.6,14.2,67.3,13.4,67,12.7Z"/><path class="cls-1" d="M109.1,31.7a8.47,8.47,0,0,1-1.5,3,11,11,0,0,1-2.2,2.1,11.48,11.48,0,0,1-2.7,1.4,15.29,15.29,0,0,1-2.9.7c-1,.1-2,.2-2.9.2H85.3v-.3a8.33,8.33,0,0,0,1.5-.4,4.13,4.13,0,0,0,1.1-.7c.1-.2.2-.3.2-.5s.1-.5.1-.8.1-.6.1-1V19.8c0-.3-.1-.6-.1-.9a.86.86,0,0,0-.3-.6,2.84,2.84,0,0,0-1.1-.8,4,4,0,0,0-1.5-.3v-.3H97a14.77,14.77,0,0,1,2.1.1l2.1.3a11.76,11.76,0,0,1,2,.7,20.13,20.13,0,0,1,2.5,1.4,10,10,0,0,1,2,2.1,9.2,9.2,0,0,1,1.4,2.8,11.19,11.19,0,0,1,.5,3.6A13.25,13.25,0,0,1,109.1,31.7Zm-3.9-7.6a11.39,11.39,0,0,0-1.6-3.1,9.12,9.12,0,0,0-2.4-2.4,6.56,6.56,0,0,0-3-1.2c-.4-.1-.9-.1-1.4-.2a10.87,10.87,0,0,0-1.8-.1H93.3l-.8.1a1.27,1.27,0,0,0-.6.1,41.89,41.89,0,0,0-.2,4.2V35a3.4,3.4,0,0,0,.1,1,2.92,2.92,0,0,0,.2.9l.3.6a3,3,0,0,0,1.6.8,11,11,0,0,0,1.8.2,9.15,9.15,0,0,0,1.6-.1,4,4,0,0,0,1.5-.3,8.17,8.17,0,0,0,5-3.7,13.84,13.84,0,0,0,1.7-6.9A6.7,6.7,0,0,0,105.2,24.1Z"/><path class="cls-1" d="M131,17.3a1.79,1.79,0,0,0-.7.5l-.3.3c-.1.2-.3.4-.4.6a9.25,9.25,0,0,1-.5,1c-.2.4-.4.9-.7,1.5-.4,1-.9,2.1-1.4,3.3l-1.5,3.8L124,32.2l-1.4,3.7L121.1,39h-.4c-.7-1.7-1.3-3.3-1.9-4.8s-1.2-3-1.7-4.4l-1.6-4.1L114,21.8a10.37,10.37,0,0,0-.4-1l-.4-.8-.3-.7-.4-.7c-.1-.2-.2-.3-.3-.5a2.65,2.65,0,0,0-.5-.6,2.18,2.18,0,0,0-.8-.5,2.54,2.54,0,0,0-1.2-.2v-.3H119v.3l-.6.1a1.88,1.88,0,0,0-.8.2,1.79,1.79,0,0,0-.7.5,1.14,1.14,0,0,0-.3.8c.1.5.2.9.3,1.3.2.7.5,1.5.9,2.5s.8,2,1.2,3.2l1.4,3.4c.4,1.1.9,2.2,1.2,3.2s.7,1.8.9,2.4c.1-.2.3-.7.6-1.4l1.1-2.7c.4-1.1.9-2.3,1.4-3.7l1.6-4.3a19.75,19.75,0,0,0,.8-2.6,5,5,0,0,0,.2-1.2,1.14,1.14,0,0,0-.3-.8,2.18,2.18,0,0,0-.8-.5c-.3-.1-.6-.2-1-.3a2.77,2.77,0,0,0-.9-.1v-.3h7.2v.4A2.89,2.89,0,0,0,131,17.3Z"/><path class="cls-1" d="M132.7,39.1v-.3a5.73,5.73,0,0,0,1.4-.4,4.44,4.44,0,0,0,1.1-.8c.1-.2.2-.3.2-.5a2.2,2.2,0,0,0,.1-.8V19.8c0-.3-.1-.6-.1-.9a.86.86,0,0,0-.3-.6,4.44,4.44,0,0,0-1.1-.8,3.93,3.93,0,0,0-1.4-.3v-.3h9.3V17l-1.4.3a2.34,2.34,0,0,0-1.2,1,3.08,3.08,0,0,0-.3,1.3V36.2a2.38,2.38,0,0,0,.3,1.2,2,2,0,0,0,1.2.8,4,4,0,0,0,1.5.3v.3Z"/><path class="cls-1" d="M160.4,35.4a5.51,5.51,0,0,1-1.7,2,6.2,6.2,0,0,1-2.6,1.2,12.42,12.42,0,0,1-3.3.4,22.75,22.75,0,0,1-2.6-.2,11.63,11.63,0,0,1-1.8-.4,5.36,5.36,0,0,1-1.1-.5.76.76,0,0,0-.4-.2,1.2,1.2,0,0,0-.4.4c-.2.2-.4.5-.6.7h-.3l-.1-6.2h.3a7.74,7.74,0,0,0,.7,1.6l.9,1.5a4.26,4.26,0,0,0,1.1,1.2,4.44,4.44,0,0,0,1.1.8c.5.2.9.4,1.4.6a5.8,5.8,0,0,0,5.4-1,4.07,4.07,0,0,0,1.4-3.4,4,4,0,0,0-.3-1.5,2.84,2.84,0,0,0-.8-1.1,4.44,4.44,0,0,0-1.1-.8c-.5-.2-.9-.4-1.4-.6l-1.2-.5-1-.4-1-.3-1.2-.4a5.07,5.07,0,0,1-1.6-.9,6.79,6.79,0,0,1-1.2-1.2,5.07,5.07,0,0,1-.9-1.6,5.82,5.82,0,0,1-.3-1.9,7.17,7.17,0,0,1,.6-2.9,5.51,5.51,0,0,1,1.7-2,5.45,5.45,0,0,1,2.4-1.2,9,9,0,0,1,2.8-.4,19.42,19.42,0,0,1,2.4.2,7.49,7.49,0,0,1,1.6.5,4.67,4.67,0,0,1,1,.5.52.52,0,0,0,.4.2c.1,0,.2-.1.4-.4a3,3,0,0,0,.5-.7h.3v5.8h-.3a12.44,12.44,0,0,0-1-2,6.23,6.23,0,0,0-1.4-1.8,5.67,5.67,0,0,0-1.8-1.2,5.45,5.45,0,0,0-2.2-.5,5.66,5.66,0,0,0-1.8.3,7.14,7.14,0,0,0-1.5.8,4.51,4.51,0,0,0-1,1.4,5.85,5.85,0,0,0-.4,1.9,3.54,3.54,0,0,0,1,2.6,7.6,7.6,0,0,0,2.6,1.6l1.2.4,1.1.4,1.1.4,1.1.4a6.87,6.87,0,0,1,3.3,2.3,6.65,6.65,0,0,1,.6,6.4Z"/><path class="cls-1" d="M185.8,32.2a11.52,11.52,0,0,1-2.5,3.7,11.23,11.23,0,0,1-3.7,2.4,12.69,12.69,0,0,1-9,0,10.79,10.79,0,0,1-6.2-5.9,12.16,12.16,0,0,1-.9-4.6,11.17,11.17,0,0,1,1-4.8,11.6,11.6,0,0,1,2.5-3.6,11.39,11.39,0,0,1,3.8-2.3,14.35,14.35,0,0,1,4.6-.8,12.67,12.67,0,0,1,4.7.9,11.11,11.11,0,0,1,3.6,2.5,10.29,10.29,0,0,1,2.2,3.6,12.6,12.6,0,0,1,.8,4.3A11.79,11.79,0,0,1,185.8,32.2Zm-3.4-8.4a12,12,0,0,0-1.5-3.5,7.47,7.47,0,0,0-2.5-2.5,5.89,5.89,0,0,0-3.4-1,6.2,6.2,0,0,0-3.5,1,7.47,7.47,0,0,0-2.5,2.5,11.67,11.67,0,0,0-1.4,3.5,17.52,17.52,0,0,0-.4,4,19.15,19.15,0,0,0,.5,4.1,10.39,10.39,0,0,0,1.5,3.4,7.18,7.18,0,0,0,2.5,2.4,6.65,6.65,0,0,0,3.4.9,5.89,5.89,0,0,0,3.4-1,7.49,7.49,0,0,0,2.4-2.6,11.67,11.67,0,0,0,1.4-3.5,17.37,17.37,0,0,0,.5-3.9A16.37,16.37,0,0,0,182.4,23.8Z"/><path class="cls-1" d="M206,39l-.4-.4-.3-.3a2.18,2.18,0,0,0-.4-.5l-.7-1.1c-.4-.6-.7-1.1-1-1.6s-.6-.9-.9-1.4a12.13,12.13,0,0,0-1-1.4c-.4-.5-.8-1-1.2-1.6a8.64,8.64,0,0,0-1.4-1.3,3.15,3.15,0,0,0-1.5-.8,2.77,2.77,0,0,0-.9-.1h-.7v7.6a2.38,2.38,0,0,0,.3,1.2,3.92,3.92,0,0,0,1,.8,4.55,4.55,0,0,0,2,.5V39h-10v-.3a8.33,8.33,0,0,0,1.5-.4,2.59,2.59,0,0,0,1.1-.7,1.42,1.42,0,0,0,.2-.6,2.49,2.49,0,0,0,.1-.8,3.75,3.75,0,0,1,.1-1V19.6c0-.3-.1-.6-.1-.9a.86.86,0,0,0-.3-.6,3.59,3.59,0,0,0-1-.7l-1.4-.3v-.3h8.5c1.4,0,2.6,0,3.7.1a11.14,11.14,0,0,1,3,.8,6,6,0,0,1,2.3,1.9,4.83,4.83,0,0,1,.8,3.1,5.22,5.22,0,0,1-.4,2.1,9.06,9.06,0,0,1-1.1,1.6,6.1,6.1,0,0,1-1.6,1.2,11.92,11.92,0,0,1-2,.8v.1a3.92,3.92,0,0,1,1,.8c.3.4.7.8,1,1.2l1.8,2.5,1.7,2.5a12.56,12.56,0,0,0,2.2,2.4,6.91,6.91,0,0,0,2.5,1v.3Zm-3-19.4a6,6,0,0,0-2.3-1.9,7.49,7.49,0,0,0-1.6-.5,4.88,4.88,0,0,0-1.7-.1h-1.7V28a19.27,19.27,0,0,0,2.4-.1,15.52,15.52,0,0,0,2.1-.4,8.86,8.86,0,0,0,1.7-.8,4.56,4.56,0,0,0,1.2-1.2,6.11,6.11,0,0,0,.7-1.4,8.75,8.75,0,0,0,.2-1.6A4.84,4.84,0,0,0,203,19.6Z"/><path class="cls-1" d="M231,17.5a8.34,8.34,0,0,0-1.2.8,10.59,10.59,0,0,0-1,1.2c-.3.5-.7,1-1,1.6l-1,1.6-1.4,2L224,26.8l-1,1.5v8a2.38,2.38,0,0,0,.3,1.2,2.15,2.15,0,0,0,1.2.9l1.4.3V39h-9.6v-.3a4,4,0,0,0,1.5-.3,2.94,2.94,0,0,0,1.2-1c.1-.2.2-.3.2-.5a2.49,2.49,0,0,0,.1-.8,3.75,3.75,0,0,1,.1-1v-6l-.4-.6-.8-1.2-1-1.6-1.1-1.8-1-1.6-.8-1.2-1.1-1.6a5.8,5.8,0,0,0-1-1.2,3.92,3.92,0,0,0-1-.8,2,2,0,0,0-1.1-.3v-.3h9.4V17l-.9.1a2.92,2.92,0,0,0-.9.2c-.2.1-.5.2-.6.4s-.3.4-.2.6a4.23,4.23,0,0,0,.4,1.2c.3.5.6,1.1.9,1.7l.8,1.4c.3.5.7,1.1,1,1.7l1.1,1.8,1.1,1.8c.3-.4.6-.9,1-1.5l1.2-1.9,1.1-1.8a11.47,11.47,0,0,0,.8-1.4l.3-.6a5.74,5.74,0,0,1,.4-.7c.1-.2.2-.5.3-.7a1.7,1.7,0,0,0,.1-.7,1.88,1.88,0,0,0-.2-.8,2.09,2.09,0,0,0-.6-.4,2.92,2.92,0,0,0-.9-.2l-.9-.1v-.3H232v.3Z"/><path class="cls-1" d="M273.6,24.7a2.15,2.15,0,0,0-1.2.9,2.7,2.7,0,0,0-.3,1.5v8.4l-1.5.9a26.57,26.57,0,0,1-6.7,2.3,19.92,19.92,0,0,1-4.2.4,24.34,24.34,0,0,1-7.5-1.1,15,15,0,0,1-5.5-3.1,13.1,13.1,0,0,1-3.4-5,16.94,16.94,0,0,1-1.2-6.7,21.05,21.05,0,0,1,.2-2.5,16.66,16.66,0,0,1,.8-3,18.67,18.67,0,0,1,1.5-3.2,14.25,14.25,0,0,1,2.5-3,14.88,14.88,0,0,1,5.2-3.3A18.86,18.86,0,0,1,259.7,7a17.55,17.55,0,0,1,4.6.5,21.85,21.85,0,0,1,3.4,1,20,20,0,0,1,2.1,1c.3.2.5.3.8.5l.5-.5,1-1.2h.3v9.5h-.5a14.91,14.91,0,0,0-1.4-3.7,14.22,14.22,0,0,0-2.1-2.9,9.9,9.9,0,0,0-3.6-2.4,13.33,13.33,0,0,0-4.9-.9,11.67,11.67,0,0,0-5.2,1.2,12.78,12.78,0,0,0-3.9,3.4,15.65,15.65,0,0,0-2.5,5,19.64,19.64,0,0,0-.9,5.9,25.7,25.7,0,0,0,.8,6.2,13.55,13.55,0,0,0,2.4,4.8,10.41,10.41,0,0,0,3.8,3.1,11.58,11.58,0,0,0,5.2,1.1,10.36,10.36,0,0,0,3.9-.7,5.84,5.84,0,0,0,2.8-2.3,4.55,4.55,0,0,0,.5-2c.1-1,.2-2,.2-3a24.37,24.37,0,0,0-.1-2.7,3.67,3.67,0,0,0-.9-2,5.18,5.18,0,0,0-3.5-1.4v-.4h12.8v.4A3.08,3.08,0,0,0,273.6,24.7Z"/><path class="cls-1" d="M295.1,38.9l-.4-.4-.3-.3a2.18,2.18,0,0,0-.4-.5l-.7-1.1c-.4-.6-.7-1.1-1-1.6s-.6-.9-.9-1.4a12.13,12.13,0,0,0-1-1.4c-.4-.5-.8-1-1.2-1.6a8.64,8.64,0,0,0-1.4-1.3,3.15,3.15,0,0,0-1.5-.8,2.77,2.77,0,0,0-.9-.1h-.7V36a2.38,2.38,0,0,0,.3,1.2,3.92,3.92,0,0,0,1,.8,4.55,4.55,0,0,0,2,.5v.3H278v-.3a8.33,8.33,0,0,0,1.5-.4,2.59,2.59,0,0,0,1.1-.7,1.42,1.42,0,0,0,.2-.6,2.49,2.49,0,0,0,.1-.8,3.75,3.75,0,0,1,.1-1V19.4c0-.3-.1-.6-.1-.9a.86.86,0,0,0-.3-.6,3.59,3.59,0,0,0-1-.7l-1.4-.3v-.3h8.5c1.4,0,2.6,0,3.7.1a11.14,11.14,0,0,1,3,.8,6,6,0,0,1,2.3,1.9,4.83,4.83,0,0,1,.8,3.1,5.22,5.22,0,0,1-.4,2.1,9.06,9.06,0,0,1-1.1,1.6,6.1,6.1,0,0,1-1.6,1.2,11.92,11.92,0,0,1-2,.8v.1a3.92,3.92,0,0,1,1,.8c.3.4.7.8,1,1.2l1.8,2.5,1.7,2.5a12.56,12.56,0,0,0,2.2,2.4,6.91,6.91,0,0,0,2.5,1V39ZM292,19.5a6,6,0,0,0-2.3-1.9,7.49,7.49,0,0,0-1.6-.5,4.88,4.88,0,0,0-1.7-.1h-1.7V27.9a19.27,19.27,0,0,0,2.4-.1,15.52,15.52,0,0,0,2.1-.4,8.86,8.86,0,0,0,1.7-.8,4.56,4.56,0,0,0,1.2-1.2,6.11,6.11,0,0,0,.7-1.4,8.75,8.75,0,0,0,.2-1.6,4.62,4.62,0,0,0-1-2.9Z"/><path class="cls-1" d="M323.7,32.1a11.52,11.52,0,0,1-2.5,3.7,11.23,11.23,0,0,1-3.7,2.4,12.69,12.69,0,0,1-9,0,10.07,10.07,0,0,1-3.7-2.3,11.11,11.11,0,0,1-2.5-3.6,12.16,12.16,0,0,1-.9-4.6,11.17,11.17,0,0,1,1-4.8,10.4,10.4,0,0,1,2.6-3.6,11.39,11.39,0,0,1,3.8-2.3,14.35,14.35,0,0,1,4.6-.8,12.67,12.67,0,0,1,4.7.9,11.11,11.11,0,0,1,3.6,2.5,10.29,10.29,0,0,1,2.2,3.6,12.6,12.6,0,0,1,.8,4.3A14,14,0,0,1,323.7,32.1Zm-3.5-8.4a12,12,0,0,0-1.5-3.5,7.47,7.47,0,0,0-2.5-2.5,5.89,5.89,0,0,0-3.4-1,6.2,6.2,0,0,0-3.5,1,7.47,7.47,0,0,0-2.5,2.5,11.67,11.67,0,0,0-1.4,3.5,17.52,17.52,0,0,0-.4,4,19.15,19.15,0,0,0,.5,4.1,10.39,10.39,0,0,0,1.5,3.4,7.18,7.18,0,0,0,2.5,2.4,6.65,6.65,0,0,0,3.4.9,5.89,5.89,0,0,0,3.4-1,7.49,7.49,0,0,0,2.4-2.6,11.67,11.67,0,0,0,1.4-3.5,17.37,17.37,0,0,0,.5-3.9A12,12,0,0,0,320.2,23.7Z"/><path class="cls-1" d="M349.3,17.4a2.56,2.56,0,0,0-1,1.3c-.1.2-.1.5-.2.7s-.1.7-.1,1.1-.1.9-.1,1.4v1.4c0,.9,0,1.9-.1,3s-.1,2.3-.1,3.7l-.1,1.5a6.28,6.28,0,0,1-.3,1.9,7,7,0,0,1-.8,2,6.55,6.55,0,0,1-1.5,1.8,5.82,5.82,0,0,1-2.5,1.2,16.27,16.27,0,0,1-7.6,0,11.51,11.51,0,0,1-2.5-1.2,8,8,0,0,1-1.5-1.7,10.84,10.84,0,0,1-.8-1.9,4.67,4.67,0,0,1-.3-1.7V19.2c0-.3-.1-.6-.1-.9a.86.86,0,0,0-.3-.6,4.44,4.44,0,0,0-1.1-.8,3.53,3.53,0,0,0-1.4-.3v-.3h9.3v.3a2.92,2.92,0,0,0-.9.2,3.55,3.55,0,0,0-.9.4,2.34,2.34,0,0,0-.7.7,2.66,2.66,0,0,0-.3,1.2V30.7a10.47,10.47,0,0,0,.5,3,7.55,7.55,0,0,0,1.3,2.3,4.63,4.63,0,0,0,1.8,1.3,6.63,6.63,0,0,0,2.8.5,10.32,10.32,0,0,0,3-.4,5.29,5.29,0,0,0,2.1-1.1,5.23,5.23,0,0,0,1.2-1.7,6.79,6.79,0,0,0,.7-2,7.8,7.8,0,0,0,.3-2.2c0-.7.1-1.5.1-2.2V20.5a3.75,3.75,0,0,0-.1-1.1,1.88,1.88,0,0,0-.2-.8,2.59,2.59,0,0,0-1.1-1.4,6.31,6.31,0,0,0-2.3-.8v-.3h7.7v.3C350.5,16.9,349.9,17,349.3,17.4Z"/><path class="cls-1" d="M370.8,25a5.85,5.85,0,0,1-1,1.7,5.26,5.26,0,0,1-1.4,1.2,11.94,11.94,0,0,1-1.6.8,10.55,10.55,0,0,1-1.9.5,13.55,13.55,0,0,1-2,.2c-.7,0-1.3.1-2,.1h-1.7v6.6a2.38,2.38,0,0,0,.3,1.2,3.92,3.92,0,0,0,1,.8,4.55,4.55,0,0,0,2,.5V39h-10v-.3a8.33,8.33,0,0,0,1.5-.4,2.59,2.59,0,0,0,1.1-.7,1.42,1.42,0,0,0,.2-.6,2.49,2.49,0,0,0,.1-.8,3.75,3.75,0,0,1,.1-1,3.33,3.33,0,0,0,0-1V19.5c0-.3-.1-.6-.1-.9a.86.86,0,0,0-.3-.6,2.92,2.92,0,0,0-1.2-.7c-.5-.1-1-.2-1.6-.3v-.3h8.8c1.2,0,2.4.1,3.6.2a8.19,8.19,0,0,1,3,1A6.59,6.59,0,0,1,370,20a6.2,6.2,0,0,1,.9,3.2A2.82,2.82,0,0,1,370.8,25Zm-3.9-5.4A5.86,5.86,0,0,0,363,17a10.28,10.28,0,0,0-1.7-.1h-1l-.6.1-.1.3c0,.1-.1.2-.1.4a1.49,1.49,0,0,1-.1.6V29a19.27,19.27,0,0,0,2.4-.1,7.79,7.79,0,0,0,2.1-.4,5.7,5.7,0,0,0,3-2.3,6.3,6.3,0,0,0,1.1-3.5,5.1,5.1,0,0,0-1.1-3.1Z"/><polygon class="cls-1" points="0.8 0.3 0.8 0.6 376.4 0.6 376.4 44.9 1.6 44.9 1.6 0.3 0.8 0.3 0.8 0.6 0.8 0.3 0 0.3 0 45.5 378 45.5 378 0 0 0 0 0.3 0.8 0.3"/><path class="cls-1" d="M9.7,55.9a1.76,1.76,0,0,0-.9-.8,2.54,2.54,0,0,0-1.2-.2,2.2,2.2,0,0,0-.8.1,4.88,4.88,0,0,0-.7.3,2.65,2.65,0,0,0-.6.5c-.2.2-.2.5-.3.8a.91.91,0,0,0,.3,1,5.42,5.42,0,0,0,1.1.6c.5.2.9.3,1.4.5a6.11,6.11,0,0,1,1.4.7,3.46,3.46,0,0,1,1,1.1,3.57,3.57,0,0,1,.2,1.9,4.78,4.78,0,0,1-.6,1.8,3.74,3.74,0,0,1-1.2,1.3,8,8,0,0,1-1.6.8,5.82,5.82,0,0,1-1.9.3A5.87,5.87,0,0,1,3,66.2a3.33,3.33,0,0,1-1.7-1.4l2-1.7a2.41,2.41,0,0,0,1,1,3.26,3.26,0,0,0,1.4.4,2.2,2.2,0,0,0,.8-.1,3,3,0,0,1,.7-.5,1.7,1.7,0,0,0,.6-.6,1.14,1.14,0,0,0,.3-.8,1.07,1.07,0,0,0-.3-1.1,3,3,0,0,0-1.1-.7c-.4-.2-.9-.3-1.4-.5a6.11,6.11,0,0,1-1.4-.7,3.57,3.57,0,0,1-1-1.1,3.46,3.46,0,0,1-.2-1.8A5.93,5.93,0,0,1,3.4,55a3.74,3.74,0,0,1,1.3-1.2,4.59,4.59,0,0,1,1.6-.7,5.54,5.54,0,0,1,1.8-.2,6.93,6.93,0,0,1,2,.3,5.37,5.37,0,0,1,1.6,1Z"/><path class="cls-1" d="M12.2,59.2l.3-1.9h1.8l.3-2.6h2.2l-.3,2.6h2.4l-.3,1.9H16.2L15.7,63a1.55,1.55,0,0,0,.1,1c.1.3.4.4.9.4a2,2,0,0,0,.7-.1,1.42,1.42,0,0,0,.6-.2L17.7,66a2,2,0,0,1-.9.2c-.3,0-.6.1-.9.1a4.64,4.64,0,0,1-1.4-.2,1.56,1.56,0,0,1-.8-.6,1.69,1.69,0,0,1-.3-1,7.6,7.6,0,0,1,.1-1.4l.6-4H12.2Z"/><path class="cls-1" d="M20.6,57.3h2.2l-.2,1.4h0a3.45,3.45,0,0,1,1.2-1.2,2.93,2.93,0,0,1,1.6-.4h.4c.1,0,.3.1.4.1L26,59.3c-.2,0-.3-.1-.5-.1H25a2.77,2.77,0,0,0-1.3.3,2.7,2.7,0,0,0-.8.7,2.51,2.51,0,0,0-.4.7,1.27,1.27,0,0,0-.1.6l-.7,4.7H19.5Z"/><path class="cls-1" d="M32.2,64.9h0A3.6,3.6,0,0,1,30.8,66a4.67,4.67,0,0,1-1.7.3,5,5,0,0,1-1.2-.2,3.13,3.13,0,0,1-1-.5,1.56,1.56,0,0,1-.6-.8,2.25,2.25,0,0,1-.1-1.2,3,3,0,0,1,.8-1.7,3.77,3.77,0,0,1,1.5-.9,10.62,10.62,0,0,1,1.9-.4c.7,0,1.3-.1,1.8-.1h.6v-.2c.1-.6,0-1-.4-1.2a2,2,0,0,0-1.4-.4,5.07,5.07,0,0,0-1.3.2,2.59,2.59,0,0,0-1.1.7l-1-1.2a5.24,5.24,0,0,1,1.9-1.1,7.61,7.61,0,0,1,2.1-.3,7.77,7.77,0,0,1,1.6.2,3.13,3.13,0,0,1,1,.5,1.37,1.37,0,0,1,.5.8,2.92,2.92,0,0,1,.2.9v.9c0,.3-.1.5-.1.7L34,66.1H32Zm.3-2.7H31a3.59,3.59,0,0,0-1.1.2,2.47,2.47,0,0,0-.9.4,1.16,1.16,0,0,0-.5.7.75.75,0,0,0,.1.5c.1.1.2.3.3.4a.76.76,0,0,0,.5.2c.2,0,.3.1.5.1a3.2,3.2,0,0,0,1.8-.5,2.75,2.75,0,0,0,.8-1.5Z"/><path class="cls-1" d="M36.3,59.2l.3-1.9h1.8l.3-2.6H41l-.3,2.6H43l-.3,1.9H40.3L39.8,63a1.55,1.55,0,0,0,.1,1c.1.3.4.4.9.4a2,2,0,0,0,.7-.1,1.42,1.42,0,0,0,.6-.2L41.8,66a2,2,0,0,1-.9.2c-.3,0-.6.1-.9.1a4.64,4.64,0,0,1-1.4-.2,1.56,1.56,0,0,1-.8-.6,1.69,1.69,0,0,1-.3-1,7.6,7.6,0,0,1,.1-1.4l.6-4H36.3Z"/><path class="cls-1" d="M45.8,62.5a2.77,2.77,0,0,0,.1.9A1.53,1.53,0,0,0,47,64.5a2.2,2.2,0,0,0,.8.1,2.9,2.9,0,0,0,1.4-.3,3.13,3.13,0,0,0,1.1-.9l1.4,1.2A6.22,6.22,0,0,1,49.8,66a5.22,5.22,0,0,1-2.1.4,4.84,4.84,0,0,1-1.8-.3,3.39,3.39,0,0,1-1.4-.9,3.61,3.61,0,0,1-.8-1.5,4,4,0,0,1-.1-1.9,6,6,0,0,1,.6-1.9,4.43,4.43,0,0,1,1.2-1.5,4.61,4.61,0,0,1,1.7-.9,6.28,6.28,0,0,1,1.9-.3,3.36,3.36,0,0,1,2.8,1.2,4.48,4.48,0,0,1,.6,3.6l-.1.6H45.8Zm4.8-1.7a1.53,1.53,0,0,0-.4-1.5,2,2,0,0,0-1.6-.6,2.52,2.52,0,0,0-1.7.6,3.77,3.77,0,0,0-.9,1.5Z"/><path class="cls-1" d="M64.4,57.3l-1.1,8a7.94,7.94,0,0,1-.6,2.2,6.45,6.45,0,0,1-1.1,1.6,4.78,4.78,0,0,1-1.7,1,7.88,7.88,0,0,1-2.3.4,8.52,8.52,0,0,1-2.3-.3,5.24,5.24,0,0,1-1.9-1.1L55,67.3a4.7,4.7,0,0,0,1.2.9,3.81,3.81,0,0,0,1.6.3,5.9,5.9,0,0,0,1.4-.2,1.46,1.46,0,0,0,.9-.6,4.7,4.7,0,0,0,.6-.9,5.27,5.27,0,0,0,.3-1.2l.1-.6h0a5,5,0,0,1-1.4,1,5.08,5.08,0,0,1-1.7.3,3.66,3.66,0,0,1-1.8-.4,2.94,2.94,0,0,1-1.2-1,3.69,3.69,0,0,1-.7-1.4,5.31,5.31,0,0,1-.1-1.8,5.46,5.46,0,0,1,.6-1.8,4.18,4.18,0,0,1,1.1-1.5,5.6,5.6,0,0,1,1.5-1,5.85,5.85,0,0,1,1.9-.4,3.29,3.29,0,0,1,1.7.4,1.89,1.89,0,0,1,1.1,1.2h0l.2-1.3Zm-5,1.8a3.59,3.59,0,0,0-1.1.2,4.05,4.05,0,0,0-.9.5,2.7,2.7,0,0,0-.7.8,2,2,0,0,0-.3,1.1,3.08,3.08,0,0,0,.1,1,2,2,0,0,0,.4.8,4.35,4.35,0,0,0,.7.6,3,3,0,0,0,1,.2,3.59,3.59,0,0,0,1.1-.2,4.05,4.05,0,0,0,.9-.5,1.56,1.56,0,0,0,.6-.8,1.93,1.93,0,0,0,.3-1,2.84,2.84,0,0,0-.4-1.9A1.69,1.69,0,0,0,59.4,59.1Z"/><path class="cls-1" d="M66.9,57.3h2.2l-1.2,8.8H65.7Zm.1-3a1.05,1.05,0,0,1,.5-.9,1.5,1.5,0,0,1,1.1-.4,1.28,1.28,0,0,1,1,.4,1.61,1.61,0,0,1,.3.9,1.15,1.15,0,0,1-.6.9,1.5,1.5,0,0,1-1.1.4,1,1,0,0,1-.9-.4A1.22,1.22,0,0,1,67,54.3Z"/><path class="cls-1" d="M77.3,59.9a1.87,1.87,0,0,0-.7-.6,1.2,1.2,0,0,0-.8-.2,3.59,3.59,0,0,0-1.1.2,2.36,2.36,0,0,0-.9.6,2.1,2.1,0,0,0-.6.8,1.69,1.69,0,0,0-.3,1v1a2,2,0,0,0,.4.8,4.35,4.35,0,0,0,.7.6,3.59,3.59,0,0,0,1.1.2,3.55,3.55,0,0,0,1-.2,1.56,1.56,0,0,0,.8-.6l1.2,1.6c-.3.2-.5.4-.8.6a3.55,3.55,0,0,1-.9.4,2.92,2.92,0,0,1-.9.2c-.3,0-.5.1-.7.1a4.84,4.84,0,0,1-1.8-.3,3.39,3.39,0,0,1-1.4-.9,3.61,3.61,0,0,1-.8-1.5,4,4,0,0,1-.1-1.9,6,6,0,0,1,.6-1.9,4.43,4.43,0,0,1,1.2-1.5,4.61,4.61,0,0,1,1.7-.9,6.8,6.8,0,0,1,1.9-.3,5.08,5.08,0,0,1,1.7.3,3.25,3.25,0,0,1,1.3,1Z"/><path class="cls-1" d="M95.2,56.2a2.67,2.67,0,0,0-1.2-1,3.08,3.08,0,0,0-1.3-.3,4.06,4.06,0,0,0-1.9.4,8.64,8.64,0,0,0-1.6,1,4.18,4.18,0,0,0-1.1,1.5,6.36,6.36,0,0,0-.6,1.8,6,6,0,0,0,0,1.9,3.48,3.48,0,0,0,.7,1.5,3.25,3.25,0,0,0,1.3,1,4.78,4.78,0,0,0,1.8.4,3.17,3.17,0,0,0,1.6-.4,13.28,13.28,0,0,0,1.6-1.2l1.7,1.4A6.9,6.9,0,0,1,93.8,66a6.71,6.71,0,0,1-2.8.6,7.63,7.63,0,0,1-2.7-.5,4.83,4.83,0,0,1-2-1.4,5.29,5.29,0,0,1-1.1-2.1,6.49,6.49,0,0,1-.1-2.8A6.6,6.6,0,0,1,86,57a7.6,7.6,0,0,1,1.7-2.2,7.22,7.22,0,0,1,2.4-1.4,8.68,8.68,0,0,1,2.8-.5,6,6,0,0,1,2.4.5A4.66,4.66,0,0,1,97.2,55Z"/><path class="cls-1" d="M97.4,61.7a6,6,0,0,1,.6-1.9,4.43,4.43,0,0,1,1.2-1.5,4.61,4.61,0,0,1,1.7-.9,6.8,6.8,0,0,1,1.9-.3,4.84,4.84,0,0,1,1.8.3,4.19,4.19,0,0,1,1.4.9,3.61,3.61,0,0,1,.8,1.5,4,4,0,0,1,.1,1.9,6,6,0,0,1-.6,1.9,4.43,4.43,0,0,1-1.2,1.5,4.61,4.61,0,0,1-1.7.9,6.28,6.28,0,0,1-1.9.3,4.84,4.84,0,0,1-1.8-.3,3.39,3.39,0,0,1-1.4-.9,3.61,3.61,0,0,1-.8-1.5A5.92,5.92,0,0,1,97.4,61.7Zm2.2,0v1a2,2,0,0,0,.4.8,4.35,4.35,0,0,0,.7.6,3.13,3.13,0,0,0,2.2,0,2.36,2.36,0,0,0,.9-.6,1.56,1.56,0,0,0,.6-.8,1.69,1.69,0,0,0,.3-1v-1a2,2,0,0,0-.4-.8,4.35,4.35,0,0,0-.7-.6,3.13,3.13,0,0,0-2.2,0,2.36,2.36,0,0,0-.9.6,1.56,1.56,0,0,0-.6.8C99.8,61,99.7,61.4,99.6,61.7Z"/><path class="cls-1" d="M114.1,64.9h0a3.6,3.6,0,0,1-1.4,1.1,4.67,4.67,0,0,1-1.7.3,5,5,0,0,1-1.2-.2,3.13,3.13,0,0,1-1-.5,1.56,1.56,0,0,1-.6-.8,2.25,2.25,0,0,1-.1-1.2,3,3,0,0,1,.8-1.7,3.77,3.77,0,0,1,1.5-.9,10.62,10.62,0,0,1,1.9-.4c.7,0,1.3-.1,1.8-.1h.6v-.2c.1-.6,0-1-.4-1.2a2,2,0,0,0-1.4-.4,5.07,5.07,0,0,0-1.3.2,2.59,2.59,0,0,0-1.1.7l-1-1.2a5.24,5.24,0,0,1,1.9-1.1,7.61,7.61,0,0,1,2.1-.3,7.77,7.77,0,0,1,1.6.2,3.13,3.13,0,0,1,1,.5,1.37,1.37,0,0,1,.5.8,2.92,2.92,0,0,1,.2.9v.9c0,.3-.1.5-.1.7l-.7,5.1h-2Zm.3-2.7h-1.5a3.59,3.59,0,0,0-1.1.2,2.47,2.47,0,0,0-.9.4,1.16,1.16,0,0,0-.5.7.75.75,0,0,0,.1.5c.1.1.2.3.3.4a.76.76,0,0,0,.5.2c.2,0,.3.1.5.1a3.2,3.2,0,0,0,1.8-.5,2.75,2.75,0,0,0,.8-1.5Z"/><path class="cls-1" d="M125.2,59.9a1.87,1.87,0,0,0-.7-.6,1.2,1.2,0,0,0-.8-.2,3.59,3.59,0,0,0-1.1.2,2.36,2.36,0,0,0-.9.6,1.56,1.56,0,0,0-.6.8,1.69,1.69,0,0,0-.3,1v1a2,2,0,0,0,.4.8,4.35,4.35,0,0,0,.7.6,3.59,3.59,0,0,0,1.1.2,3.55,3.55,0,0,0,1-.2,1.56,1.56,0,0,0,.8-.6l1.2,1.6c-.3.2-.5.4-.8.6a3.55,3.55,0,0,1-.9.4,2.92,2.92,0,0,1-.9.2c-.3,0-.5.1-.7.1a4.84,4.84,0,0,1-1.8-.3,3.39,3.39,0,0,1-1.4-.9,3.61,3.61,0,0,1-.8-1.5,4,4,0,0,1-.1-1.9,6,6,0,0,1,.6-1.9,4.43,4.43,0,0,1,1.2-1.5,4.61,4.61,0,0,1,1.7-.9,6.28,6.28,0,0,1,1.9-.3,5.08,5.08,0,0,1,1.7.3,3.25,3.25,0,0,1,1.3,1Z"/><path class="cls-1" d="M130.4,58.5h0a3.57,3.57,0,0,1,1.1-1,3.45,3.45,0,0,1,3.2-.2,2.36,2.36,0,0,1,.9.8,3.58,3.58,0,0,1,.4,1.1v1.3l-.8,5.6H133l.6-4.5c0-.2.1-.5.1-.8a2,2,0,0,0-.1-.8,1.61,1.61,0,0,0-.4-.7,1.22,1.22,0,0,0-.9-.3,3,3,0,0,0-1,.2,1.79,1.79,0,0,0-.7.5,4.23,4.23,0,0,0-.5.7,1.34,1.34,0,0,0-.2.8l-.7,4.8H127l1.9-13.9h2.2Z"/><path class="cls-1" d="M139,57.3h2.2L140,66.1h-2.2Zm.1-3a1.05,1.05,0,0,1,.5-.9,1.5,1.5,0,0,1,1.1-.4,1.28,1.28,0,0,1,1,.4,1.61,1.61,0,0,1,.3.9,1.15,1.15,0,0,1-.6.9,1.5,1.5,0,0,1-1.1.4,1,1,0,0,1-.9-.4A.76.76,0,0,1,139.1,54.3Z"/><path class="cls-1" d="M143.7,57.3h2.1l-.2,1.4h0a3.84,3.84,0,0,1,1.1-1.1,3.45,3.45,0,0,1,1.8-.5,3.34,3.34,0,0,1,1.5.3,2.36,2.36,0,0,1,.9.8,3.58,3.58,0,0,1,.4,1.1v1.3l-.8,5.6h-2.2l.6-4.5c0-.2.1-.5.1-.8a2,2,0,0,0-.1-.8,1.61,1.61,0,0,0-.4-.7,1.22,1.22,0,0,0-.9-.3,3,3,0,0,0-1,.2,1.79,1.79,0,0,0-.7.5,4.23,4.23,0,0,0-.5.7,3.09,3.09,0,0,0-.2.8l-.7,4.8h-2.2Z"/><path class="cls-1" d="M163.3,57.3l-1.1,8a7.94,7.94,0,0,1-.6,2.2,6.45,6.45,0,0,1-1.1,1.6,4.78,4.78,0,0,1-1.7,1,7.88,7.88,0,0,1-2.3.4,8.52,8.52,0,0,1-2.3-.3,5.24,5.24,0,0,1-1.9-1.1l1.6-1.8a4.7,4.7,0,0,0,1.2.9,3.81,3.81,0,0,0,1.6.3,5.9,5.9,0,0,0,1.4-.2,1.46,1.46,0,0,0,.9-.6,2.36,2.36,0,0,0,.6-.9,5.27,5.27,0,0,0,.3-1.2l.1-.6h0a5,5,0,0,1-1.4,1,3.42,3.42,0,0,1-1.7.3,3.66,3.66,0,0,1-1.8-.4,2.94,2.94,0,0,1-1.2-1,3.69,3.69,0,0,1-.7-1.4,5.31,5.31,0,0,1-.1-1.8,5.46,5.46,0,0,1,.6-1.8,4.18,4.18,0,0,1,1.1-1.5,5.6,5.6,0,0,1,1.5-1,5.85,5.85,0,0,1,1.9-.4,3.29,3.29,0,0,1,1.7.4,1.89,1.89,0,0,1,1.1,1.2h0l.2-1.3Zm-4.9,1.8a3.59,3.59,0,0,0-1.1.2,4.05,4.05,0,0,0-.9.5,2.7,2.7,0,0,0-.7.8,2,2,0,0,0-.3,1.1,3.08,3.08,0,0,0,.1,1,2,2,0,0,0,.4.8,4.35,4.35,0,0,0,.7.6,3,3,0,0,0,1,.2,3.59,3.59,0,0,0,1.1-.2,4.05,4.05,0,0,0,.9-.5,1.56,1.56,0,0,0,.6-.8,1.93,1.93,0,0,0,.3-1,2.84,2.84,0,0,0-.4-1.9A1.69,1.69,0,0,0,158.4,59.1Z"/><path class="cls-1" d="M165.7,63.6h2.2l-2.2,4.8h-2Z"/><path class="cls-1" d="M177.5,53.1h4.4a11,11,0,0,1,1.8.2,3,3,0,0,1,1.4.6,2.73,2.73,0,0,1,.9,1.2,3.53,3.53,0,0,1,.1,1.8,4,4,0,0,1-.7,2,4.43,4.43,0,0,1-3,1.8,12.75,12.75,0,0,1-2,.1h-1.7l-.8,5.4h-2.3Zm2.9,5.6h1a3,3,0,0,0,1-.2,1.56,1.56,0,0,0,.8-.6,1.53,1.53,0,0,0,.4-1,3.08,3.08,0,0,0-.1-1,1.7,1.7,0,0,0-.6-.6,2.39,2.39,0,0,0-.9-.2c-.3,0-.6-.1-.9-.1h-1.7l-.5,3.7Z"/><path class="cls-1" d="M186.8,61.7a6,6,0,0,1,.6-1.9,4.43,4.43,0,0,1,1.2-1.5,4.61,4.61,0,0,1,1.7-.9,6.28,6.28,0,0,1,1.9-.3,4.84,4.84,0,0,1,1.8.3,4.19,4.19,0,0,1,1.4.9,3.61,3.61,0,0,1,.8,1.5,4,4,0,0,1,.1,1.9,6,6,0,0,1-.6,1.9,4.43,4.43,0,0,1-1.2,1.5,4.61,4.61,0,0,1-1.7.9,6.28,6.28,0,0,1-1.9.3,4.84,4.84,0,0,1-1.8-.3,3.39,3.39,0,0,1-1.4-.9,3.61,3.61,0,0,1-.8-1.5A4,4,0,0,1,186.8,61.7Zm2.2,0v1a2,2,0,0,0,.4.8,4.35,4.35,0,0,0,.7.6,3.13,3.13,0,0,0,2.2,0,2.36,2.36,0,0,0,.9-.6,1.56,1.56,0,0,0,.6-.8,1.69,1.69,0,0,0,.3-1v-1a2,2,0,0,0-.4-.8,4.35,4.35,0,0,0-.7-.6,3.13,3.13,0,0,0-2.2,0,2.36,2.36,0,0,0-.9.6,2.1,2.1,0,0,0-.6.8C189.2,61,189.1,61.4,189,61.7Z"/><path class="cls-1" d="M197.9,57.3h2.4l1,6.2h0l2.6-6.2h2.4l1,6.2h0l2.7-6.2h2.2L208,66.1h-2l-1.2-6h0l-2.7,6h-2.3Z"/><path class="cls-1" d="M214.7,62.5a2.77,2.77,0,0,0,.1.9,1.53,1.53,0,0,0,1.1,1.1,2.2,2.2,0,0,0,.8.1,2.9,2.9,0,0,0,1.4-.3,3.13,3.13,0,0,0,1.1-.9l1.4,1.2a6.22,6.22,0,0,1-1.9,1.4,5.22,5.22,0,0,1-2.1.4,4.84,4.84,0,0,1-1.8-.3,3.39,3.39,0,0,1-1.4-.9,3.61,3.61,0,0,1-.8-1.5,4,4,0,0,1-.1-1.9,6,6,0,0,1,.6-1.9,4.43,4.43,0,0,1,1.2-1.5,4.61,4.61,0,0,1,1.7-.9,6.28,6.28,0,0,1,1.9-.3,3.36,3.36,0,0,1,2.8,1.2,4.48,4.48,0,0,1,.6,3.6l-.1.6h-6.5Zm4.8-1.7a1.53,1.53,0,0,0-.4-1.5,2,2,0,0,0-1.6-.6,2.52,2.52,0,0,0-1.7.6,3.77,3.77,0,0,0-.9,1.5Z"/><path class="cls-1" d="M224.2,57.3h2.2l-.2,1.4h0a3.45,3.45,0,0,1,1.2-1.2,2.93,2.93,0,0,1,1.6-.4h.4c.1,0,.3.1.4.1l-.3,2.1c-.2,0-.3-.1-.5-.1h-.5a2.77,2.77,0,0,0-1.3.3,2.7,2.7,0,0,0-.8.7,2.51,2.51,0,0,0-.4.7,1.27,1.27,0,0,0-.1.6l-.7,4.7H223Z"/><path class="cls-1" d="M232.1,62.5a2.77,2.77,0,0,0,.1.9,1.53,1.53,0,0,0,1.1,1.1,2.2,2.2,0,0,0,.8.1,2.9,2.9,0,0,0,1.4-.3,3.13,3.13,0,0,0,1.1-.9l1.4,1.2a6.22,6.22,0,0,1-1.9,1.4,5.22,5.22,0,0,1-2.1.4,4.84,4.84,0,0,1-1.8-.3,3.39,3.39,0,0,1-1.4-.9,3.61,3.61,0,0,1-.8-1.5,4,4,0,0,1-.1-1.9,6,6,0,0,1,.6-1.9,4.43,4.43,0,0,1,1.2-1.5,4.61,4.61,0,0,1,1.7-.9,6.28,6.28,0,0,1,1.9-.3,3.36,3.36,0,0,1,2.8,1.2,4.48,4.48,0,0,1,.6,3.6l-.1.6h-6.5Zm4.7-1.7a1.53,1.53,0,0,0-.4-1.5,2,2,0,0,0-1.6-.6,2.52,2.52,0,0,0-1.7.6,3.77,3.77,0,0,0-.9,1.5Z"/><path class="cls-1" d="M247.5,64.8h0A4.43,4.43,0,0,1,246,66a5.84,5.84,0,0,1-1.8.4,3.42,3.42,0,0,1-1.8-.4,2.94,2.94,0,0,1-1.2-1,5.23,5.23,0,0,1-.7-1.5,3.66,3.66,0,0,1,0-1.8,5.46,5.46,0,0,1,.6-1.8,5.83,5.83,0,0,1,1.1-1.5,5.6,5.6,0,0,1,1.5-1,5.26,5.26,0,0,1,1.8-.4,3.75,3.75,0,0,1,1.1.1,6.89,6.89,0,0,1,.8.3c.2.1.4.3.6.4s.3.3.4.5h.1l.9-6.2h2.2L249.7,66h-2.1Zm-4.8-3.1v1a2,2,0,0,0,.4.8,4.35,4.35,0,0,0,.7.6,3.12,3.12,0,0,0,2.2,0,2.36,2.36,0,0,0,.9-.6,1.56,1.56,0,0,0,.6-.8,1.69,1.69,0,0,0,.3-1v-1a2,2,0,0,0-.4-.8,4.35,4.35,0,0,0-.7-.6,3.12,3.12,0,0,0-2.2,0,2.36,2.36,0,0,0-.9.6,2.1,2.1,0,0,0-.6.8C242.9,61,242.8,61.4,242.7,61.7Z"/><path class="cls-1" d="M259.3,52.2h2.2l-.9,6.2h.1l.5-.5a1.61,1.61,0,0,1,.7-.4l.9-.3a3.75,3.75,0,0,1,1.1-.1,3.29,3.29,0,0,1,1.7.4,2.94,2.94,0,0,1,1.2,1,5.23,5.23,0,0,1,.7,1.5,10.87,10.87,0,0,1,.1,1.8,5.46,5.46,0,0,1-.6,1.8,4.18,4.18,0,0,1-1.1,1.5,5.6,5.6,0,0,1-1.5,1,5.85,5.85,0,0,1-1.9.4,3.29,3.29,0,0,1-1.7-.4,1.89,1.89,0,0,1-1.1-1.2h0l-.2,1.3h-2.1Zm5.9,9.5v-1a2,2,0,0,0-.4-.8,4.35,4.35,0,0,0-.7-.6,3.13,3.13,0,0,0-2.2,0,2.36,2.36,0,0,0-.9.6,1.56,1.56,0,0,0-.6.8,1.69,1.69,0,0,0-.3,1v1a2,2,0,0,0,.4.8,4.35,4.35,0,0,0,.7.6,3.12,3.12,0,0,0,2.2,0,2.36,2.36,0,0,0,.9-.6,1.56,1.56,0,0,0,.6-.8A1.93,1.93,0,0,0,265.2,61.7Z"/><path class="cls-1" d="M268.9,57.3h2.4l1.6,6.1h0l3.1-6.1h2.3L272.7,68a4.13,4.13,0,0,1-.7,1.1,3,3,0,0,1-.8.8,3.13,3.13,0,0,1-1,.5,5.07,5.07,0,0,1-1.3.2,9.85,9.85,0,0,1-1.7-.2l.6-2c.2.1.3.1.5.2s.4.1.6.1a1.48,1.48,0,0,0,.7-.1.76.76,0,0,0,.5-.2c.1-.1.3-.2.4-.4a2.09,2.09,0,0,1,.4-.6l.6-1Z"/><path class="cls-1" d="M285.9,53.1h8.6l-.3,2.1h-6.3l-.4,3.2h6l-.3,2.1h-6l-.5,3.5h6.6l-.3,2.1h-8.9Z"/><path class="cls-1" d="M298,61.4l-2.5-4.1h2.7l1.4,2.6,2.3-2.6h2.5l-3.6,4.1,2.9,4.7H301l-1.9-3.2-2.8,3.2h-2.6Z"/><path class="cls-1" d="M306.2,57.3h2.1l-.2,1.3h0a5.26,5.26,0,0,1,1.4-1.2,5.84,5.84,0,0,1,1.8-.4,3.42,3.42,0,0,1,1.8.4,2.94,2.94,0,0,1,1.2,1,3.39,3.39,0,0,1,.6,1.5,5.77,5.77,0,0,1-.6,3.6,5.27,5.27,0,0,1-1.1,1.5,5.6,5.6,0,0,1-1.5,1,5.26,5.26,0,0,1-1.8.4,3.75,3.75,0,0,1-1.1-.1,6.89,6.89,0,0,1-.8-.3c-.2-.1-.4-.3-.6-.4s-.3-.3-.4-.4h-.1l-.8,5.3h-2.2Zm6.6,4.4v-1a2,2,0,0,0-.4-.8,4.35,4.35,0,0,0-.7-.6,3.12,3.12,0,0,0-2.2,0,2.36,2.36,0,0,0-.9.6,2.1,2.1,0,0,0-.6.8,1.69,1.69,0,0,0-.3,1v1a2,2,0,0,0,.4.8,4.35,4.35,0,0,0,.7.6,3.13,3.13,0,0,0,2.2,0,2.36,2.36,0,0,0,.9-.6,1.56,1.56,0,0,0,.6-.8A1.93,1.93,0,0,0,312.8,61.7Z"/><path class="cls-1" d="M318.7,62.5a2.77,2.77,0,0,0,.1.9,1.53,1.53,0,0,0,1.1,1.1,2.2,2.2,0,0,0,.8.1,2.9,2.9,0,0,0,1.4-.3,3.13,3.13,0,0,0,1.1-.9l1.4,1.2a6.22,6.22,0,0,1-1.9,1.4,5.22,5.22,0,0,1-2.1.4,4.84,4.84,0,0,1-1.8-.3,3.39,3.39,0,0,1-1.4-.9,3.61,3.61,0,0,1-.8-1.5,4,4,0,0,1-.1-1.9,6,6,0,0,1,.6-1.9,4.43,4.43,0,0,1,1.2-1.5,4.61,4.61,0,0,1,1.7-.9,6.28,6.28,0,0,1,1.9-.3,3.36,3.36,0,0,1,2.8,1.2,4.48,4.48,0,0,1,.6,3.6l-.1.6h-6.5Zm4.8-1.7a1.53,1.53,0,0,0-.4-1.5,2,2,0,0,0-1.6-.6,2.52,2.52,0,0,0-1.7.6,3.77,3.77,0,0,0-.9,1.5Z"/><path class="cls-1" d="M328.3,57.3h2.2l-.2,1.4h0a3.45,3.45,0,0,1,1.2-1.2,2.93,2.93,0,0,1,1.6-.4h.4c.1,0,.3.1.4.1l-.3,2.1c-.2,0-.3-.1-.5-.1h-.5a2.77,2.77,0,0,0-1.3.3,2.7,2.7,0,0,0-.8.7,2.51,2.51,0,0,0-.4.7,1.27,1.27,0,0,0-.1.6l-.7,4.7H327Z"/><path class="cls-1" d="M335.4,57.3h2.2l-1.2,8.8h-2.2Zm.1-3a1.05,1.05,0,0,1,.5-.9,1.5,1.5,0,0,1,1.1-.4,1.28,1.28,0,0,1,1,.4,1.61,1.61,0,0,1,.3.9,1.15,1.15,0,0,1-.6.9,1.5,1.5,0,0,1-1.1.4,1,1,0,0,1-.9-.4A1.22,1.22,0,0,1,335.5,54.3Z"/><path class="cls-1" d="M341.2,62.5a2.77,2.77,0,0,0,.1.9,1.53,1.53,0,0,0,1.1,1.1,2.2,2.2,0,0,0,.8.1,2.9,2.9,0,0,0,1.4-.3,3.13,3.13,0,0,0,1.1-.9l1.4,1.2a6.22,6.22,0,0,1-1.9,1.4,5.22,5.22,0,0,1-2.1.4,4.84,4.84,0,0,1-1.8-.3,3.39,3.39,0,0,1-1.4-.9,3.61,3.61,0,0,1-.8-1.5,4,4,0,0,1-.1-1.9,6,6,0,0,1,.6-1.9,4.43,4.43,0,0,1,1.2-1.5,4.61,4.61,0,0,1,1.7-.9,6.28,6.28,0,0,1,1.9-.3,3.36,3.36,0,0,1,2.8,1.2,4.48,4.48,0,0,1,.6,3.6l-.1.6h-6.5Zm4.7-1.7a1.53,1.53,0,0,0-.4-1.5,2,2,0,0,0-1.6-.6,2.52,2.52,0,0,0-1.7.6,3.77,3.77,0,0,0-.9,1.5Z"/><path class="cls-1" d="M350.7,57.3h2.1l-.2,1.4h0a3.84,3.84,0,0,1,1.1-1.1,3.45,3.45,0,0,1,1.8-.5,3.34,3.34,0,0,1,1.5.3,2.36,2.36,0,0,1,.9.8,3.58,3.58,0,0,1,.4,1.1v1.3l-.8,5.6h-2.2l.6-4.5c0-.2.1-.5.1-.8a2,2,0,0,0-.1-.8,1.61,1.61,0,0,0-.4-.7,1.22,1.22,0,0,0-.9-.3,3,3,0,0,0-1,.2,1.79,1.79,0,0,0-.7.5,4.23,4.23,0,0,0-.5.7,3.09,3.09,0,0,0-.2.8l-.7,4.8h-2.2Z"/><path class="cls-1" d="M366.9,59.9a1.87,1.87,0,0,0-.7-.6,1.2,1.2,0,0,0-.8-.2,3.59,3.59,0,0,0-1.1.2,2.36,2.36,0,0,0-.9.6,1.56,1.56,0,0,0-.6.8,1.69,1.69,0,0,0-.3,1v1a2,2,0,0,0,.4.8,4.35,4.35,0,0,0,.7.6,3.59,3.59,0,0,0,1.1.2,3.55,3.55,0,0,0,1-.2,1.56,1.56,0,0,0,.8-.6l1.2,1.6c-.3.2-.5.4-.8.6a3.55,3.55,0,0,1-.9.4,2.92,2.92,0,0,1-.9.2c-.3,0-.5.1-.7.1a4.84,4.84,0,0,1-1.8-.3,3.39,3.39,0,0,1-1.4-.9,3.61,3.61,0,0,1-.8-1.5,4,4,0,0,1-.1-1.9,6,6,0,0,1,.6-1.9,4.43,4.43,0,0,1,1.2-1.5,4.61,4.61,0,0,1,1.7-.9,6.28,6.28,0,0,1,1.9-.3,5.08,5.08,0,0,1,1.7.3,3.25,3.25,0,0,1,1.3,1Z"/><path class="cls-1" d="M371.1,62.5a2.77,2.77,0,0,0,.1.9,1.53,1.53,0,0,0,1.1,1.1,2.2,2.2,0,0,0,.8.1,2.9,2.9,0,0,0,1.4-.3,3.13,3.13,0,0,0,1.1-.9l1.4,1.2a6.22,6.22,0,0,1-1.9,1.4,5.22,5.22,0,0,1-2.1.4,4.84,4.84,0,0,1-1.8-.3,3.39,3.39,0,0,1-1.4-.9,3.61,3.61,0,0,1-.8-1.5,4,4,0,0,1-.1-1.9,6,6,0,0,1,.6-1.9,4.43,4.43,0,0,1,1.2-1.5,4.61,4.61,0,0,1,1.7-.9,6.28,6.28,0,0,1,1.9-.3,3.36,3.36,0,0,1,2.8,1.2,4.48,4.48,0,0,1,.6,3.6l-.1.6h-6.5Zm4.8-1.7a1.53,1.53,0,0,0-.4-1.5,2,2,0,0,0-1.6-.6,2.52,2.52,0,0,0-1.7.6,3.77,3.77,0,0,0-.9,1.5Z"/><path class="cls-1" d="M23.29,33l-.14.06,0,.1h.17Z"/><path class="cls-1" d="M.35.35v45h45V.35Zm23.13,21.4a3.3,3.3,0,0,1-.34-.49,3.25,3.25,0,0,1-.23-.54,2.2,2.2,0,0,1-.08-.64,2.18,2.18,0,0,1,.22-1,2,2,0,0,1,.59-.72,2.4,2.4,0,0,1,.86-.43,3.5,3.5,0,0,1,1-.15,4.11,4.11,0,0,1,1,.13,2.53,2.53,0,0,1,.84.41A1.92,1.92,0,0,1,28,19a2.19,2.19,0,0,1,.22,1,2.17,2.17,0,0,1-.16.81,2.58,2.58,0,0,1-.43.66A3.45,3.45,0,0,1,27,22a4.18,4.18,0,0,1-.68.42l1.51,1.63,1.05-1.59h1.87l-1.89,2.72,2,2.22H28.83l-1-1.07a3.81,3.81,0,0,1-1.22,1,3.51,3.51,0,0,1-1.55.32,4,4,0,0,1-1.2-.18,3.09,3.09,0,0,1-1-.53,2.55,2.55,0,0,1-.7-.86,2.52,2.52,0,0,1-.27-1.19A2.3,2.3,0,0,1,22,24a2.93,2.93,0,0,1,.43-.75,3.67,3.67,0,0,1,.64-.6,3.56,3.56,0,0,1,.8-.41Zm14.57,8.1a10.06,10.06,0,0,1-1.9,6.5c-1.2,1.6-3.2,2.4-5.8,2.4a7.09,7.09,0,0,1-7.17-5.6H17.05l-3.5-10.4h-1.7v10.4H6.15V7h8.4a8.42,8.42,0,0,1,5.9,2c1.4,1.3,2.1,3.3,2.1,5.9a11.53,11.53,0,0,1-.3,2.6,7.22,7.22,0,0,1-.9,2,3.74,3.74,0,0,1-1.2,1.3,3.29,3.29,0,0,1-1.3.7L23.29,33l4.76-2.14a4.59,4.59,0,0,0,.7,1.6,1.75,1.75,0,0,0,1.4.7,1.43,1.43,0,0,0,1.6-1,8.63,8.63,0,0,0,.4-2.8V12h5.9Z"/><path class="cls-1" d="M26.58,20.08a.78.78,0,0,0-.3-.63,1.17,1.17,0,0,0-.73-.25,1.28,1.28,0,0,0-.8.26.84.84,0,0,0-.33.69.94.94,0,0,0,.08.36,1.68,1.68,0,0,0,.21.36c.09.12.19.23.29.34s.2.21.31.31l.42-.25a2.59,2.59,0,0,0,.42-.32,1.61,1.61,0,0,0,.31-.39A1,1,0,0,0,26.58,20.08Z"/><path class="cls-1" d="M24.45,23.49a2.72,2.72,0,0,0-.42.34,1.37,1.37,0,0,0-.29.42,1.19,1.19,0,0,0-.12.54,1.4,1.4,0,0,0,.12.58,1.45,1.45,0,0,0,.33.45,1.49,1.49,0,0,0,.47.29,1.56,1.56,0,0,0,.57.11,1.61,1.61,0,0,0,1-.3,6.61,6.61,0,0,0,.77-.63l-1.93-2.1Z"/><path class="cls-1" d="M15.75,12.45a3.13,3.13,0,0,0-1-.5,3.75,3.75,0,0,0-1.1-.1h-1.8v6.6h1.7a3.49,3.49,0,0,0,2.2-.8,3.11,3.11,0,0,0,.9-2.6,4.15,4.15,0,0,0-.3-1.6A2.66,2.66,0,0,0,15.75,12.45Z"/><rect class="cls-1" x="0.65" y="0.15" width="0.8" height="0.3"/><path class="cls-1" d="M26.58,20.08a.78.78,0,0,0-.3-.63,1.17,1.17,0,0,0-.73-.25,1.28,1.28,0,0,0-.8.26.84.84,0,0,0-.33.69.94.94,0,0,0,.08.36,1.68,1.68,0,0,0,.21.36c.09.12.19.23.29.34s.2.21.31.31l.42-.25a2.59,2.59,0,0,0,.42-.32,1.61,1.61,0,0,0,.31-.39A1,1,0,0,0,26.58,20.08Z"/><path class="cls-1" d="M24.45,23.49a2.72,2.72,0,0,0-.42.34,1.37,1.37,0,0,0-.29.42,1.19,1.19,0,0,0-.12.54,1.4,1.4,0,0,0,.12.58,1.45,1.45,0,0,0,.33.45,1.49,1.49,0,0,0,.47.29,1.56,1.56,0,0,0,.57.11,1.61,1.61,0,0,0,1-.3,6.61,6.61,0,0,0,.77-.63l-1.93-2.1Z"/></g></g></svg>