<?xml version="1.0" encoding="utf-8"?>
<!-- Generator: Adobe Illustrator 21.1.0, SVG Export Plug-In . SVG Version: 6.00 Build 0)  -->
<svg version="1.1" id="Layer_1" xmlns="http://www.w3.org/2000/svg" xmlns:xlink="http://www.w3.org/1999/xlink" x="0px" y="0px"
	 viewBox="0 0 378 70.9" style="enable-background:new 0 0 378 70.9;" xml:space="preserve">
<style type="text/css">
	.st0{fill:#FFFFFF;}
	.st1{display:none;}
	.st2{display:inline;fill:#FFFFFF;}
</style>
<title>RJLogo</title>
<g>
	<path class="st0" d="M0.5,0.5v45h45v-45H0.5z M25.3,19.2h1.9v2.9h3v1.8h-3v2.9h-1.9v-2.9h-3v-1.8h3V19.2z M17.2,33.3l-3.5-10.4H12
		v10.4H6.3V7.1h8.4c2.5,0,4.5,0.7,5.9,2c1.4,1.3,2.1,3.3,2.1,5.9c0,0.9-0.1,1.7-0.3,2.6c-0.2,0.7-0.5,1.4-0.9,2
		c-0.3,0.5-0.7,1-1.2,1.3c-0.4,0.3-0.8,0.6-1.3,0.7l4.5,11.7L17.2,33.3z M38.2,30c0,2.7-0.6,4.9-1.9,6.5c-1.2,1.6-3.2,2.4-5.8,2.4
		c-3.5,0.1-6.5-2.3-7.2-5.7l4.9-2.2c0.1,0.6,0.4,1.1,0.7,1.6c0.3,0.4,0.8,0.7,1.4,0.7c0.7,0.1,1.4-0.3,1.6-1
		c0.3-0.9,0.4-1.8,0.4-2.8V12.1h5.9L38.2,30z"/>
	<path class="st0" d="M15.9,12.6c-0.3-0.2-0.6-0.4-1-0.5c-0.3-0.1-0.7-0.1-1.1-0.1H12v6.6h1.7c0.8,0,1.6-0.3,2.2-0.8
		c0.7-0.7,1-1.6,0.9-2.6c0-0.6-0.1-1.1-0.3-1.6C16.4,13.3,16.2,12.9,15.9,12.6z"/>
</g>
<g>
	<path class="st0" d="M72.7,39.1v-0.4l0.6-0.1c0.4-0.1,0.7-0.2,1-0.3c0.4-0.1,0.7-0.3,1-0.6c0.3-0.3,0.4-0.6,0.4-1
		c0-0.4-0.1-0.8-0.2-1.2c-0.2-0.6-0.4-1.3-0.7-2.2c-0.3-0.9-0.6-1.8-1-2.8c-0.4-1-0.8-2.1-1.2-3.3H61.1c-0.4,1.1-0.9,2.2-1.2,3.2
		l-1.2,3c-0.5,1-0.8,2.2-0.9,3.3c0,0.3,0.1,0.7,0.3,0.9c0.3,0.3,0.6,0.5,0.9,0.6c0.4,0.2,0.8,0.3,1.2,0.3l1.2,0.2v0.4H52v-0.5
		c0.7-0.1,1.3-0.3,1.9-0.6c0.3-0.2,0.7-0.4,0.9-0.6c0.4-0.4,0.7-0.9,1-1.4c0.6-1.1,1.2-2.2,1.7-3.3c0.6-1.4,1.3-2.9,2.1-4.7l2.3-5.4
		c0.8-1.8,1.6-3.7,2.4-5.6c0.8-1.9,1.5-3.6,2.2-5.2l-0.4-1c0.5-0.2,1-0.5,1.4-0.8c0.4-0.3,0.8-0.6,1.1-1c0.3-0.3,0.6-0.7,0.8-1
		c0.2-0.3,0.4-0.6,0.5-0.8h0.3l2.6,6.9c0.8,2.2,1.6,4.2,2.3,6.2l2.2,5.8c0.7,1.9,1.4,3.7,2.1,5.5c0.3,0.9,0.6,1.7,0.9,2.2l0.9,2
		c0.1,0.2,0.2,0.4,0.4,0.6c0.2,0.3,0.5,0.6,0.8,0.9c0.4,0.3,0.8,0.6,1.2,0.8c0.5,0.2,1.1,0.4,1.7,0.4v0.5H72.7z M67,12.7
		c-0.2,0.4-0.4,1-0.8,1.8c-0.3,0.8-0.7,1.8-1.2,3c-0.5,1.2-1,2.5-1.6,3.9l-1.9,4.8h10.8c-0.5-1.3-1-2.6-1.5-3.9
		c-0.5-1.3-1-2.6-1.5-3.7l-1.2-3.3C67.6,14.2,67.3,13.4,67,12.7z"/>
	<path class="st0" d="M109.1,31.7c-0.3,1.1-0.8,2.1-1.5,3c-0.6,0.8-1.4,1.5-2.2,2.1c-0.8,0.6-1.7,1-2.7,1.4c-1,0.3-1.9,0.6-2.9,0.7
		c-1,0.1-2,0.2-2.9,0.2H85.3v-0.3c0.5-0.1,1-0.2,1.5-0.4c0.4-0.2,0.8-0.4,1.1-0.7c0.1-0.2,0.2-0.3,0.2-0.5c0-0.2,0.1-0.5,0.1-0.8
		c0-0.3,0.1-0.6,0.1-1c0-0.3,0-0.7,0-1c0-0.3,0-0.7,0-1.2c0-0.5,0-1,0-1.6c0-0.6,0-1.2,0-1.8v-9c0-0.4,0-0.7,0-1
		c0-0.3-0.1-0.6-0.1-0.9c0-0.2-0.1-0.4-0.3-0.6c-0.3-0.4-0.7-0.6-1.1-0.8c-0.5-0.2-1-0.3-1.5-0.3v-0.3h11.7c0.7,0,1.4,0,2.1,0.1
		c0.7,0.1,1.4,0.2,2.1,0.3c0.7,0.2,1.4,0.4,2,0.7c0.9,0.4,1.7,0.9,2.5,1.4c0.8,0.6,1.4,1.3,2,2.1c0.6,0.8,1.1,1.8,1.4,2.8
		c0.4,1.2,0.5,2.4,0.5,3.6C109.6,29,109.5,30.4,109.1,31.7z M105.2,24.1c-0.4-1.1-0.9-2.2-1.6-3.1c-0.6-0.9-1.4-1.7-2.4-2.4
		c-0.9-0.6-1.9-1.1-3-1.2c-0.4-0.1-0.9-0.1-1.4-0.2c-0.6-0.1-1.2-0.1-1.8-0.1h-0.8h-0.9l-0.8,0.1c-0.2,0-0.4,0-0.6,0.1
		c-0.1,1-0.2,2.4-0.2,4.2c0,1.8,0,3.9,0,6.4v3.6c0,1.1,0,2,0,2.6c0,0.3,0,0.6,0,0.9c0,0.3,0,0.7,0.1,1c0,0.3,0.1,0.6,0.2,0.9
		c0.1,0.2,0.2,0.4,0.3,0.6c0.4,0.4,1,0.7,1.6,0.8c0.6,0.1,1.2,0.2,1.8,0.2c0.5,0,1,0,1.6-0.1c0.5,0,1-0.1,1.5-0.3
		c2.1-0.5,3.9-1.9,5-3.7c1.2-2.1,1.7-4.5,1.7-6.9C105.7,26.4,105.6,25.3,105.2,24.1z"/>
	<path class="st0" d="M131,17.3c-0.3,0.1-0.5,0.3-0.7,0.5l-0.3,0.3c-0.1,0.2-0.3,0.4-0.4,0.6c-0.1,0.3-0.3,0.6-0.5,1
		c-0.2,0.4-0.4,0.9-0.7,1.5c-0.4,1-0.9,2.1-1.4,3.3l-1.5,3.8c-0.5,1.3-1,2.6-1.5,3.9l-1.4,3.7l-1.5,3.1h-0.4
		c-0.7-1.7-1.3-3.3-1.9-4.8c-0.6-1.5-1.2-3-1.7-4.4l-1.6-4.1l-1.5-3.9c-0.1-0.4-0.3-0.7-0.4-1l-0.4-0.8l-0.3-0.7l-0.4-0.7
		c-0.1-0.2-0.2-0.3-0.3-0.5c-0.1-0.2-0.3-0.4-0.5-0.6c-0.2-0.2-0.5-0.4-0.8-0.5c-0.4-0.2-0.8-0.2-1.2-0.2v-0.3h9.3v0.3l-0.6,0.1
		c-0.3,0-0.6,0.1-0.8,0.2c-0.3,0.1-0.5,0.3-0.7,0.5c-0.2,0.2-0.3,0.5-0.3,0.8c0.1,0.5,0.2,0.9,0.3,1.3c0.2,0.7,0.5,1.5,0.9,2.5
		c0.4,1,0.8,2,1.2,3.2l1.4,3.4c0.4,1.1,0.9,2.2,1.2,3.2s0.7,1.8,0.9,2.4c0.1-0.2,0.3-0.7,0.6-1.4l1.1-2.7c0.4-1.1,0.9-2.3,1.4-3.7
		l1.6-4.3c0.3-0.8,0.6-1.7,0.8-2.6c0.1-0.4,0.2-0.8,0.2-1.2c0-0.3-0.1-0.6-0.3-0.8c-0.2-0.2-0.5-0.4-0.8-0.5c-0.3-0.1-0.6-0.2-1-0.3
		c-0.3-0.1-0.6-0.1-0.9-0.1v-0.3h7.2v0.4C131.8,16.9,131.4,17.1,131,17.3z"/>
	<path class="st0" d="M132.7,39.1v-0.3c0.5-0.1,1-0.2,1.4-0.4c0.4-0.2,0.8-0.5,1.1-0.8c0.1-0.2,0.2-0.3,0.2-0.5
		c0.1-0.3,0.1-0.5,0.1-0.8c0-0.3,0-0.6,0-1c0-0.3,0-0.7,0-1c0-0.3,0-0.7,0-1.2c0-0.6,0-1,0-1.6c0-0.6,0-1.2,0-1.8v-8.9
		c0-0.4,0-0.7,0-1c0-0.3-0.1-0.6-0.1-0.9c0-0.2-0.1-0.4-0.3-0.6c-0.3-0.3-0.7-0.6-1.1-0.8c-0.5-0.2-1-0.3-1.4-0.3v-0.3h9.3V17
		c-0.5,0.1-0.9,0.2-1.4,0.3c-0.5,0.2-0.9,0.5-1.2,1c-0.2,0.4-0.3,0.9-0.3,1.3c0,0.5,0,1,0,1.5s0,1,0,1.5c0,0.5,0,1,0,1.5v10.4
		c0,0.6,0,1.2,0,1.7c0,0.4,0.1,0.9,0.3,1.2c0.3,0.4,0.7,0.7,1.2,0.8c0.5,0.2,1,0.3,1.5,0.3v0.3L132.7,39.1z"/>
	<path class="st0" d="M160.4,35.4c-0.4,0.8-1,1.5-1.7,2c-0.8,0.6-1.6,1-2.6,1.2c-1.1,0.3-2.2,0.4-3.3,0.4c-0.9,0-1.7-0.1-2.6-0.2
		c-0.6-0.1-1.2-0.2-1.8-0.4c-0.4-0.1-0.7-0.3-1.1-0.5c-0.1-0.1-0.3-0.2-0.4-0.2c0,0-0.2,0.1-0.4,0.4c-0.2,0.2-0.4,0.5-0.6,0.7h-0.3
		l-0.1-6.2h0.3c0.2,0.6,0.4,1.1,0.7,1.6c0.3,0.5,0.6,1,0.9,1.5c0.3,0.5,0.7,0.9,1.1,1.2c0.3,0.3,0.7,0.6,1.1,0.8
		c0.5,0.2,0.9,0.4,1.4,0.6c1.9,0.6,3.9,0.2,5.4-1c1-0.9,1.5-2.1,1.4-3.4c0-0.5-0.1-1-0.3-1.5c-0.2-0.4-0.4-0.8-0.8-1.1
		c-0.3-0.3-0.7-0.6-1.1-0.8c-0.5-0.2-0.9-0.4-1.4-0.6l-1.2-0.5l-1-0.4l-1-0.3l-1.2-0.4c-0.6-0.2-1.1-0.5-1.6-0.9
		c-0.5-0.4-0.9-0.8-1.2-1.2c-0.4-0.5-0.7-1-0.9-1.6c-0.2-0.6-0.3-1.2-0.3-1.9c0-1,0.2-2,0.6-2.9c0.4-0.8,1-1.5,1.7-2
		c0.7-0.6,1.5-1,2.4-1.2c0.9-0.3,1.9-0.4,2.8-0.4c0.8,0,1.6,0.1,2.4,0.2c0.6,0.1,1.1,0.3,1.6,0.5c0.3,0.1,0.7,0.3,1,0.5
		c0.1,0.1,0.2,0.2,0.4,0.2c0.1,0,0.2-0.1,0.4-0.4c0.2-0.2,0.4-0.5,0.5-0.7h0.3v5.8h-0.3c-0.3-0.7-0.6-1.4-1-2
		c-0.4-0.7-0.8-1.3-1.4-1.8c-0.5-0.5-1.1-0.9-1.8-1.2c-0.7-0.3-1.4-0.5-2.2-0.5c-0.6,0-1.2,0.1-1.8,0.3c-0.5,0.2-1.1,0.5-1.5,0.8
		c-0.4,0.4-0.8,0.9-1,1.4c-0.2,0.6-0.4,1.2-0.4,1.9c0,1,0.3,1.9,1,2.6c0.7,0.7,1.6,1.2,2.6,1.6l1.2,0.4l1.1,0.4l1.1,0.4l1.1,0.4
		c1.3,0.4,2.4,1.2,3.3,2.3c1.3,1.9,1.5,4.3,0.6,6.4L160.4,35.4z"/>
	<path class="st0" d="M185.8,32.2c-0.6,1.4-1.4,2.6-2.5,3.7c-1.1,1-2.3,1.9-3.7,2.4c-2.9,1.1-6.1,1.1-9,0c-1.4-0.5-2.7-1.3-3.7-2.3
		c-1.1-1-1.9-2.2-2.5-3.6c-0.6-1.5-0.9-3-0.9-4.6c0-1.7,0.3-3.3,1-4.8c0.6-1.4,1.5-2.6,2.5-3.6c1.1-1,2.4-1.8,3.8-2.3
		c1.5-0.5,3-0.8,4.6-0.8c1.6,0,3.2,0.3,4.7,0.9c1.3,0.6,2.6,1.4,3.6,2.5c1,1,1.7,2.3,2.2,3.6c0.5,1.4,0.8,2.8,0.8,4.3
		C186.7,29.2,186.4,30.8,185.8,32.2z M182.4,23.8c-0.3-1.2-0.8-2.4-1.5-3.5c-0.6-1-1.5-1.9-2.5-2.5c-1-0.7-2.2-1-3.4-1
		c-1.2,0-2.5,0.3-3.5,1c-1,0.6-1.9,1.5-2.5,2.5c-0.7,1.1-1.1,2.3-1.4,3.5c-0.3,1.3-0.4,2.6-0.4,4c0,1.4,0.2,2.7,0.5,4.1
		c0.3,1.2,0.8,2.4,1.5,3.4c0.6,1,1.5,1.8,2.5,2.4c1,0.6,2.2,0.9,3.4,0.9c1.2,0,2.4-0.3,3.4-1c1-0.7,1.8-1.5,2.4-2.6
		c0.7-1.1,1.1-2.3,1.4-3.5c0.3-1.3,0.5-2.6,0.5-3.9C182.8,26.3,182.7,25.1,182.4,23.8z"/>
	<path class="st0" d="M206,39l-0.4-0.4l-0.3-0.3c-0.1-0.2-0.3-0.4-0.4-0.5l-0.7-1.1c-0.4-0.6-0.7-1.1-1-1.6
		c-0.3-0.5-0.6-0.9-0.9-1.4c-0.3-0.5-0.6-0.9-1-1.4c-0.4-0.5-0.8-1-1.2-1.6c-0.4-0.5-0.9-0.9-1.4-1.3c-0.4-0.4-1-0.7-1.5-0.8
		c-0.3-0.1-0.6-0.1-0.9-0.1h-0.7v3.4c0,1,0,1.8,0,2.5c0,0.7,0,1.2,0,1.7c0,0.4,0.1,0.9,0.3,1.2c0.3,0.3,0.6,0.6,1,0.8
		c0.6,0.3,1.3,0.5,2,0.5V39h-10v-0.3c0.5-0.1,1-0.2,1.5-0.4c0.4-0.1,0.8-0.4,1.1-0.7c0.1-0.2,0.2-0.4,0.2-0.6
		c0.1-0.3,0.1-0.6,0.1-0.8c0-0.3,0-0.6,0.1-1c0-0.4,0-0.7,0-1c0-0.3,0-0.7,0-1.2c0-0.5,0-1.1,0-1.6c0-0.6,0-1.2,0-1.8v-7.8
		c0-0.4,0-0.8,0-1.1c0-0.4,0-0.7,0-1.1c0-0.3-0.1-0.6-0.1-0.9c0-0.2-0.1-0.4-0.3-0.6c-0.3-0.3-0.6-0.5-1-0.7
		c-0.5-0.1-0.9-0.2-1.4-0.3v-0.3h8.5c1.4,0,2.6,0,3.7,0.1c1,0.1,2,0.4,3,0.8c0.9,0.4,1.7,1.1,2.3,1.9c0.6,0.9,0.9,2,0.8,3.1
		c0,0.7-0.1,1.4-0.4,2.1c-0.3,0.6-0.7,1.1-1.1,1.6c-0.5,0.5-1,0.9-1.6,1.2c-0.6,0.3-1.3,0.6-2,0.8v0.1c0.4,0.2,0.7,0.5,1,0.8
		c0.3,0.4,0.7,0.8,1,1.2l1.8,2.5l1.7,2.5c0.6,0.9,1.4,1.7,2.2,2.4c0.7,0.5,1.6,0.8,2.5,1v0.3L206,39z M203,19.6
		c-0.6-0.8-1.4-1.5-2.3-1.9c-0.5-0.2-1-0.4-1.6-0.5c-0.6-0.1-1.1-0.2-1.7-0.1c-0.4,0-0.8,0-1.1,0h-0.6c0,0.1,0,0.2,0,0.3
		c0,0.1,0,0.2,0,0.4c0,0.1,0,0.4,0,0.6v1.1c0,0.7,0,1.6,0,2.5c0,0.9,0,1.8,0,2.6V28c0.8,0,1.6,0,2.4-0.1c0.7-0.1,1.4-0.2,2.1-0.4
		c0.6-0.2,1.2-0.5,1.7-0.8c0.5-0.3,0.9-0.8,1.2-1.2c0.3-0.4,0.5-0.9,0.7-1.4c0.1-0.5,0.2-1.1,0.2-1.6C204,21.4,203.6,20.4,203,19.6z
		"/>
	<path class="st0" d="M231,17.5c-0.4,0.2-0.8,0.5-1.2,0.8c-0.4,0.4-0.7,0.8-1,1.2c-0.3,0.5-0.7,1-1,1.6l-1,1.6l-1.4,2l-1.4,2.1
		l-1,1.5v6.2c0,0.6,0,1.2,0,1.8c0,0.4,0.1,0.9,0.3,1.2c0.3,0.4,0.7,0.8,1.2,0.9c0.5,0.1,0.9,0.2,1.4,0.3v0.3h-9.6v-0.3
		c0.5,0,1-0.1,1.5-0.3c0.5-0.2,0.9-0.6,1.2-1c0.1-0.2,0.2-0.3,0.2-0.5c0.1-0.3,0.1-0.6,0.1-0.8c0-0.3,0-0.6,0.1-1c0-0.4,0-0.7,0-1
		c0-0.6,0-1.3,0-2.1c0-0.8,0-1.8,0-2.9l-0.4-0.6l-0.8-1.2l-1-1.6l-1.1-1.8l-1-1.6l-0.8-1.2l-1.1-1.6c-0.3-0.4-0.6-0.9-1-1.2
		c-0.3-0.3-0.6-0.6-1-0.8c-0.3-0.2-0.7-0.3-1.1-0.3v-0.3h9.4V17l-0.9,0.1c-0.3,0-0.6,0.1-0.9,0.2c-0.2,0.1-0.5,0.2-0.6,0.4
		c-0.2,0.2-0.3,0.4-0.2,0.6c0.1,0.4,0.2,0.9,0.4,1.2c0.3,0.5,0.6,1.1,0.9,1.7l0.8,1.4c0.3,0.5,0.7,1.1,1,1.7l1.1,1.8l1.1,1.8
		c0.3-0.4,0.6-0.9,1-1.5l1.2-1.9l1.1-1.8c0.4-0.6,0.6-1,0.8-1.4l0.3-0.6c0.1-0.2,0.2-0.4,0.4-0.7c0.1-0.2,0.2-0.5,0.3-0.7
		c0.1-0.2,0.1-0.5,0.1-0.7c0-0.3-0.1-0.6-0.2-0.8c-0.2-0.2-0.4-0.3-0.6-0.4c-0.3-0.1-0.6-0.2-0.9-0.2l-0.9-0.1v-0.3h7.2v0.3
		C232,17.1,231.5,17.3,231,17.5z"/>
</g>
<g>
	<path class="st0" d="M273.6,24.7c-0.5,0.1-0.9,0.5-1.2,0.9c-0.2,0.5-0.4,1-0.3,1.5c0,0.7,0,1.3,0,2v6.4c-0.5,0.3-1,0.6-1.5,0.9
		c-2.1,1.1-4.4,1.8-6.7,2.3c-1.4,0.3-2.8,0.4-4.2,0.4c-2.5,0-5-0.3-7.5-1.1c-2-0.6-3.9-1.7-5.5-3.1c-1.5-1.4-2.7-3.1-3.4-5
		c-0.8-2.1-1.3-4.4-1.2-6.7c0-0.8,0.1-1.7,0.2-2.5c0.2-1,0.4-2,0.8-3c0.4-1.1,0.9-2.2,1.5-3.2c0.7-1.1,1.5-2.1,2.5-3
		c1.5-1.4,3.2-2.6,5.2-3.3c2.4-0.9,4.9-1.3,7.4-1.2c1.6,0,3.1,0.1,4.6,0.5c1.1,0.2,2.3,0.6,3.4,1c0.7,0.3,1.4,0.6,2.1,1
		c0.3,0.2,0.5,0.3,0.8,0.5c0,0,0.2-0.2,0.5-0.5l1-1.2h0.3v9.5h-0.5c-0.3-1.3-0.8-2.6-1.4-3.7c-0.6-1-1.2-2-2.1-2.9
		c-1-1-2.2-1.9-3.6-2.4c-1.5-0.6-3.2-0.9-4.9-0.9c-1.8,0-3.6,0.4-5.2,1.2c-1.5,0.9-2.9,2-3.9,3.4c-1.1,1.5-2,3.2-2.5,5
		c-0.6,1.9-0.9,3.9-0.9,5.9c0,2.1,0.3,4.2,0.8,6.2c0.5,1.8,1.3,3.4,2.4,4.8c1,1.3,2.3,2.4,3.8,3.1c1.6,0.8,3.4,1.1,5.2,1.1
		c1.3,0,2.7-0.2,3.9-0.7c1.2-0.5,2.2-1.3,2.8-2.3c0.3-0.6,0.5-1.3,0.5-2c0.1-1,0.2-2,0.2-3c0-0.9,0-1.8-0.1-2.7
		c-0.1-0.7-0.4-1.5-0.9-2c-1-0.9-2.2-1.4-3.5-1.4v-0.4h12.8v0.4C274.6,24.4,274.1,24.5,273.6,24.7z"/>
	<path class="st0" d="M295.1,38.9l-0.4-0.4l-0.3-0.3c-0.1-0.2-0.3-0.4-0.4-0.5l-0.7-1.1c-0.4-0.6-0.7-1.1-1-1.6
		c-0.3-0.5-0.6-0.9-0.9-1.4c-0.3-0.5-0.6-0.9-1-1.4c-0.4-0.5-0.8-1-1.2-1.6c-0.4-0.5-0.9-0.9-1.4-1.3c-0.4-0.4-1-0.7-1.5-0.8
		c-0.3-0.1-0.6-0.1-0.9-0.1h-0.7v3.4c0,1,0,1.8,0,2.5s0,1.2,0,1.7c0,0.4,0.1,0.9,0.3,1.2c0.3,0.3,0.6,0.6,1,0.8
		c0.6,0.3,1.3,0.5,2,0.5v0.3h-10v-0.3c0.5-0.1,1-0.2,1.5-0.4c0.4-0.1,0.8-0.4,1.1-0.7c0.1-0.2,0.2-0.4,0.2-0.6
		c0.1-0.3,0.1-0.6,0.1-0.8c0-0.3,0-0.6,0.1-1c0-0.4,0-0.7,0-1c0-0.3,0-0.7,0-1.2s0-1.1,0-1.6c0-0.6,0-1.2,0-1.8v-7.8
		c0-0.4,0-0.8,0-1.1c0-0.4,0-0.7,0-1.1c0-0.3-0.1-0.6-0.1-0.9c0-0.2-0.1-0.4-0.3-0.6c-0.3-0.3-0.6-0.5-1-0.7
		c-0.5-0.1-0.9-0.2-1.4-0.3v-0.3h8.5c1.4,0,2.6,0,3.7,0.1c1,0.1,2,0.4,3,0.8c0.9,0.4,1.7,1.1,2.3,1.9c0.6,0.9,0.9,2,0.8,3.1
		c0,0.7-0.1,1.4-0.4,2.1c-0.3,0.6-0.7,1.1-1.1,1.6c-0.5,0.5-1,0.9-1.6,1.2c-0.6,0.3-1.3,0.6-2,0.8v0.1c0.4,0.2,0.7,0.5,1,0.8
		c0.3,0.4,0.7,0.8,1,1.2l1.8,2.5l1.7,2.5c0.6,0.9,1.4,1.7,2.2,2.4c0.7,0.5,1.6,0.8,2.5,1v0.3L295.1,38.9z M292,19.5
		c-0.6-0.8-1.4-1.5-2.3-1.9c-0.5-0.2-1-0.4-1.6-0.5c-0.6-0.1-1.1-0.2-1.7-0.1c-0.4,0-0.8,0-1.1,0h-0.6c0,0.1,0,0.2,0,0.3
		c0,0.1,0,0.2,0,0.4c0,0.1,0,0.4,0,0.6v1.1c0,0.7,0,1.6,0,2.5c0,0.9,0,1.8,0,2.6v3.4c0.8,0,1.6,0,2.4-0.1c0.7-0.1,1.4-0.2,2.1-0.4
		c0.6-0.2,1.2-0.5,1.7-0.8c0.5-0.3,0.9-0.8,1.2-1.2c0.3-0.4,0.5-0.9,0.7-1.4c0.1-0.5,0.2-1.1,0.2-1.6C293,21.2,292.6,20.3,292,19.5
		L292,19.5z"/>
	<path class="st0" d="M323.7,32.1c-0.6,1.4-1.4,2.6-2.5,3.7c-1.1,1-2.3,1.9-3.7,2.4c-2.9,1.1-6.1,1.1-9,0c-1.4-0.5-2.7-1.3-3.7-2.3
		c-1.1-1-1.9-2.3-2.5-3.6c-0.6-1.5-0.9-3-0.9-4.6c0-1.7,0.3-3.3,1-4.8c0.6-1.4,1.5-2.6,2.6-3.6c1.1-1,2.4-1.8,3.8-2.3
		c1.5-0.5,3-0.8,4.6-0.8c1.6,0,3.2,0.3,4.7,0.9c1.3,0.6,2.6,1.4,3.6,2.5c1,1,1.7,2.3,2.2,3.6c0.5,1.4,0.8,2.8,0.8,4.3
		C324.6,29.1,324.3,30.7,323.7,32.1z M320.2,23.7c-0.3-1.2-0.8-2.4-1.5-3.5c-0.6-1-1.5-1.9-2.5-2.5c-1-0.7-2.2-1-3.4-1
		c-1.2,0-2.5,0.3-3.5,1c-1,0.6-1.9,1.5-2.5,2.5c-0.7,1.1-1.1,2.3-1.4,3.5c-0.3,1.3-0.4,2.6-0.4,4c0,1.4,0.2,2.7,0.5,4.1
		c0.3,1.2,0.8,2.4,1.5,3.4c0.6,1,1.5,1.8,2.5,2.4c1,0.6,2.2,0.9,3.4,0.9c1.2,0,2.4-0.3,3.4-1c1-0.7,1.8-1.5,2.4-2.6
		c0.7-1.1,1.1-2.3,1.4-3.5c0.3-1.3,0.5-2.6,0.5-3.9C320.7,26.2,320.5,24.9,320.2,23.7z"/>
	<path class="st0" d="M349.3,17.4c-0.5,0.3-0.8,0.8-1,1.3c-0.1,0.2-0.1,0.5-0.2,0.7c0,0.3-0.1,0.7-0.1,1.1c0,0.4-0.1,0.9-0.1,1.4
		c0,0.5,0,1,0,1.4c0,0.9,0,1.9-0.1,3s-0.1,2.3-0.1,3.7l-0.1,1.5c0,0.6-0.1,1.3-0.3,1.9c-0.2,0.7-0.4,1.4-0.8,2
		c-0.4,0.7-0.9,1.3-1.5,1.8c-0.7,0.6-1.6,1-2.5,1.2c-2.5,0.6-5.1,0.6-7.6,0c-0.9-0.3-1.7-0.7-2.5-1.2c-0.6-0.5-1.1-1.1-1.5-1.7
		c-0.3-0.6-0.6-1.2-0.8-1.9c-0.2-0.5-0.3-1.1-0.3-1.7c0-0.5,0-0.9,0-1.1c0-0.6,0-1.3,0-2.3c0-0.9,0-2,0-3.1v-5.2c0-0.4,0-0.7,0-1
		c0-0.3-0.1-0.6-0.1-0.9c0-0.2-0.1-0.4-0.3-0.6c-0.3-0.3-0.7-0.6-1.1-0.8c-0.5-0.2-0.9-0.3-1.4-0.3v-0.3h9.3v0.3
		c-0.3,0-0.6,0.1-0.9,0.2c-0.3,0.1-0.6,0.2-0.9,0.4c-0.3,0.2-0.5,0.4-0.7,0.7c-0.2,0.4-0.3,0.8-0.3,1.2c0,0.5,0,1,0,1.4
		c0,0.4,0,0.8,0,1.2v6.2c0,0.5,0,0.9,0,1.4s0,0.9,0,1.4c0,1,0.2,2,0.5,3c0.3,0.8,0.7,1.6,1.3,2.3c0.5,0.6,1.1,1,1.8,1.3
		c0.9,0.4,1.8,0.5,2.8,0.5c1,0,2-0.1,3-0.4c0.8-0.2,1.5-0.6,2.1-1.1c0.5-0.5,0.9-1,1.2-1.7c0.3-0.6,0.6-1.3,0.7-2
		c0.2-0.7,0.3-1.4,0.3-2.2c0-0.7,0.1-1.5,0.1-2.2v-5.3c0-0.4,0-0.8,0-1.2c0-0.4,0-0.8,0-1.2c0-0.4,0-0.8-0.1-1.1
		c0-0.3-0.1-0.6-0.2-0.8c-0.2-0.6-0.6-1.1-1.1-1.4c-0.7-0.4-1.5-0.7-2.3-0.8v-0.3h7.7v0.3C350.5,16.9,349.9,17,349.3,17.4z"/>
	<path class="st0" d="M370.8,25c-0.2,0.6-0.6,1.2-1,1.7c-0.4,0.5-0.9,0.9-1.4,1.2c-0.5,0.3-1.1,0.6-1.6,0.8
		c-0.6,0.2-1.2,0.4-1.9,0.5c-0.7,0.1-1.3,0.2-2,0.2c-0.7,0-1.3,0.1-2,0.1h-1.7v2.9c0,0.3,0,0.7,0,1c0,0.3,0,0.6,0,1
		c0,0.7,0,1.2,0,1.7c0,0.4,0.1,0.9,0.3,1.2c0.3,0.3,0.6,0.6,1,0.8c0.6,0.3,1.3,0.5,2,0.5V39h-10v-0.3c0.5-0.1,1-0.2,1.5-0.4
		c0.4-0.1,0.8-0.4,1.1-0.7c0.1-0.2,0.2-0.4,0.2-0.6c0.1-0.3,0.1-0.6,0.1-0.8c0-0.3,0-0.6,0.1-1s0-0.7,0-1c0-0.3,0-0.7,0-1.2
		c0-0.5,0-1.1,0-1.6c0-0.6,0-1.2,0-1.8v-7.9c0-0.4,0-0.8,0-1.1c0-0.4,0-0.7,0-1.1c0-0.3-0.1-0.6-0.1-0.9c0-0.2-0.1-0.4-0.3-0.6
		c-0.3-0.3-0.8-0.6-1.2-0.7c-0.5-0.1-1-0.2-1.6-0.3v-0.3h8.8c1.2,0,2.4,0.1,3.6,0.2c1,0.1,2.1,0.5,3,1c0.9,0.5,1.7,1.2,2.3,2.1
		c0.6,1,0.9,2.1,0.9,3.2C371.1,23.7,371,24.4,370.8,25z M366.9,19.6c-0.9-1.4-2.3-2.3-3.9-2.6c-0.6-0.1-1.2-0.1-1.7-0.1
		c-0.3,0-0.7,0-1,0l-0.6,0.1l-0.1,0.3c0,0.1-0.1,0.2-0.1,0.4c0,0.1,0,0.4-0.1,0.6c0,0.3,0,0.6,0,1.1c0,0.7,0,1.6,0,2.6
		c0,1,0,2.1,0,3v4c0.8,0,1.6,0,2.4-0.1c0.7,0,1.4-0.2,2.1-0.4c1.2-0.4,2.3-1.2,3-2.3c0.7-1,1.1-2.3,1.1-3.5
		C368,21.6,367.6,20.5,366.9,19.6L366.9,19.6z"/>
</g>
<polygon class="st0" points="0.8,0.3 0.8,0.6 376.4,0.6 376.4,44.9 1.6,44.9 1.6,0.3 0.8,0.3 0.8,0.6 0.8,0.3 0,0.3 0,45.5 
	378,45.5 378,0 0,0 0,0.3 "/>
<g class="st1">
	<path class="st2" d="M2.7,61.8l-0.1,0.7c0,0.8,0.3,1.3,0.8,1.6c0.2,0.1,0.4,0.1,0.7,0.1c0.3,0,0.5,0,0.7-0.1
		c0.2-0.1,0.4-0.2,0.5-0.3c0.3-0.3,0.4-0.6,0.4-1s-0.1-0.7-0.2-1c-0.2-0.3-0.4-0.6-0.6-0.9l-0.8-0.9c-0.6-0.7-1.1-1.4-1.3-2
		c-0.2-0.6-0.3-1.2-0.3-1.7c0-0.5,0.1-1,0.2-1.5c0.1-0.5,0.3-0.9,0.5-1.3c0.2-0.4,0.5-0.8,0.8-1.1c0.3-0.3,0.7-0.6,1.1-0.9
		c0.8-0.5,1.6-0.8,2.4-0.8s1.4,0.1,1.9,0.3c0.5,0.2,0.8,0.5,1.1,0.8c0.5,0.6,0.8,1.4,0.8,2.3c0,0.8-0.2,1.6-0.7,2.3
		c-0.4,0.7-0.9,1.1-1.5,1.3c-0.1,0.1-0.3,0.1-0.5,0.1c-0.2,0-0.4,0-0.5-0.1c-0.1-0.1-0.3-0.1-0.4-0.2c-0.2-0.2-0.3-0.5-0.3-0.7
		c0-0.2,0.1-0.3,0.2-0.4c0.5-0.3,0.9-0.6,1.3-1.2c0.4-0.5,0.6-1.1,0.6-1.6c0-0.5-0.1-0.9-0.4-1.2C8.8,52,8.4,51.9,8,51.9
		S7.1,52,6.7,52.2c-0.4,0.2-0.7,0.5-1,0.8c-0.6,0.8-0.9,1.7-0.9,2.7c0,0.7,0.2,1.4,0.7,2.2c0.2,0.3,0.4,0.7,0.7,1
		c0.2,0.3,0.5,0.6,0.7,1c0.5,0.8,0.7,1.5,0.7,2.1c0,0.6-0.1,1.1-0.3,1.6c-0.2,0.4-0.5,0.8-0.9,1.1c-0.8,0.7-1.7,1-2.8,1
		c-1,0-1.7-0.3-2.2-0.9c-0.4-0.5-0.6-1-0.6-1.5c0-0.6,0.2-1.1,0.5-1.5c0.3-0.3,0.5-0.5,0.7-0.5C2.5,61.2,2.7,61.3,2.7,61.8z"/>
	<path class="st2" d="M16.2,63c0.2,0,0.3,0.1,0.3,0.4c0,0.2-0.1,0.4-0.2,0.6c-0.2,0.4-0.5,0.7-1.1,1.1c-0.6,0.4-1.2,0.6-1.8,0.6
		c-1.1,0-1.7-0.5-2-1.4c-0.3-1.1,0.2-3.4,1.5-7c-0.8-0.1-1.2-0.2-1.2-0.4l0-0.2c0-0.1,0-0.1,0.1-0.2c0.1-0.1,0.1-0.2,0.2-0.3
		c0.2-0.2,0.5-0.3,0.7-0.3h0.8c0.7-1.6,1.2-2.6,1.5-2.8c0.1-0.1,0.3-0.2,0.5-0.2c0.2,0,0.3,0,0.4,0.1c0.1,0,0.2,0.1,0.3,0.2
		c0.2,0.2,0.3,0.4,0.3,0.6c0,0.1,0,0.3-0.1,0.4l-0.7,1.6H16c0.4,0,0.7,0,1,0l0.6,0c0.1,0,0.3,0,0.5,0c0.2,0,0.3,0.1,0.3,0.2
		c0,0.9-1,1.3-3.1,1.3h-0.1L14.4,59c-0.8,2-1.1,3.4-1.1,4.2c0,0.2,0.1,0.4,0.2,0.5c0.1,0.1,0.3,0.2,0.6,0.2c0.3,0,0.6,0,0.8-0.1
		c0.2-0.1,0.4-0.2,0.6-0.3c0.2-0.1,0.3-0.2,0.5-0.3C16,63.1,16.1,63,16.2,63z"/>
	<path class="st2" d="M17.8,65.3c-0.1-0.1-0.2-0.2-0.3-0.3c-0.1-0.1-0.1-0.2-0.1-0.3c0-0.1,0-0.2,0.1-0.3c0-0.1,0.1-0.3,0.2-0.5
		c1.3-3.2,2-5.4,2-6.5c0-0.3-0.1-0.5-0.3-0.7L19,56.6c-0.1,0-0.1-0.1-0.1-0.2c0-0.1,0-0.2,0.1-0.3c0.1-0.1,0.2-0.2,0.3-0.3
		c0.3-0.1,0.6-0.2,0.9-0.2c0.3,0,0.5,0,0.7,0.1c0.2,0.1,0.3,0.2,0.4,0.3c0.2,0.2,0.4,0.5,0.4,0.7c0,0.3,0,0.5-0.1,0.8
		c-0.1,0.3-0.1,0.5-0.2,0.8c-0.1,0.3-0.2,0.5-0.3,0.7c-0.1,0.2-0.1,0.4-0.2,0.5C21,59.7,21,59.8,21,59.9c0.2-0.1,0.3-0.3,0.3-0.4
		l0.4-0.7c0.8-1.5,1.7-2.5,2.5-3c0.2-0.1,0.5-0.2,0.9-0.2c0.3,0,0.6,0.1,0.8,0.3c0.2,0.2,0.3,0.5,0.3,0.8c0,0.3,0,0.5-0.1,0.7
		c0,0.2-0.1,0.4-0.2,0.5c-0.2,0.4-0.5,0.5-0.8,0.5l-0.2-0.1l-0.2-0.2c-0.2-0.2-0.4-0.3-0.6-0.3c-0.2,0-0.4,0.1-0.7,0.4
		c-0.3,0.3-0.6,0.6-0.9,1c-1,1.3-1.9,2.9-2.5,4.5l-0.4,1.1c-0.1,0.3-0.2,0.5-0.3,0.6c-0.1,0.1-0.2,0.2-0.4,0.2c-0.2,0-0.3,0-0.5-0.1
		C18.1,65.5,17.9,65.4,17.8,65.3z"/>
	<path class="st2" d="M33.5,63c0,0.6,0.2,0.9,0.6,0.9c0.3,0,0.5,0,0.7-0.1c0.2-0.1,0.3-0.1,0.4-0.1c0.1,0,0.2,0.1,0.2,0.2
		c0,0.6-0.3,1-0.9,1.4c-0.6,0.4-1.3,0.5-1.9,0.3c-0.4-0.1-0.7-0.5-0.9-1c-0.1-0.3-0.1-0.5-0.1-0.7c0-0.3,0-0.7,0.1-1.1
		c-0.6,1.2-1.4,2.1-2.3,2.5c-0.4,0.2-0.7,0.3-1.1,0.3c-0.4,0-0.8-0.1-1.1-0.2c-0.3-0.2-0.6-0.4-0.8-0.7c-0.4-0.6-0.6-1.4-0.6-2.3
		c0-1.1,0.4-2.3,1-3.4c0.6-1,1.4-1.9,2.3-2.5c0.9-0.7,1.8-1,2.6-1c0.8,0,1.4,0.4,1.9,1.1c0.5-0.7,0.9-1.1,1.2-1.1
		c0.4,0,0.7,0.1,0.8,0.2c0.4,0.3,0.5,0.5,0.4,0.7c-1.6,3.3-2.5,5.4-2.5,6.2C33.5,62.7,33.5,62.8,33.5,63z M28.1,63
		c0,0.8,0.3,1.2,0.8,1.2c0.4,0,0.9-0.3,1.4-1c0.8-0.9,1.6-2.2,2.2-3.8c0.2-0.5,0.4-1,0.5-1.5c0-0.4-0.2-0.8-0.6-1
		c-0.1-0.1-0.3-0.1-0.5-0.1c-0.2,0-0.5,0.1-0.8,0.3c-0.3,0.2-0.6,0.4-0.9,0.7c-0.3,0.3-0.6,0.6-0.8,1c-0.3,0.4-0.5,0.8-0.7,1.3
		C28.3,61,28.1,62,28.1,63z"/>
	<path class="st2" d="M42.6,63c0.2,0,0.3,0.1,0.3,0.4c0,0.2-0.1,0.4-0.2,0.6c-0.2,0.4-0.5,0.7-1.1,1.1c-0.6,0.4-1.2,0.6-1.8,0.6
		c-1.1,0-1.7-0.5-2-1.4c-0.3-1.1,0.2-3.4,1.5-7c-0.8-0.1-1.2-0.2-1.2-0.4l0-0.2c0-0.1,0-0.1,0.1-0.2c0.1-0.1,0.1-0.2,0.2-0.3
		c0.2-0.2,0.5-0.3,0.7-0.3h0.8c0.7-1.6,1.2-2.6,1.5-2.8c0.1-0.1,0.3-0.2,0.5-0.2s0.3,0,0.4,0.1c0.1,0,0.2,0.1,0.3,0.2
		c0.2,0.2,0.3,0.4,0.3,0.6c0,0.1,0,0.3-0.1,0.4l-0.7,1.6h0.2c0.4,0,0.7,0,1,0l0.6,0c0.1,0,0.3,0,0.5,0c0.2,0,0.3,0.1,0.3,0.2
		c0,0.9-1,1.3-3.1,1.3h-0.1L40.8,59c-0.8,2-1.1,3.4-1.1,4.2c0,0.2,0.1,0.4,0.2,0.5c0.1,0.1,0.3,0.2,0.6,0.2c0.3,0,0.6,0,0.8-0.1
		c0.2-0.1,0.4-0.2,0.6-0.3c0.2-0.1,0.3-0.2,0.5-0.3C42.4,63.1,42.5,63,42.6,63z"/>
	<path class="st2" d="M44.2,62.2c0-0.6,0.1-1.1,0.3-1.6c0.2-0.5,0.4-1,0.7-1.5c0.3-0.5,0.6-0.9,1-1.4c0.4-0.4,0.8-0.8,1.2-1.1
		c0.9-0.7,1.9-1,2.8-1c1.1,0,1.9,0.5,2.2,1.4c0.1,0.3,0.2,0.7,0.2,1.1c0,0.4-0.1,0.8-0.2,1.2c-0.2,0.4-0.4,0.7-0.7,1
		c-0.3,0.3-0.6,0.6-1,0.8c-0.4,0.2-0.8,0.4-1.3,0.6c-0.9,0.3-1.9,0.5-3,0.5c0,0.1,0,0.2,0,0.4c0,0.2,0,0.4,0.1,0.6
		c0,0.2,0.1,0.4,0.2,0.6c0.2,0.4,0.6,0.6,1,0.6c0.8,0,1.5-0.2,2.2-0.7c0.3-0.1,0.5-0.3,0.6-0.5c0.2-0.2,0.3-0.2,0.4-0.2
		c0.1,0,0.2,0.1,0.3,0.2c0.1,0.1,0.1,0.3,0.1,0.5c0,0.3-0.1,0.6-0.3,0.9c-0.8,0.8-2.1,1.2-3.7,1.2c-1,0-1.7-0.3-2.3-0.9
		C44.4,64.1,44.1,63.3,44.2,62.2z M49.9,56.8c-0.7,0-1.3,0.5-2,1.4c-0.5,0.8-1,1.7-1.3,2.8c1.1-0.1,2-0.5,2.9-1.3
		c0.7-0.7,1.1-1.4,1.1-2S50.4,56.8,49.9,56.8z"/>
	<path class="st2" d="M59.3,63.4c-1,1.5-2.1,2.2-3.3,2.2c-1.1,0-1.8-0.6-2.2-1.7c-0.1-0.4-0.2-0.9-0.2-1.4c0-0.6,0.1-1.1,0.3-1.7
		c0.2-0.6,0.4-1.1,0.7-1.6c0.3-0.5,0.6-1,1-1.4c0.4-0.4,0.8-0.8,1.3-1.1c0.9-0.7,1.9-1,2.8-1c0.9,0,1.6,0.4,2,1.3l0.2-0.3
		c0.1-0.1,0.1-0.2,0.2-0.2c0.2-0.2,0.3-0.3,0.4-0.3c0.1,0,0.3,0,0.4,0.1c0.1,0,0.3,0.1,0.4,0.2c0.3,0.2,0.4,0.4,0.4,0.5
		c-0.4,0.8-0.7,1.5-0.9,2.3l-1.5,4.6c-1.1,3.5-2.6,5.7-4.4,6.7c-0.5,0.3-0.9,0.4-1.2,0.5c-0.3,0-0.6,0-0.7,0c-0.2,0-0.3-0.1-0.4-0.2
		c-0.3-0.2-0.4-0.3-0.4-0.4c0-0.2,0.2-0.4,0.5-0.4c0.3-0.1,0.6-0.2,1-0.4c0.3-0.2,0.7-0.4,1-0.7C57.8,67.6,58.7,65.9,59.3,63.4z
		 M56.4,60.1c-0.2,0.5-0.3,0.9-0.4,1.4c-0.1,0.5-0.1,0.9-0.1,1.2c0,0.3,0,0.5,0,0.7c0,0.2,0.1,0.3,0.1,0.4c0.1,0.3,0.3,0.4,0.6,0.4
		s0.5-0.1,0.8-0.3c0.2-0.2,0.5-0.4,0.8-0.7c0.3-0.3,0.6-0.7,0.8-1.1c0.3-0.4,0.5-0.9,0.8-1.4c0.6-1.1,0.9-2.1,1.2-3.1
		c0-0.2-0.1-0.4-0.3-0.6c-0.4-0.4-0.7-0.5-1-0.5c-0.3,0-0.6,0.1-0.9,0.3c-0.3,0.2-0.6,0.4-0.9,0.7c-0.3,0.3-0.5,0.7-0.8,1.1
		C56.8,59.2,56.6,59.6,56.4,60.1z"/>
	<path class="st2" d="M67.5,63.7c0.2,0,0.3,0.1,0.3,0.3c0,0.3-0.1,0.6-0.4,0.9c-0.4,0.5-0.9,0.7-1.6,0.7c-0.8,0-1.3-0.3-1.6-0.9
		C64.1,64.5,64,64.3,64,64c0-0.3,0.1-0.6,0.2-1c0.1-0.4,0.2-0.8,0.4-1.2c0.2-0.4,0.3-0.8,0.5-1.2l0.5-1.2c0.4-0.9,0.6-1.5,0.6-1.8
		s0-0.5-0.1-0.6c-0.1-0.1-0.1-0.2-0.2-0.2l-0.2-0.1c-0.1,0-0.1-0.1-0.1-0.2c0-0.1,0-0.2,0.1-0.3c0.1-0.1,0.2-0.2,0.3-0.3
		c0.3-0.1,0.6-0.2,1-0.2c1,0,1.4,0.2,1.4,0.7c0,0.6-0.2,1.2-0.5,2c-0.3,0.7-0.6,1.3-0.8,1.8l-0.6,1.3c-0.4,1-0.6,1.7-0.6,2.1
		c0,0.3,0.1,0.4,0.4,0.4c0.3,0,0.5,0,0.6-0.1C67.3,63.8,67.4,63.7,67.5,63.7z M69.5,53.3c-0.1,0.2-0.3,0.3-0.5,0.4
		c-0.2,0.1-0.4,0.2-0.6,0.2c-0.2,0-0.4,0-0.6-0.1c-0.2-0.1-0.3-0.2-0.5-0.4c-0.3-0.3-0.4-0.6-0.4-1c0-0.3,0.1-0.6,0.2-0.7
		c0.1-0.2,0.2-0.3,0.4-0.4c0.3-0.2,0.6-0.3,0.9-0.3c0.3,0,0.5,0,0.6,0.1c0.2,0,0.3,0.1,0.4,0.2c0.3,0.2,0.5,0.5,0.5,0.8
		c0,0.3,0,0.6-0.1,0.8C69.8,52.9,69.6,53.1,69.5,53.3z"/>
	<path class="st2" d="M69.9,62.2c0-0.6,0.1-1.1,0.3-1.7c0.2-0.6,0.4-1.1,0.7-1.6c0.3-0.5,0.6-1,1-1.4c0.4-0.4,0.8-0.8,1.3-1.1
		c0.9-0.6,1.9-1,3-1c1.1,0,1.8,0.4,2.2,1.3c0.1,0.3,0.2,0.6,0.2,1c0,0.4-0.1,0.7-0.2,1.1c-0.1,0.3-0.3,0.6-0.4,0.9
		c-0.4,0.6-0.8,0.9-1.2,0.9c-0.5,0-0.8-0.1-1-0.4c-0.2-0.2-0.2-0.5-0.2-0.7c0-0.1,0.1-0.2,0.2-0.2c0.1-0.1,0.2-0.2,0.4-0.3
		c0.4-0.4,0.6-1,0.7-1.5c0-0.4-0.2-0.6-0.7-0.6c-0.6,0-1.1,0.3-1.7,0.9c-0.9,0.9-1.5,2-1.9,3.4c-0.3,1.2-0.3,2.1,0.2,2.6
		c0.3,0.3,0.6,0.5,1,0.5c0.7,0,1.5-0.3,2.1-0.8c0.2-0.2,0.4-0.3,0.5-0.5c0.1-0.2,0.3-0.3,0.4-0.3c0.1,0,0.2,0.1,0.3,0.2
		c0.1,0.1,0.1,0.2,0.1,0.4c0,0.4-0.2,0.8-0.5,1.1c-0.9,0.8-2,1.3-3.2,1.3c-1.1,0-1.9-0.3-2.5-0.9C70.2,64.2,69.9,63.3,69.9,62.2z"/>
	<path class="st2" d="M85.5,62.2c0-0.6,0.1-1.1,0.3-1.7c0.2-0.6,0.4-1.1,0.7-1.6c0.3-0.5,0.6-1,1-1.4c0.4-0.4,0.8-0.8,1.3-1.1
		c0.9-0.6,1.9-1,3-1c1.1,0,1.8,0.4,2.2,1.3c0.1,0.3,0.2,0.6,0.2,1c0,0.4-0.1,0.7-0.2,1.1c-0.1,0.3-0.3,0.6-0.4,0.9
		c-0.4,0.6-0.8,0.9-1.2,0.9c-0.5,0-0.8-0.1-1-0.4C91,60,90.9,59.8,91,59.5c0-0.1,0.1-0.2,0.2-0.2c0.1-0.1,0.2-0.2,0.4-0.3
		c0.4-0.4,0.6-1,0.7-1.5c0-0.4-0.2-0.6-0.7-0.6c-0.6,0-1.1,0.3-1.7,0.9c-0.9,0.9-1.5,2-1.9,3.4c-0.3,1.2-0.3,2.1,0.2,2.6
		c0.3,0.3,0.6,0.5,1,0.5c0.7,0,1.5-0.3,2.1-0.8c0.2-0.2,0.4-0.3,0.5-0.5c0.1-0.2,0.3-0.3,0.4-0.3s0.2,0.1,0.3,0.2
		c0.1,0.1,0.1,0.2,0.1,0.4c0,0.4-0.2,0.8-0.5,1.1c-0.9,0.8-2,1.3-3.2,1.3c-1.1,0-1.9-0.3-2.5-0.9C85.7,64.2,85.4,63.3,85.5,62.2z"/>
	<path class="st2" d="M95.8,64.9c-0.3-0.3-0.5-0.6-0.6-1c-0.2-0.4-0.2-0.9-0.2-1.4c0-0.5,0.1-1.1,0.2-1.6c0.1-0.6,0.3-1.1,0.6-1.6
		c0.3-0.5,0.6-1,0.9-1.4c0.4-0.5,0.8-0.8,1.2-1.2c1-0.7,2-1.1,3-1.1c1.4,0,2.3,0.6,2.7,1.7c0.3,0.8,0.4,1.9,0.1,3.1
		c-0.3,1.1-0.8,2.1-1.5,3c-0.7,0.9-1.6,1.6-2.6,2c-0.5,0.2-1,0.3-1.5,0.3c-0.5,0-0.9-0.1-1.3-0.2C96.4,65.3,96.1,65.1,95.8,64.9z
		 M97.7,60.2c-0.2,0.5-0.4,1-0.5,1.5c-0.1,0.5-0.2,1-0.2,1.4c0,0.4,0.1,0.8,0.2,1.1c0.1,0.3,0.4,0.4,0.7,0.4s0.6-0.1,0.9-0.3
		c0.3-0.2,0.6-0.5,0.8-0.8c0.3-0.3,0.5-0.7,0.8-1.2c0.2-0.4,0.5-0.9,0.6-1.4c0.4-1,0.6-2,0.6-2.8c0-0.7-0.1-1.2-0.4-1.4
		c-0.1-0.1-0.3-0.1-0.5-0.1c-0.2,0-0.5,0.1-0.7,0.3c-0.3,0.2-0.6,0.4-0.8,0.8c-0.3,0.3-0.5,0.7-0.8,1.1
		C98.1,59.3,97.9,59.7,97.7,60.2z"/>
	<path class="st2" d="M112.8,63c0,0.6,0.2,0.9,0.6,0.9c0.3,0,0.5,0,0.7-0.1c0.2-0.1,0.3-0.1,0.4-0.1c0.1,0,0.2,0.1,0.2,0.2
		c0,0.6-0.3,1-0.9,1.4c-0.6,0.4-1.3,0.5-1.9,0.3c-0.4-0.1-0.7-0.5-0.9-1c-0.1-0.3-0.1-0.5-0.1-0.7c0-0.3,0-0.7,0.1-1.1
		c-0.6,1.2-1.4,2.1-2.3,2.5c-0.4,0.2-0.7,0.3-1.1,0.3c-0.4,0-0.8-0.1-1.1-0.2c-0.3-0.2-0.6-0.4-0.8-0.7c-0.4-0.6-0.6-1.4-0.6-2.3
		c0-1.1,0.4-2.3,1-3.4c0.6-1,1.4-1.9,2.3-2.5c0.9-0.7,1.8-1,2.6-1c0.8,0,1.4,0.4,1.9,1.1c0.5-0.7,0.9-1.1,1.2-1.1
		c0.4,0,0.7,0.1,0.8,0.2c0.4,0.3,0.5,0.5,0.4,0.7c-1.6,3.3-2.5,5.4-2.5,6.2C112.8,62.7,112.8,62.8,112.8,63z M107.4,63
		c0,0.8,0.3,1.2,0.8,1.2c0.4,0,0.9-0.3,1.4-1c0.8-0.9,1.6-2.2,2.2-3.8c0.2-0.5,0.4-1,0.5-1.5c0-0.4-0.2-0.8-0.6-1
		c-0.1-0.1-0.3-0.1-0.5-0.1c-0.2,0-0.5,0.1-0.8,0.3c-0.3,0.2-0.6,0.4-0.9,0.7c-0.3,0.3-0.6,0.6-0.8,1c-0.3,0.4-0.5,0.8-0.7,1.3
		C107.6,61,107.4,62,107.4,63z"/>
	<path class="st2" d="M116.1,62.2c0-0.6,0.1-1.1,0.3-1.7c0.2-0.6,0.4-1.1,0.7-1.6c0.3-0.5,0.6-1,1-1.4c0.4-0.4,0.8-0.8,1.3-1.1
		c0.9-0.6,1.9-1,3-1c1.1,0,1.8,0.4,2.2,1.3c0.1,0.3,0.2,0.6,0.2,1c0,0.4-0.1,0.7-0.2,1.1c-0.1,0.3-0.3,0.6-0.4,0.9
		c-0.4,0.6-0.8,0.9-1.2,0.9c-0.5,0-0.8-0.1-1-0.4c-0.2-0.2-0.2-0.5-0.2-0.7c0-0.1,0.1-0.2,0.2-0.2c0.1-0.1,0.2-0.2,0.4-0.3
		c0.4-0.4,0.6-1,0.7-1.5c0-0.4-0.2-0.6-0.7-0.6c-0.5,0-1.1,0.3-1.7,0.9c-0.9,0.9-1.5,2-1.9,3.4c-0.3,1.2-0.3,2.1,0.2,2.6
		c0.3,0.3,0.6,0.5,1,0.5c0.7,0,1.5-0.3,2.1-0.8c0.2-0.2,0.4-0.3,0.5-0.5c0.1-0.2,0.3-0.3,0.4-0.3c0.1,0,0.2,0.1,0.3,0.2
		c0.1,0.1,0.1,0.2,0.1,0.4c0,0.4-0.2,0.8-0.5,1.1c-0.9,0.8-2,1.3-3.2,1.3c-1.1,0-1.9-0.3-2.5-0.9C116.3,64.2,116.1,63.3,116.1,62.2z
		"/>
	<path class="st2" d="M132.6,57.4c-0.4,0-1,0.5-1.9,1.6l-0.8,1l-1.6,2c-0.4,0.7-0.7,1.3-0.9,1.8l-0.5,1.1c-0.1,0.3-0.3,0.5-0.4,0.6
		c-0.1,0.1-0.2,0.2-0.4,0.2c-0.2,0-0.3,0-0.5-0.1c-0.2-0.1-0.3-0.1-0.4-0.2c-0.2-0.2-0.4-0.4-0.4-0.7c0-0.1,0.1-0.3,0.2-0.6l0.4-0.8
		c1.2-2.5,2.3-5.6,3.3-9.4c0.4-1.4,0.6-2.7,0.8-3.8c0.1-0.5,0.3-0.8,0.8-0.8c0.3,0,0.6,0.1,0.7,0.2c0.4,0.3,0.6,0.6,0.5,0.9
		c0,0.3-0.1,0.7-0.1,1.1c-0.1,0.4-0.2,0.8-0.3,1.3c-0.1,0.5-0.3,0.9-0.4,1.5c-0.4,1.3-0.8,2.2-1,2.8c-0.6,1.7-1,2.7-1.2,3
		c0.1-0.1,0.2-0.3,0.4-0.5c1.2-1.5,1.9-2.5,2.2-2.8c0.3-0.3,0.5-0.5,0.7-0.7c0.4-0.4,0.9-0.5,1.6-0.5c0.5,0,0.9,0.2,1.2,0.5
		c0.3,0.3,0.4,0.7,0.4,1.1c0,0.4,0,0.7-0.1,1.1c-0.1,0.3-0.2,0.6-0.3,1c-0.1,0.3-0.3,0.7-0.5,1l-0.5,1c-0.5,1-0.7,1.8-0.7,2.3
		c0,0.3,0.1,0.5,0.4,0.5c0.3,0,0.5-0.1,0.8-0.2c0.2-0.1,0.4-0.2,0.4-0.2c0.1,0,0.2,0.1,0.2,0.2c0,0.6-0.3,1.1-0.9,1.4
		c-0.4,0.3-0.8,0.4-1.1,0.4c-0.3,0-0.6,0-0.8-0.1c-0.2-0.1-0.4-0.2-0.6-0.3c-0.4-0.3-0.6-0.9-0.6-1.5c0-0.7,0.2-1.6,0.7-2.7l1.1-2.2
		c0.2-0.4,0.3-0.7,0.3-1C133,57.5,132.9,57.4,132.6,57.4z"/>
	<path class="st2" d="M140,63.7c0.2,0,0.3,0.1,0.3,0.3c0,0.3-0.1,0.6-0.4,0.9c-0.4,0.5-0.9,0.7-1.6,0.7c-0.8,0-1.3-0.3-1.6-0.9
		c-0.1-0.2-0.2-0.5-0.2-0.8c0-0.3,0.1-0.6,0.2-1c0.1-0.4,0.2-0.8,0.4-1.2c0.2-0.4,0.3-0.8,0.5-1.2l0.5-1.2c0.4-0.9,0.6-1.5,0.6-1.8
		s0-0.5-0.1-0.6c-0.1-0.1-0.1-0.2-0.2-0.2l-0.2-0.1c-0.1,0-0.1-0.1-0.1-0.2c0-0.1,0-0.2,0.1-0.3c0.1-0.1,0.2-0.2,0.3-0.3
		c0.3-0.1,0.6-0.2,1-0.2c1,0,1.4,0.2,1.4,0.7c0,0.6-0.2,1.2-0.5,2c-0.3,0.7-0.6,1.3-0.8,1.8l-0.6,1.3c-0.4,1-0.6,1.7-0.6,2.1
		c0,0.3,0.1,0.4,0.4,0.4c0.3,0,0.5,0,0.6-0.1C139.8,63.8,139.9,63.7,140,63.7z M142,53.3c-0.1,0.2-0.3,0.3-0.5,0.4
		c-0.2,0.1-0.4,0.2-0.6,0.2c-0.2,0-0.4,0-0.6-0.1c-0.2-0.1-0.3-0.2-0.5-0.4c-0.3-0.3-0.4-0.6-0.4-1c0-0.3,0.1-0.6,0.2-0.7
		c0.1-0.2,0.2-0.3,0.4-0.4c0.3-0.2,0.6-0.3,0.9-0.3c0.3,0,0.5,0,0.6,0.1c0.2,0,0.3,0.1,0.4,0.2c0.3,0.2,0.5,0.5,0.5,0.8
		c0,0.3,0,0.6-0.1,0.8C142.2,52.9,142.1,53.1,142,53.3z"/>
	<path class="st2" d="M149.5,57.4c-0.2,0-0.5,0.2-0.9,0.6c-0.4,0.4-0.7,0.7-1,1l-0.8,1l-1.6,2c-0.4,0.7-0.7,1.3-0.9,1.8l-0.5,1.1
		c-0.1,0.3-0.3,0.5-0.4,0.6c-0.1,0.1-0.2,0.2-0.4,0.2c-0.2,0-0.3,0-0.5-0.1c-0.2-0.1-0.3-0.1-0.4-0.2c-0.2-0.2-0.4-0.4-0.4-0.7
		c0-0.1,0.1-0.3,0.2-0.6l0.4-0.8c0.1-0.2,0.3-0.5,0.4-0.9l0.6-1.3c0.8-1.9,1.2-3.1,1.2-3.7c0-0.3-0.1-0.5-0.3-0.7l-0.2-0.1
		c-0.1,0-0.1-0.1-0.1-0.2c0-0.1,0-0.2,0.1-0.3c0.1-0.1,0.2-0.2,0.3-0.3c0.3-0.1,0.6-0.2,0.9-0.2c0.3,0,0.5,0,0.7,0.1
		c0.2,0.1,0.3,0.2,0.4,0.3c0.2,0.2,0.4,0.5,0.4,0.7c0,0.2,0,0.5-0.1,0.7c-0.1,0.2-0.1,0.5-0.2,0.8c-0.1,0.3-0.2,0.5-0.3,0.7
		c-0.1,0.2-0.2,0.5-0.3,0.6l-0.2,0.4c-0.1,0.1-0.1,0.1,0,0.1c0.7-1,1.2-1.6,1.4-1.9l0.7-0.8c0.5-0.6,0.9-1,1.2-1.2
		c0.6-0.4,1-0.6,1.4-0.6c0.3,0,0.6,0,0.8,0.1c0.2,0.1,0.4,0.2,0.6,0.4c0.4,0.3,0.5,0.7,0.5,1.3c0,0.5-0.1,1-0.4,1.6
		c-0.2,0.6-0.4,1-0.6,1.3c-0.2,0.3-0.3,0.7-0.5,1c-0.5,1.1-0.7,1.9-0.7,2.3c0,0.2,0.2,0.3,0.5,0.3c0.3,0,0.5-0.1,0.8-0.2
		c0.2-0.1,0.4-0.2,0.4-0.2c0.1,0,0.2,0.1,0.2,0.2c0,0.6-0.3,1.1-0.9,1.4c-0.4,0.3-0.8,0.4-1.1,0.4c-0.3,0-0.6,0-0.8-0.1
		c-0.2-0.1-0.4-0.2-0.6-0.3c-0.4-0.3-0.6-0.8-0.6-1.4c0-0.7,0.2-1.7,0.7-2.8c0.3-0.8,0.6-1.3,0.7-1.6l0.3-0.7c0.2-0.4,0.3-0.7,0.3-1
		C150.1,57.5,149.9,57.4,149.5,57.4z"/>
	<path class="st2" d="M159.5,63.4c-1,1.5-2.1,2.2-3.3,2.2c-1.1,0-1.8-0.6-2.2-1.7c-0.1-0.4-0.2-0.9-0.2-1.4c0-0.6,0.1-1.1,0.3-1.7
		c0.2-0.6,0.4-1.1,0.7-1.6c0.3-0.5,0.6-1,1-1.4c0.4-0.4,0.8-0.8,1.3-1.1c0.9-0.7,1.9-1,2.8-1c0.9,0,1.6,0.4,2,1.3l0.2-0.3
		c0.1-0.1,0.1-0.2,0.2-0.2c0.2-0.2,0.3-0.3,0.4-0.3c0.1,0,0.3,0,0.4,0.1c0.1,0,0.3,0.1,0.4,0.2c0.3,0.2,0.4,0.4,0.4,0.5
		c-0.4,0.8-0.7,1.5-0.9,2.3l-1.5,4.6c-1.1,3.5-2.6,5.7-4.4,6.7c-0.5,0.3-0.9,0.4-1.2,0.5c-0.3,0-0.6,0-0.7,0c-0.2,0-0.3-0.1-0.4-0.2
		c-0.3-0.2-0.4-0.3-0.4-0.4c0-0.2,0.1-0.4,0.5-0.4c0.3-0.1,0.6-0.2,1-0.4c0.3-0.2,0.7-0.4,1-0.7C157.9,67.6,158.9,65.9,159.5,63.4z
		 M156.5,60.1c-0.2,0.5-0.3,0.9-0.4,1.4c-0.1,0.5-0.1,0.9-0.1,1.2c0,0.3,0,0.5,0,0.7c0,0.2,0.1,0.3,0.1,0.4c0.1,0.3,0.3,0.4,0.6,0.4
		s0.5-0.1,0.8-0.3c0.2-0.2,0.5-0.4,0.8-0.7c0.3-0.3,0.6-0.7,0.8-1.1c0.3-0.4,0.5-0.9,0.8-1.4c0.6-1.1,0.9-2.1,1.2-3.1
		c0-0.2-0.1-0.4-0.3-0.6c-0.4-0.4-0.7-0.5-1-0.5c-0.3,0-0.6,0.1-0.9,0.3c-0.3,0.2-0.6,0.4-0.9,0.7c-0.3,0.3-0.5,0.7-0.8,1.1
		C156.9,59.2,156.7,59.6,156.5,60.1z"/>
	<path class="st2" d="M165.3,67.8c-0.3,0.2-0.5,0.3-0.8,0.4c-0.2,0.1-0.5,0.2-0.7,0.2c-0.2,0-0.3-0.1-0.3-0.2s0.1-0.3,0.2-0.4
		l0.5-0.5c0.6-0.6,0.9-1.1,0.9-1.6c0-0.4-0.1-0.8-0.4-1.3c-0.1-0.2-0.2-0.3-0.2-0.4c-0.1-0.1-0.1-0.3,0-0.5c0.1-0.2,0.3-0.4,0.5-0.5
		c0.3-0.1,0.5-0.2,0.8-0.2c0.3,0,0.5,0,0.7,0.1c0.2,0.1,0.3,0.2,0.5,0.3c0.2,0.3,0.4,0.6,0.4,1c0,0.4-0.1,0.8-0.2,1.1
		c-0.1,0.3-0.3,0.6-0.5,0.9c-0.2,0.3-0.4,0.6-0.7,0.8C165.8,67.4,165.6,67.6,165.3,67.8z"/>
	<path class="st2" d="M174.6,64.6c0,0.1-0.2,0.6-0.4,1.5c-0.3,0.9-0.5,1.7-0.7,2.2c-0.4,1.2-0.8,2-1,2.3c-0.2,0.2-0.5,0.3-0.8,0.3
		c-0.4,0-0.7-0.2-0.9-0.5c-0.1-0.1-0.1-0.2-0.1-0.3c0-0.1,0.1-0.4,0.3-0.8c0.5-1.1,1.2-3.2,2.1-6.3c0.3-1.2,0.6-2.1,0.7-2.5l0.3-1.2
		c0.2-0.8,0.3-1.3,0.4-1.6c0-0.3,0-0.5-0.1-0.6c-0.1-0.1-0.2-0.2-0.2-0.3c-0.1-0.1-0.2-0.1-0.3-0.2c-0.1,0-0.1-0.1-0.1-0.2
		c0-0.1,0.1-0.2,0.2-0.3c0.1-0.1,0.2-0.2,0.4-0.3c0.3-0.1,0.6-0.2,0.9-0.2c0.3,0,0.5,0,0.7,0.1c0.2,0.1,0.3,0.2,0.4,0.3
		c0.2,0.3,0.3,0.5,0.3,0.7c-0.1,0.5-0.1,0.9-0.2,1.3c1.1-1.6,2.3-2.4,3.6-2.4c1.1,0,1.9,0.6,2.3,1.7c0.1,0.4,0.2,0.9,0.2,1.5
		c0,0.6-0.1,1.1-0.3,1.7c-0.2,0.6-0.4,1.1-0.7,1.6c-0.3,0.5-0.7,1-1.1,1.4c-0.4,0.4-0.8,0.8-1.3,1.1c-0.9,0.7-1.8,1-2.7,1
		C175.7,65.6,175.1,65.3,174.6,64.6z M176.2,60.5c-0.2,0.5-0.4,0.9-0.6,1.4c-0.1,0.5-0.2,0.9-0.2,1.2c0,0.4,0.1,0.7,0.2,0.9
		c0.2,0.2,0.4,0.4,0.7,0.4c0.3,0,0.6-0.1,1-0.3c0.3-0.2,0.6-0.4,0.9-0.7c0.3-0.3,0.6-0.6,0.8-1c0.3-0.4,0.5-0.8,0.7-1.2
		c0.4-1,0.6-1.9,0.6-2.7c0-0.5-0.1-0.8-0.2-1.1c-0.1-0.3-0.3-0.4-0.6-0.4c-0.3,0-0.5,0.1-0.8,0.3c-0.3,0.2-0.6,0.5-0.9,0.8
		c-0.3,0.3-0.6,0.7-0.9,1.1C176.7,59.6,176.4,60,176.2,60.5z"/>
	<path class="st2" d="M184.9,64.8c-0.3-0.3-0.5-0.6-0.6-1c-0.2-0.4-0.2-0.9-0.2-1.4c0-0.5,0.1-1.1,0.2-1.6c0.1-0.6,0.3-1.1,0.6-1.6
		c0.3-0.5,0.6-1,0.9-1.4c0.4-0.5,0.8-0.8,1.2-1.2c1-0.7,2-1.1,3-1.1c1.3,0,2.3,0.6,2.7,1.7c0.3,0.8,0.4,1.9,0.1,3.1
		c-0.3,1.1-0.8,2.1-1.5,3c-0.7,0.9-1.6,1.6-2.6,2c-0.5,0.2-1,0.3-1.5,0.3c-0.5,0-0.9-0.1-1.3-0.2C185.5,65.3,185.2,65.1,184.9,64.8z
		 M186.8,60.2c-0.2,0.5-0.4,1-0.5,1.5c-0.1,0.5-0.2,1-0.2,1.4c0,0.4,0.1,0.8,0.2,1.1c0.1,0.3,0.4,0.4,0.7,0.4c0.3,0,0.6-0.1,0.9-0.3
		c0.3-0.2,0.6-0.5,0.8-0.8c0.3-0.3,0.5-0.7,0.8-1.2c0.2-0.4,0.5-0.9,0.6-1.4c0.4-1,0.6-2,0.6-2.8c0-0.7-0.1-1.2-0.4-1.4
		c-0.1-0.1-0.3-0.1-0.5-0.1c-0.2,0-0.5,0.1-0.7,0.3c-0.3,0.2-0.5,0.4-0.8,0.8c-0.3,0.3-0.5,0.7-0.8,1.1
		C187.2,59.2,187,59.7,186.8,60.2z"/>
	<path class="st2" d="M197.6,64.4c-0.9,0.8-1.6,1.2-2.1,1.2c-0.5,0-0.9-0.3-1.1-0.8c-0.1-0.2-0.1-0.3-0.1-0.5c0-0.4,0.1-0.8,0.2-1.2
		c0.1-0.4,0.3-0.8,0.4-1.1l0.9-2.2c0.3-0.9,0.5-1.5,0.6-1.9c0.1-0.4,0.1-0.6,0-0.7c-0.1-0.1-0.2-0.2-0.3-0.3
		c-0.1-0.1-0.2-0.2-0.3-0.3c-0.1-0.1-0.2-0.2-0.2-0.3c0-0.1,0-0.2,0.1-0.3c0.1-0.1,0.2-0.2,0.4-0.3c0.3-0.1,0.6-0.2,1-0.2
		c0.3,0,0.6,0,0.8,0.1c0.2,0.1,0.4,0.2,0.5,0.3c0.2,0.2,0.4,0.5,0.4,0.8c0,0.3-0.1,0.6-0.2,1c-0.1,0.4-0.2,0.8-0.4,1.2
		c-0.2,0.4-0.3,0.9-0.5,1.3l-0.5,1.3c-0.4,1.1-0.7,1.9-0.8,2.4c0.6-0.2,1.4-0.9,2.4-2.2c1.1-1.4,2.1-3,2.9-4.8
		c0.1-0.2,0.2-0.4,0.4-0.4c0.2-0.1,0.5-0.2,0.9-0.1c0.6,0,0.9,0.2,0.9,0.5c0,0.2,0,0.4-0.2,0.7c-0.1,0.2-0.2,0.4-0.3,0.6l-0.4,0.8
		c-0.8,1.5-1.1,2.8-1.1,3.7c0,0.7,0.2,1.1,0.6,1.4c0.1,0.1,0.3,0.1,0.5,0.1c0.2,0,0.5-0.1,0.8-0.2c0.3-0.2,0.6-0.4,0.8-0.6
		c0.3-0.3,0.5-0.6,0.8-0.9c0.2-0.4,0.4-0.7,0.6-1.1c0.4-0.8,0.5-1.6,0.5-2.2c0-1.1-0.2-1.9-0.6-2.5c-0.1-0.2-0.1-0.4,0.1-0.6
		c0.2-0.2,0.6-0.4,1.1-0.4c0.6,0,1.1,0.4,1.3,1.1c0.1,0.3,0.1,0.7,0.1,1.2c0,0.5-0.1,1.1-0.3,1.8c-0.2,0.6-0.4,1.3-0.8,1.9
		c-0.3,0.6-0.7,1.2-1.1,1.7c-0.4,0.5-0.9,1-1.3,1.3c-1,0.8-1.9,1.2-2.8,1.2c-1.5,0-2.2-0.9-2.2-2.8c0-0.4,0-0.8,0.1-1.2
		C199.3,62.7,198.5,63.6,197.6,64.4z"/>
	<path class="st2" d="M209.5,62.1c0-0.6,0.1-1.1,0.3-1.6c0.2-0.5,0.4-1,0.7-1.5c0.3-0.5,0.6-0.9,1-1.4c0.4-0.4,0.8-0.8,1.2-1.1
		c0.9-0.7,1.9-1,2.8-1c1.1,0,1.9,0.5,2.2,1.4c0.1,0.3,0.2,0.7,0.2,1.1c0,0.4-0.1,0.8-0.2,1.2c-0.2,0.4-0.4,0.7-0.7,1
		c-0.3,0.3-0.6,0.6-1,0.8c-0.4,0.2-0.8,0.4-1.3,0.6c-0.9,0.3-1.9,0.5-3,0.5c0,0.1,0,0.2-0.1,0.4c0,0.2,0,0.4,0.1,0.6
		c0,0.2,0.1,0.4,0.2,0.6c0.2,0.4,0.6,0.6,1,0.6c0.8,0,1.5-0.2,2.2-0.7c0.3-0.1,0.5-0.3,0.6-0.5c0.2-0.2,0.3-0.2,0.4-0.2
		c0.1,0,0.2,0.1,0.3,0.2c0.1,0.1,0.1,0.3,0.1,0.5c0,0.3-0.1,0.6-0.3,0.9c-0.8,0.8-2.1,1.2-3.7,1.2c-1,0-1.7-0.3-2.3-0.9
		C209.8,64.1,209.5,63.2,209.5,62.1z M215.3,56.8c-0.7,0-1.4,0.5-2,1.4c-0.5,0.8-1,1.7-1.3,2.8c1.1-0.1,2-0.5,2.9-1.3
		c0.7-0.7,1.1-1.4,1.1-2S215.7,56.8,215.3,56.8z"/>
	<path class="st2" d="M219,65.3c-0.1-0.1-0.2-0.2-0.3-0.3c-0.1-0.1-0.1-0.2-0.1-0.3c0-0.1,0-0.2,0.1-0.3c0-0.1,0.1-0.3,0.2-0.5
		c1.3-3.2,2-5.4,2-6.5c0-0.3-0.1-0.5-0.3-0.7l-0.2-0.1c-0.1,0-0.1-0.1-0.1-0.2c0-0.1,0-0.2,0.1-0.3c0.1-0.1,0.2-0.2,0.3-0.3
		c0.3-0.1,0.6-0.2,0.9-0.2c0.3,0,0.5,0,0.7,0.1c0.2,0.1,0.3,0.2,0.4,0.3c0.2,0.2,0.4,0.5,0.4,0.7c0,0.3,0,0.5-0.1,0.8
		c-0.1,0.3-0.1,0.5-0.2,0.8c-0.1,0.3-0.2,0.5-0.3,0.7c-0.1,0.2-0.1,0.4-0.2,0.5c-0.1,0.2-0.1,0.4-0.1,0.4c0.2-0.1,0.3-0.3,0.3-0.4
		l0.4-0.7c0.8-1.5,1.7-2.5,2.5-3c0.2-0.1,0.5-0.2,0.9-0.2c0.3,0,0.6,0.1,0.8,0.3c0.2,0.2,0.3,0.5,0.3,0.8c0,0.3,0,0.5-0.1,0.7
		c-0.1,0.2-0.1,0.4-0.2,0.5c-0.2,0.4-0.5,0.5-0.8,0.5l-0.2-0.1l-0.2-0.2c-0.2-0.2-0.4-0.3-0.6-0.3c-0.2,0-0.4,0.1-0.7,0.4
		c-0.3,0.3-0.6,0.6-0.9,1c-1,1.3-1.9,2.9-2.5,4.5l-0.4,1.1c-0.1,0.3-0.2,0.5-0.3,0.6c-0.1,0.1-0.2,0.2-0.4,0.2c-0.2,0-0.3,0-0.5-0.1
		C219.3,65.4,219.1,65.4,219,65.3z"/>
	<path class="st2" d="M227.2,62.1c0-0.6,0.1-1.1,0.3-1.6c0.2-0.5,0.4-1,0.7-1.5c0.3-0.5,0.6-0.9,1-1.4c0.4-0.4,0.8-0.8,1.2-1.1
		c0.9-0.7,1.9-1,2.8-1c1.1,0,1.9,0.5,2.2,1.4c0.1,0.3,0.2,0.7,0.2,1.1c0,0.4-0.1,0.8-0.2,1.2c-0.2,0.4-0.4,0.7-0.7,1
		c-0.3,0.3-0.6,0.6-1,0.8c-0.4,0.2-0.8,0.4-1.3,0.6c-0.9,0.3-1.9,0.5-3,0.5c0,0.1,0,0.2,0,0.4c0,0.2,0,0.4,0.1,0.6
		c0,0.2,0.1,0.4,0.2,0.6c0.2,0.4,0.6,0.6,1,0.6c0.8,0,1.5-0.2,2.2-0.7c0.3-0.1,0.5-0.3,0.6-0.5c0.2-0.2,0.3-0.2,0.4-0.2
		c0.1,0,0.2,0.1,0.3,0.2c0.1,0.1,0.1,0.3,0.1,0.5c0,0.3-0.1,0.6-0.3,0.9c-0.8,0.8-2.1,1.2-3.7,1.2c-1,0-1.7-0.3-2.3-0.9
		C227.5,64.1,227.2,63.2,227.2,62.1z M233,56.8c-0.7,0-1.3,0.5-2,1.4c-0.5,0.8-1,1.7-1.3,2.8c1.1-0.1,2-0.5,2.9-1.3
		c0.7-0.7,1.1-1.4,1.1-2S233.4,56.8,233,56.8z"/>
	<path class="st2" d="M246.5,63.5c0.1,0,0.2,0.1,0.2,0.2c0,0.6-0.3,1-0.9,1.4c-0.4,0.3-0.8,0.4-1.1,0.4c-0.3,0-0.6,0-0.8-0.1
		c-0.2-0.1-0.4-0.2-0.6-0.4c-0.4-0.4-0.6-0.9-0.6-1.6c0-0.1,0-0.4,0.1-0.6c-0.5,0.8-1,1.4-1.4,1.7c-0.8,0.7-1.5,1-2.3,1
		c-1.2,0-1.9-0.5-2.3-1.5c-0.1-0.4-0.2-0.9-0.2-1.4c0-0.6,0.1-1.2,0.3-1.7c0.2-0.6,0.4-1.1,0.7-1.7c0.3-0.5,0.7-1,1.1-1.5
		c0.4-0.5,0.8-0.8,1.3-1.2c1-0.7,1.8-1.1,2.6-1.1c0.8,0,1.4,0.3,1.9,0.9c1.1-3.8,2-6.1,2.6-6.8c0.2-0.3,0.5-0.4,0.8-0.4
		c0.4,0,0.8,0.1,1,0.4l0.1,0.3c0,0.1-0.1,0.2-0.2,0.5c-0.1,0.2-0.3,0.6-0.5,1.1c-0.6,1.5-1,2.6-1.2,3.3c-0.6,1.8-1,3-1.2,3.7
		l-0.5,1.8c-0.5,1.6-0.7,2.6-0.7,3c0,0.4,0.2,0.6,0.5,0.6c0.3,0,0.5,0,0.7-0.1l0.4-0.2L246.5,63.5z M239.7,64.1
		c0.7,0,1.4-0.6,2.3-1.9c0.9-1.3,1.5-2.8,1.9-4.4c0-0.4-0.2-0.8-0.6-1c-0.1-0.1-0.3-0.1-0.5-0.1c-0.2,0-0.5,0.1-0.8,0.3
		c-0.3,0.2-0.6,0.4-0.9,0.7c-0.3,0.3-0.6,0.6-0.8,1c-0.3,0.4-0.5,0.8-0.7,1.2c-0.4,1-0.6,1.9-0.6,2.8
		C239,63.7,239.2,64.1,239.7,64.1z"/>
	<path class="st2" d="M254.1,62.8c0-0.4,0-0.7,0.1-1.1c0.1-0.3,0.1-0.7,0.2-1c0.1-0.3,0.2-0.7,0.3-1l1.1-3.3
		c0.9-2.7,1.4-4.8,1.6-6.3c0.1-0.5,0.3-0.8,0.8-0.8c0.3,0,0.5,0.1,0.7,0.2c0.3,0.3,0.5,0.6,0.5,0.9c0,0.3-0.1,0.7-0.1,1
		c-0.1,0.4-0.2,0.8-0.3,1.3c-0.1,0.5-0.3,0.9-0.4,1.4c-0.4,1.3-0.8,2.2-1,2.8l-0.6,1.4c0.6-0.9,1-1.5,1.4-1.8
		c0.7-0.6,1.5-0.9,2.2-0.9c1.1,0,1.9,0.6,2.3,1.8c0.1,0.4,0.2,0.9,0.2,1.5c0,0.6-0.1,1.2-0.3,1.8c-0.2,0.6-0.4,1.1-0.7,1.7
		c-0.3,0.5-0.7,1-1.1,1.4c-0.4,0.4-0.8,0.8-1.3,1.1c-1,0.6-1.9,0.9-2.8,0.9c-0.9,0-1.6-0.3-2.1-0.8
		C254.4,64.2,254.1,63.6,254.1,62.8z M256.9,64.3c0.6,0,1.2-0.3,1.9-0.8c1-0.8,1.6-2,2-3.5c0.1-0.5,0.2-1,0.2-1.6s-0.1-0.9-0.2-1.1
		c-0.1-0.2-0.3-0.3-0.6-0.3c-0.3,0-0.5,0.1-0.8,0.3c-0.3,0.2-0.6,0.5-0.9,0.8c-0.3,0.3-0.6,0.7-0.9,1.2c-0.3,0.4-0.6,0.9-0.8,1.4
		c-0.5,1-0.8,1.9-0.8,2.6C255.9,64,256.2,64.3,256.9,64.3z"/>
	<path class="st2" d="M264.6,64.6c-0.1-0.2-0.1-0.5-0.1-0.7c0-0.3,0-0.6,0.1-0.9c0.1-0.3,0.2-0.7,0.4-1.1c0.2-0.4,0.3-0.7,0.5-1.1
		l0.5-1.2c0.7-1.5,0.9-2.4,0.8-2.6c-0.1-0.1-0.2-0.2-0.4-0.4c-0.1,0-0.1-0.1-0.1-0.2c0-0.1,0-0.2,0.1-0.3c0.1-0.1,0.2-0.2,0.4-0.3
		c0.3-0.1,0.6-0.2,1-0.2c0.3,0,0.6,0,0.7,0.1c0.2,0.1,0.3,0.2,0.4,0.3c0.2,0.2,0.3,0.4,0.3,0.7c0,0.3,0,0.5-0.1,0.9
		c-0.1,0.3-0.2,0.7-0.3,1c-0.1,0.4-0.3,0.8-0.5,1.2c-0.5,1-0.8,1.7-0.9,2.1l-0.4,0.7c-0.2,0.4-0.3,0.8-0.3,0.9c0,0.2,0,0.3,0.1,0.4
		c0.1,0.1,0.2,0.1,0.3,0.1c0.2,0,0.3-0.1,0.5-0.2c0.2-0.1,0.4-0.3,0.6-0.5c0.2-0.2,0.4-0.4,0.7-0.7c0.2-0.3,0.5-0.5,0.7-0.8
		c0.6-0.7,1-1.3,1.3-1.8c1.4-2.6,2.2-3.9,2.2-4c0.2-0.3,0.4-0.4,0.7-0.4c0.2,0,0.4,0,0.6,0.1c0.2,0,0.3,0.1,0.4,0.2
		c0.3,0.2,0.3,0.4,0.2,0.6c-0.1,0.2-0.2,0.6-0.4,1c-1.2,3.6-2.1,5.8-2.4,6.6c-0.4,0.9-0.7,1.6-1,2.1c-0.3,0.5-0.6,1.1-1,1.6
		c-0.4,0.5-0.8,1-1.2,1.5c-1,1-1.9,1.5-2.7,1.6c-0.3,0-0.6,0-0.8-0.1c-0.3-0.2-0.5-0.4-0.5-0.6c0-0.2,0.1-0.3,0.4-0.4
		c0.3-0.1,0.6-0.2,0.9-0.4c0.3-0.2,0.6-0.4,0.9-0.7c0.9-0.8,1.5-1.7,2-2.6c0.4-0.8,0.7-1.6,1-2.4l0.8-2.3c-0.2,0.2-0.4,0.5-0.6,0.8
		l-0.7,0.9c-0.6,0.8-1.1,1.3-1.5,1.6c-0.8,0.6-1.5,0.9-2.1,0.9C265.4,65.6,264.9,65.3,264.6,64.6z"/>
	<path class="st2" d="M282,62.1c0-0.6,0.1-1.1,0.3-1.6c0.2-0.5,0.4-1,0.7-1.5c0.3-0.5,0.6-0.9,1-1.4c0.4-0.4,0.8-0.8,1.2-1.1
		c0.9-0.7,1.9-1,2.8-1c1.1,0,1.9,0.5,2.2,1.4c0.1,0.3,0.2,0.7,0.2,1.1c0,0.4-0.1,0.8-0.2,1.2c-0.2,0.4-0.4,0.7-0.7,1
		c-0.3,0.3-0.6,0.6-1,0.8c-0.4,0.2-0.8,0.4-1.3,0.6c-0.9,0.3-1.9,0.5-3,0.5c0,0.1,0,0.2,0,0.4c0,0.2,0,0.4,0.1,0.6
		c0,0.2,0.1,0.4,0.2,0.6c0.2,0.4,0.6,0.6,1,0.6c0.8,0,1.5-0.2,2.2-0.7c0.3-0.1,0.5-0.3,0.6-0.5c0.2-0.2,0.3-0.2,0.4-0.2
		c0.1,0,0.2,0.1,0.3,0.2c0.1,0.1,0.1,0.3,0.1,0.5c0,0.3-0.1,0.6-0.3,0.9c-0.8,0.8-2.1,1.2-3.7,1.2c-1,0-1.7-0.3-2.3-0.9
		C282.3,64.1,281.9,63.2,282,62.1z M287.7,56.8c-0.7,0-1.3,0.5-2,1.4c-0.5,0.8-1,1.7-1.3,2.8c1.1-0.1,2-0.5,2.9-1.3
		c0.7-0.7,1.1-1.4,1.1-2S288.2,56.8,287.7,56.8z"/>
	<path class="st2" d="M291.8,65.3c-0.3,0.2-0.5,0.3-0.7,0.3c-0.2,0-0.3,0-0.4-0.1c-0.1,0-0.2-0.1-0.3-0.2c-0.2-0.2-0.3-0.3-0.3-0.4
		c0-0.1,0.1-0.3,0.2-0.4l0.6-0.5c1.1-0.9,2-1.8,2.7-2.8c-0.6-1.6-0.8-2.9-0.8-3.9c0-0.5,0.3-1,0.7-1.3c0.4-0.3,0.8-0.5,1.3-0.5
		c0.1,0,0.2,0,0.3,0.1c0,0.1,0.1,0.2,0.1,0.4c0,0.2,0,0.4,0,0.5c0,0.2,0,0.4,0,0.6c0,0.2,0,0.4,0,0.7c0.1,0.7,0.1,1.2,0.2,1.5
		l0.3-0.5c0.7-1.2,1.6-2.1,2.6-2.8c0.6-0.4,1-0.6,1.5-0.6c0.4,0,0.7,0.1,0.9,0.2c0.4,0.2,0.5,0.4,0.4,0.6l-0.1,0.1l-0.2,0.1
		c-1,0.4-2.4,1.5-4,3.3c-0.3,0.4-0.6,0.7-0.9,1l0.3,1.1c0.4,1.4,0.9,2,1.5,2c0.3,0,0.5,0,0.6-0.1l0.4-0.2l0.2,0
		c0.1,0,0.2,0.1,0.2,0.2c0,0.6-0.3,1-0.9,1.4c-0.4,0.3-0.8,0.4-1.3,0.4c-1,0-1.8-1-2.6-2.9C293.4,63.9,292.6,64.7,291.8,65.3z"/>
	<path class="st2" d="M302.6,64.6c0,0.1-0.2,0.6-0.4,1.5c-0.3,0.9-0.5,1.7-0.7,2.2c-0.4,1.2-0.8,2-1,2.3c-0.2,0.2-0.5,0.3-0.8,0.3
		c-0.4,0-0.7-0.2-0.9-0.5c-0.1-0.1-0.1-0.2-0.1-0.3c0-0.1,0.1-0.4,0.3-0.8c0.5-1.1,1.2-3.2,2.1-6.3c0.3-1.2,0.6-2.1,0.7-2.5l0.3-1.2
		c0.2-0.8,0.3-1.3,0.4-1.6c0-0.3,0-0.5-0.1-0.6c-0.1-0.1-0.2-0.2-0.2-0.3c-0.1-0.1-0.2-0.1-0.3-0.2c-0.1,0-0.1-0.1-0.1-0.2
		c0-0.1,0.1-0.2,0.2-0.3c0.1-0.1,0.2-0.2,0.4-0.3c0.3-0.1,0.6-0.2,0.9-0.2c0.3,0,0.5,0,0.7,0.1s0.3,0.2,0.4,0.3
		c0.2,0.3,0.3,0.5,0.3,0.7c-0.1,0.5-0.1,0.9-0.2,1.3c1.1-1.6,2.3-2.4,3.6-2.4c1.1,0,1.9,0.6,2.3,1.7c0.1,0.4,0.2,0.9,0.2,1.5
		c0,0.6-0.1,1.1-0.3,1.7c-0.2,0.6-0.4,1.1-0.7,1.6c-0.3,0.5-0.7,1-1.1,1.4c-0.4,0.4-0.8,0.8-1.3,1.1c-0.9,0.7-1.8,1-2.7,1
		C303.6,65.6,303,65.3,302.6,64.6z M304.1,60.5c-0.2,0.5-0.4,0.9-0.6,1.4c-0.1,0.5-0.2,0.9-0.2,1.2c0,0.4,0.1,0.7,0.2,0.9
		c0.2,0.2,0.4,0.4,0.7,0.4c0.3,0,0.6-0.1,1-0.3c0.3-0.2,0.6-0.4,0.9-0.7c0.3-0.3,0.6-0.6,0.8-1c0.3-0.4,0.5-0.8,0.7-1.2
		c0.4-1,0.6-1.9,0.6-2.7c0-0.5-0.1-0.8-0.2-1.1c-0.1-0.3-0.3-0.4-0.6-0.4c-0.3,0-0.5,0.1-0.8,0.3c-0.3,0.2-0.6,0.5-0.9,0.8
		c-0.3,0.3-0.6,0.7-0.9,1.1C304.6,59.6,304.3,60,304.1,60.5z"/>
	<path class="st2" d="M312,62.1c0-0.6,0.1-1.1,0.3-1.6c0.2-0.5,0.4-1,0.7-1.5c0.3-0.5,0.6-0.9,1-1.4c0.4-0.4,0.8-0.8,1.2-1.1
		c0.9-0.7,1.9-1,2.8-1c1.1,0,1.9,0.5,2.2,1.4c0.1,0.3,0.2,0.7,0.2,1.1c0,0.4-0.1,0.8-0.2,1.2c-0.2,0.4-0.4,0.7-0.7,1
		c-0.3,0.3-0.6,0.6-1,0.8c-0.4,0.2-0.8,0.4-1.3,0.6c-0.9,0.3-1.9,0.5-3,0.5c0,0.1,0,0.2,0,0.4c0,0.2,0,0.4,0.1,0.6
		c0,0.2,0.1,0.4,0.2,0.6c0.2,0.4,0.6,0.6,1,0.6c0.8,0,1.5-0.2,2.2-0.7c0.3-0.1,0.5-0.3,0.6-0.5c0.2-0.2,0.3-0.2,0.4-0.2
		c0.1,0,0.2,0.1,0.3,0.2c0.1,0.1,0.1,0.3,0.1,0.5c0,0.3-0.1,0.6-0.3,0.9c-0.8,0.8-2.1,1.2-3.7,1.2c-1,0-1.7-0.3-2.3-0.9
		C312.3,64.1,311.9,63.2,312,62.1z M317.7,56.8c-0.7,0-1.3,0.5-2,1.4c-0.5,0.8-1,1.7-1.3,2.8c1.1-0.1,2-0.5,2.9-1.3
		c0.7-0.7,1.1-1.4,1.1-2S318.2,56.8,317.7,56.8z"/>
	<path class="st2" d="M321.4,65.3c-0.1-0.1-0.2-0.2-0.3-0.3c-0.1-0.1-0.1-0.2-0.1-0.3c0-0.1,0-0.2,0.1-0.3c0-0.1,0.1-0.3,0.2-0.5
		c1.3-3.2,2-5.4,2-6.5c0-0.3-0.1-0.5-0.3-0.7l-0.2-0.1c-0.1,0-0.1-0.1-0.1-0.2c0-0.1,0-0.2,0.1-0.3c0.1-0.1,0.2-0.2,0.3-0.3
		c0.3-0.1,0.6-0.2,0.9-0.2c0.3,0,0.5,0,0.7,0.1c0.2,0.1,0.3,0.2,0.4,0.3c0.2,0.2,0.4,0.5,0.4,0.7c0,0.3,0,0.5-0.1,0.8
		c-0.1,0.3-0.1,0.5-0.2,0.8c-0.1,0.3-0.2,0.5-0.3,0.7c-0.1,0.2-0.1,0.4-0.2,0.5c-0.1,0.2-0.1,0.4-0.1,0.4c0.2-0.1,0.3-0.3,0.3-0.4
		l0.4-0.7c0.8-1.5,1.7-2.5,2.5-3c0.2-0.1,0.5-0.2,0.9-0.2c0.3,0,0.6,0.1,0.8,0.3c0.2,0.2,0.3,0.5,0.3,0.8c0,0.3,0,0.5-0.1,0.7
		c0,0.2-0.1,0.4-0.2,0.5c-0.2,0.4-0.5,0.5-0.8,0.5l-0.2-0.1l-0.2-0.2c-0.2-0.2-0.4-0.3-0.6-0.3c-0.2,0-0.4,0.1-0.7,0.4
		c-0.3,0.3-0.6,0.6-0.9,1c-1,1.3-1.9,2.9-2.5,4.5l-0.4,1.1c-0.1,0.3-0.2,0.5-0.3,0.6c-0.1,0.1-0.2,0.2-0.4,0.2c-0.2,0-0.3,0-0.5-0.1
		C321.7,65.4,321.6,65.4,321.4,65.3z"/>
	<path class="st2" d="M332.9,63.7c0.2,0,0.3,0.1,0.3,0.3c0,0.3-0.1,0.6-0.4,0.9c-0.4,0.5-0.9,0.7-1.6,0.7c-0.8,0-1.3-0.3-1.6-0.9
		c-0.1-0.2-0.2-0.5-0.2-0.8c0-0.3,0.1-0.6,0.2-1c0.1-0.4,0.2-0.8,0.4-1.2c0.2-0.4,0.3-0.8,0.5-1.2l0.5-1.2c0.4-0.9,0.6-1.5,0.6-1.8
		c0-0.3,0-0.5-0.1-0.6c-0.1-0.1-0.1-0.2-0.2-0.2l-0.2-0.1c-0.1,0-0.1-0.1-0.1-0.2c0-0.1,0-0.2,0.1-0.3c0.1-0.1,0.2-0.2,0.3-0.3
		c0.3-0.1,0.6-0.2,1-0.2c1,0,1.4,0.2,1.4,0.7c0,0.6-0.2,1.2-0.5,2c-0.3,0.7-0.6,1.3-0.8,1.8l-0.6,1.3c-0.4,1-0.6,1.7-0.6,2.1
		c0,0.3,0.1,0.4,0.4,0.4c0.3,0,0.5,0,0.6-0.1C332.7,63.7,332.8,63.7,332.9,63.7z M334.9,53.2c-0.1,0.2-0.3,0.3-0.5,0.4
		c-0.2,0.1-0.4,0.2-0.6,0.2c-0.2,0-0.4,0-0.6-0.1c-0.2-0.1-0.3-0.2-0.5-0.4c-0.3-0.3-0.4-0.6-0.4-1c0-0.3,0.1-0.6,0.2-0.7
		c0.1-0.2,0.2-0.3,0.4-0.4c0.3-0.2,0.6-0.3,0.9-0.3c0.3,0,0.5,0,0.6,0.1c0.2,0,0.3,0.1,0.4,0.2c0.3,0.2,0.5,0.5,0.5,0.8
		c0,0.3,0,0.6-0.1,0.8C335.2,52.9,335,53.1,334.9,53.2z"/>
	<path class="st2" d="M335.5,62.1c0-0.6,0.1-1.1,0.3-1.6c0.2-0.5,0.4-1,0.7-1.5c0.3-0.5,0.6-0.9,1-1.4c0.4-0.4,0.8-0.8,1.2-1.1
		c0.9-0.7,1.9-1,2.8-1c1.1,0,1.9,0.5,2.2,1.4c0.1,0.3,0.2,0.7,0.2,1.1c0,0.4-0.1,0.8-0.2,1.2c-0.2,0.4-0.4,0.7-0.7,1
		c-0.3,0.3-0.6,0.6-1,0.8c-0.4,0.2-0.8,0.4-1.3,0.6c-0.9,0.3-1.9,0.5-3,0.5c0,0.1,0,0.2,0,0.4c0,0.2,0,0.4,0.1,0.6
		c0,0.2,0.1,0.4,0.2,0.6c0.2,0.4,0.6,0.6,1,0.6c0.8,0,1.5-0.2,2.2-0.7c0.3-0.1,0.5-0.3,0.6-0.5c0.2-0.2,0.3-0.2,0.4-0.2
		s0.2,0.1,0.3,0.2c0.1,0.1,0.1,0.3,0.1,0.5c0,0.3-0.1,0.6-0.3,0.9c-0.8,0.8-2.1,1.2-3.7,1.2c-1,0-1.7-0.3-2.3-0.9
		C335.7,64.1,335.4,63.2,335.5,62.1z M341.2,56.8c-0.7,0-1.3,0.5-2,1.4c-0.5,0.8-1,1.7-1.3,2.8c1.1-0.1,2-0.5,2.9-1.3
		c0.7-0.7,1.1-1.4,1.1-2S341.6,56.8,341.2,56.8z"/>
	<path class="st2" d="M351.9,57.3c-0.2,0-0.5,0.2-0.9,0.6c-0.4,0.4-0.7,0.7-1,1l-0.8,1l-1.6,2c-0.4,0.7-0.7,1.3-0.9,1.8l-0.5,1.1
		c-0.1,0.3-0.3,0.5-0.4,0.6c-0.1,0.1-0.2,0.2-0.4,0.2c-0.2,0-0.3,0-0.5-0.1c-0.2-0.1-0.3-0.1-0.4-0.2c-0.2-0.2-0.4-0.4-0.4-0.7
		c0-0.1,0.1-0.3,0.2-0.6l0.4-0.8c0.1-0.2,0.3-0.5,0.4-0.9l0.5-1.3c0.8-1.9,1.2-3.1,1.2-3.7c0-0.3-0.1-0.5-0.3-0.7l-0.2-0.1
		c-0.1,0-0.1-0.1-0.1-0.2c0-0.1,0-0.2,0.1-0.3c0.1-0.1,0.2-0.2,0.3-0.3c0.3-0.1,0.6-0.2,0.9-0.2c0.3,0,0.5,0,0.7,0.1
		c0.2,0.1,0.3,0.2,0.4,0.3c0.2,0.2,0.4,0.5,0.4,0.7c0,0.2,0,0.5-0.1,0.7c-0.1,0.2-0.1,0.5-0.2,0.8c-0.1,0.3-0.2,0.5-0.3,0.7
		c-0.1,0.2-0.2,0.5-0.3,0.6l-0.2,0.4C348,60,348,60,348,60c0.7-1,1.2-1.6,1.4-1.9l0.7-0.8c0.5-0.6,0.9-1,1.2-1.2
		c0.6-0.4,1-0.6,1.4-0.6c0.3,0,0.6,0,0.8,0.1c0.2,0.1,0.4,0.2,0.6,0.4c0.4,0.3,0.5,0.7,0.5,1.3c0,0.5-0.1,1-0.4,1.6
		c-0.2,0.6-0.4,1-0.6,1.3c-0.2,0.3-0.3,0.7-0.5,1c-0.5,1.1-0.7,1.9-0.7,2.3c0,0.2,0.2,0.3,0.5,0.3c0.3,0,0.5-0.1,0.8-0.2
		c0.2-0.1,0.4-0.2,0.4-0.2c0.1,0,0.2,0.1,0.2,0.2c0,0.6-0.3,1.1-0.9,1.4c-0.4,0.3-0.8,0.4-1.1,0.4c-0.3,0-0.6,0-0.8-0.1
		c-0.2-0.1-0.4-0.2-0.6-0.3c-0.4-0.3-0.6-0.8-0.6-1.4c0-0.7,0.2-1.7,0.7-2.8c0.3-0.8,0.6-1.3,0.7-1.6l0.3-0.7c0.2-0.4,0.3-0.7,0.3-1
		C352.5,57.4,352.3,57.3,351.9,57.3z"/>
	<path class="st2" d="M356.1,62.2c0-0.6,0.1-1.1,0.3-1.7c0.2-0.6,0.4-1.1,0.7-1.6c0.3-0.5,0.6-1,1-1.4c0.4-0.4,0.8-0.8,1.3-1.1
		c0.9-0.6,1.9-1,3-1c1.1,0,1.8,0.4,2.2,1.3c0.1,0.3,0.2,0.6,0.2,1c0,0.4-0.1,0.7-0.2,1.1c-0.1,0.3-0.3,0.6-0.4,0.9
		c-0.4,0.6-0.8,0.9-1.2,0.9c-0.5,0-0.8-0.1-1-0.4c-0.2-0.2-0.2-0.5-0.2-0.7c0-0.1,0.1-0.2,0.2-0.2c0.1-0.1,0.2-0.2,0.4-0.3
		c0.4-0.4,0.6-1,0.7-1.5c0-0.4-0.2-0.6-0.7-0.6c-0.6,0-1.1,0.3-1.7,0.9c-0.9,0.9-1.5,2-1.9,3.4c-0.3,1.2-0.3,2.1,0.2,2.6
		c0.3,0.3,0.6,0.5,1,0.5c0.7,0,1.5-0.3,2.1-0.8c0.2-0.2,0.4-0.3,0.5-0.5c0.1-0.2,0.3-0.3,0.4-0.3s0.2,0.1,0.3,0.2
		c0.1,0.1,0.1,0.2,0.1,0.4c0,0.4-0.2,0.8-0.5,1.1c-0.9,0.8-2,1.3-3.2,1.3c-1.1,0-1.9-0.3-2.5-0.9C356.4,64.1,356.1,63.3,356.1,62.2z
		"/>
	<path class="st2" d="M365.6,62.1c0-0.6,0.1-1.1,0.3-1.6c0.2-0.5,0.4-1,0.7-1.5c0.3-0.5,0.6-0.9,1-1.4c0.4-0.4,0.8-0.8,1.2-1.1
		c0.9-0.7,1.9-1,2.8-1c1.1,0,1.9,0.5,2.2,1.4c0.1,0.3,0.2,0.7,0.2,1.1c0,0.4-0.1,0.8-0.2,1.2c-0.2,0.4-0.4,0.7-0.7,1
		c-0.3,0.3-0.6,0.6-1,0.8c-0.4,0.2-0.8,0.4-1.3,0.6c-0.9,0.3-1.9,0.5-3,0.5c0,0.1,0,0.2-0.1,0.4c0,0.2,0,0.4,0.1,0.6
		c0,0.2,0.1,0.4,0.2,0.6c0.2,0.4,0.6,0.6,1,0.6c0.8,0,1.5-0.2,2.2-0.7c0.3-0.1,0.5-0.3,0.6-0.5c0.2-0.2,0.3-0.2,0.4-0.2
		c0.1,0,0.2,0.1,0.3,0.2c0.1,0.1,0.1,0.3,0.1,0.5c0,0.3-0.1,0.6-0.3,0.9c-0.8,0.8-2.1,1.2-3.7,1.2c-1,0-1.7-0.3-2.3-0.9
		C365.9,64.1,365.6,63.2,365.6,62.1z M371.4,56.8c-0.7,0-1.4,0.5-2,1.4c-0.5,0.8-1,1.7-1.3,2.8c1.1-0.1,2-0.5,2.9-1.3
		c0.7-0.7,1.1-1.4,1.1-2S371.8,56.8,371.4,56.8z"/>
	<path class="st2" d="M375.3,65.2c-0.1-0.1-0.3-0.3-0.3-0.5c-0.1-0.2-0.1-0.4-0.1-0.6c0-0.2,0-0.5,0.1-0.6c0.1-0.2,0.2-0.3,0.4-0.5
		c0.3-0.2,0.5-0.3,0.8-0.3c0.3,0,0.5,0,0.7,0.1c0.2,0,0.4,0.1,0.6,0.2c0.4,0.2,0.6,0.5,0.6,0.9c0,0.5-0.2,0.9-0.5,1.3
		c-0.3,0.3-0.6,0.5-0.9,0.6c-0.3,0-0.6,0-0.8-0.1C375.6,65.4,375.4,65.3,375.3,65.2z"/>
</g>
<g>
	<path class="st0" d="M9.7,55.9c-0.2-0.4-0.5-0.6-0.9-0.8c-0.4-0.2-0.8-0.2-1.2-0.2c-0.3,0-0.5,0-0.8,0.1c-0.3,0.1-0.5,0.2-0.7,0.3
		c-0.2,0.1-0.4,0.3-0.6,0.5c-0.2,0.2-0.2,0.5-0.3,0.8c-0.1,0.4,0,0.8,0.3,1c0.3,0.2,0.6,0.4,1.1,0.6s0.9,0.3,1.4,0.5
		c0.5,0.2,1,0.4,1.4,0.7c0.4,0.3,0.8,0.7,1,1.1s0.3,1.1,0.2,1.9c-0.1,0.7-0.3,1.3-0.6,1.8c-0.3,0.5-0.7,1-1.2,1.3s-1,0.6-1.6,0.8
		c-0.6,0.2-1.2,0.3-1.9,0.3c-0.8,0-1.6-0.1-2.3-0.4c-0.7-0.3-1.3-0.7-1.7-1.4l2-1.7c0.2,0.4,0.6,0.8,1,1c0.4,0.2,0.9,0.4,1.4,0.4
		c0.3,0,0.5,0,0.8-0.1C6.7,64.2,7,64,7.2,63.9c0.2-0.1,0.4-0.3,0.6-0.6c0.2-0.2,0.3-0.5,0.3-0.8c0.1-0.5,0-0.8-0.3-1.1
		c-0.3-0.3-0.6-0.5-1.1-0.7c-0.4-0.2-0.9-0.3-1.4-0.5c-0.5-0.2-1-0.4-1.4-0.7c-0.4-0.3-0.7-0.6-1-1.1c-0.2-0.5-0.3-1.1-0.2-1.8
		C2.9,56,3.1,55.4,3.4,55c0.3-0.5,0.8-0.9,1.3-1.2c0.5-0.3,1-0.6,1.6-0.7c0.6-0.2,1.2-0.2,1.8-0.2c0.7,0,1.3,0.1,2,0.3
		c0.6,0.2,1.1,0.6,1.6,1L9.7,55.9z"/>
	<path class="st0" d="M12.2,59.2l0.3-1.9h1.8l0.3-2.6h2.2l-0.3,2.6h2.4l-0.3,1.9h-2.4L15.7,63c-0.1,0.4,0,0.8,0.1,1
		c0.1,0.3,0.4,0.4,0.9,0.4c0.2,0,0.4,0,0.7-0.1c0.2,0,0.4-0.1,0.6-0.2L17.7,66c-0.2,0.1-0.5,0.2-0.9,0.2c-0.3,0-0.6,0.1-0.9,0.1
		c-0.6,0-1.1-0.1-1.4-0.2s-0.6-0.3-0.8-0.6c-0.2-0.3-0.3-0.6-0.3-1c0-0.4,0-0.8,0.1-1.4l0.6-4H12.2z"/>
	<path class="st0" d="M20.6,57.3h2.2l-0.2,1.4h0c0.3-0.5,0.7-0.9,1.2-1.2c0.5-0.3,1-0.4,1.6-0.4c0.1,0,0.3,0,0.4,0
		c0.1,0,0.3,0.1,0.4,0.1L26,59.3c-0.2,0-0.3-0.1-0.5-0.1c-0.2,0-0.3,0-0.5,0c-0.5,0-0.9,0.1-1.3,0.3c-0.3,0.2-0.6,0.4-0.8,0.7
		c-0.2,0.2-0.3,0.5-0.4,0.7s-0.1,0.4-0.1,0.6l-0.7,4.7h-2.2L20.6,57.3z"/>
	<path class="st0" d="M32.2,64.9L32.2,64.9c-0.4,0.5-0.9,0.9-1.4,1.1c-0.5,0.2-1.1,0.3-1.7,0.3c-0.4,0-0.8-0.1-1.2-0.2
		c-0.4-0.1-0.7-0.3-1-0.5c-0.3-0.2-0.5-0.5-0.6-0.8c-0.1-0.3-0.2-0.7-0.1-1.2c0.1-0.7,0.4-1.3,0.8-1.7c0.4-0.4,0.9-0.7,1.5-0.9
		c0.6-0.2,1.2-0.3,1.9-0.4c0.7,0,1.3-0.1,1.8-0.1h0.6l0-0.2c0.1-0.6,0-1-0.4-1.2c-0.3-0.3-0.8-0.4-1.4-0.4c-0.5,0-0.9,0.1-1.3,0.2
		s-0.8,0.4-1.1,0.7l-1-1.2c0.6-0.5,1.2-0.9,1.9-1.1c0.7-0.2,1.4-0.3,2.1-0.3c0.6,0,1.1,0.1,1.6,0.2c0.4,0.1,0.7,0.3,1,0.5
		s0.4,0.5,0.5,0.8c0.1,0.3,0.2,0.6,0.2,0.9c0,0.3,0,0.6,0,0.9c0,0.3-0.1,0.5-0.1,0.7L34,66.1h-2L32.2,64.9z M32.5,62.2H32
		c-0.3,0-0.7,0-1,0c-0.4,0-0.8,0.1-1.1,0.2c-0.3,0.1-0.7,0.2-0.9,0.4c-0.3,0.2-0.4,0.4-0.5,0.7c0,0.2,0,0.4,0.1,0.5
		c0.1,0.1,0.2,0.3,0.3,0.4s0.3,0.2,0.5,0.2c0.2,0,0.3,0.1,0.5,0.1c0.8,0,1.3-0.2,1.8-0.5c0.4-0.4,0.7-0.9,0.8-1.5L32.5,62.2z"/>
	<path class="st0" d="M36.3,59.2l0.3-1.9h1.8l0.3-2.6H41l-0.3,2.6H43l-0.3,1.9h-2.4L39.8,63c-0.1,0.4,0,0.8,0.1,1
		c0.1,0.3,0.4,0.4,0.9,0.4c0.2,0,0.4,0,0.7-0.1c0.2,0,0.4-0.1,0.6-0.2L41.8,66c-0.2,0.1-0.5,0.2-0.9,0.2c-0.3,0-0.6,0.1-0.9,0.1
		c-0.6,0-1.1-0.1-1.4-0.2s-0.6-0.3-0.8-0.6c-0.2-0.3-0.3-0.6-0.3-1c0-0.4,0-0.8,0.1-1.4l0.6-4H36.3z"/>
	<path class="st0" d="M45.8,62.5c0,0.3,0,0.6,0.1,0.9c0.1,0.3,0.2,0.5,0.4,0.7c0.2,0.2,0.4,0.3,0.7,0.4c0.3,0.1,0.5,0.1,0.8,0.1
		c0.6,0,1-0.1,1.4-0.3c0.4-0.2,0.8-0.5,1.1-0.9l1.4,1.2c-0.6,0.6-1.2,1.1-1.9,1.4c-0.7,0.3-1.4,0.4-2.1,0.4c-0.7,0-1.3-0.1-1.8-0.3
		c-0.6-0.2-1-0.5-1.4-0.9c-0.4-0.4-0.6-0.9-0.8-1.5c-0.2-0.6-0.2-1.2-0.1-1.9c0.1-0.7,0.3-1.3,0.6-1.9c0.3-0.6,0.7-1.1,1.2-1.5
		c0.5-0.4,1-0.7,1.7-0.9c0.6-0.2,1.3-0.3,1.9-0.3c1.2,0,2.2,0.4,2.8,1.2c0.6,0.8,0.9,2,0.6,3.6l-0.1,0.6H45.8z M50.6,60.8
		c0.1-0.6,0-1.2-0.4-1.5c-0.3-0.4-0.9-0.6-1.6-0.6c-0.7,0-1.2,0.2-1.7,0.6c-0.4,0.4-0.7,0.9-0.9,1.5H50.6z"/>
	<path class="st0" d="M64.4,57.3l-1.1,8c-0.1,0.8-0.3,1.5-0.6,2.2c-0.3,0.6-0.7,1.2-1.1,1.6c-0.5,0.4-1,0.8-1.7,1
		c-0.7,0.2-1.4,0.4-2.3,0.4c-0.8,0-1.6-0.1-2.3-0.3s-1.3-0.6-1.9-1.1l1.6-1.8c0.4,0.4,0.8,0.7,1.2,0.9c0.4,0.2,1,0.3,1.6,0.3
		c0.5,0,1-0.1,1.4-0.2c0.4-0.1,0.7-0.3,0.9-0.6c0.3-0.3,0.4-0.6,0.6-0.9c0.1-0.4,0.3-0.8,0.3-1.2l0.1-0.6h0c-0.4,0.4-0.8,0.7-1.4,1
		c-0.6,0.2-1.1,0.3-1.7,0.3c-0.7,0-1.2-0.1-1.8-0.4c-0.5-0.2-0.9-0.6-1.2-1c-0.3-0.4-0.6-0.9-0.7-1.4c-0.1-0.6-0.2-1.1-0.1-1.8
		c0.1-0.6,0.3-1.3,0.6-1.8c0.3-0.6,0.6-1.1,1.1-1.5c0.4-0.4,0.9-0.7,1.5-1c0.6-0.2,1.2-0.4,1.9-0.4c0.6,0,1.2,0.1,1.7,0.4
		c0.5,0.2,0.9,0.6,1.1,1.2h0l0.2-1.3H64.4z M59.4,59.1c-0.4,0-0.8,0.1-1.1,0.2c-0.3,0.1-0.6,0.3-0.9,0.5c-0.3,0.2-0.5,0.5-0.7,0.8
		c-0.2,0.3-0.3,0.7-0.3,1.1c0,0.4,0,0.7,0.1,1c0.1,0.3,0.2,0.6,0.4,0.8c0.2,0.2,0.4,0.4,0.7,0.6c0.3,0.1,0.6,0.2,1,0.2
		c0.4,0,0.8-0.1,1.1-0.2c0.3-0.1,0.6-0.3,0.9-0.5c0.3-0.2,0.5-0.5,0.6-0.8c0.2-0.3,0.3-0.7,0.3-1c0.1-0.8-0.1-1.4-0.4-1.9
		C60.8,59.3,60.2,59.1,59.4,59.1z"/>
	<path class="st0" d="M66.9,57.3h2.2l-1.2,8.8h-2.2L66.9,57.3z M67,54.3c0-0.4,0.2-0.7,0.5-0.9c0.3-0.3,0.7-0.4,1.1-0.4
		s0.7,0.1,1,0.4c0.2,0.3,0.3,0.6,0.3,0.9c-0.1,0.4-0.2,0.7-0.6,0.9c-0.3,0.3-0.7,0.4-1.1,0.4s-0.7-0.1-0.9-0.4
		C67.1,55,67,54.7,67,54.3z"/>
	<path class="st0" d="M77.3,59.9c-0.2-0.3-0.5-0.5-0.7-0.6c-0.3-0.2-0.5-0.2-0.8-0.2c-0.4,0-0.8,0.1-1.1,0.2
		c-0.3,0.1-0.6,0.3-0.9,0.6s-0.5,0.5-0.6,0.8c-0.2,0.3-0.3,0.6-0.3,1c0,0.3,0,0.7,0,1c0.1,0.3,0.2,0.6,0.4,0.8
		c0.2,0.2,0.4,0.4,0.7,0.6c0.3,0.1,0.7,0.2,1.1,0.2c0.3,0,0.7-0.1,1-0.2c0.3-0.1,0.6-0.3,0.8-0.6l1.2,1.6c-0.3,0.2-0.5,0.4-0.8,0.6
		c-0.3,0.2-0.6,0.3-0.9,0.4c-0.3,0.1-0.6,0.2-0.9,0.2c-0.3,0-0.5,0.1-0.7,0.1c-0.7,0-1.3-0.1-1.8-0.3c-0.6-0.2-1-0.5-1.4-0.9
		c-0.4-0.4-0.6-0.9-0.8-1.5c-0.2-0.6-0.2-1.2-0.1-1.9c0.1-0.7,0.3-1.3,0.6-1.9c0.3-0.6,0.7-1.1,1.2-1.5c0.5-0.4,1-0.7,1.7-0.9
		s1.3-0.3,1.9-0.3c0.6,0,1.1,0.1,1.7,0.3c0.5,0.2,1,0.6,1.3,1L77.3,59.9z"/>
	<path class="st0" d="M95.2,56.2c-0.4-0.5-0.8-0.9-1.2-1c-0.4-0.2-0.9-0.3-1.3-0.3c-0.7,0-1.3,0.1-1.9,0.4s-1.1,0.6-1.6,1
		c-0.5,0.4-0.8,0.9-1.1,1.5c-0.3,0.6-0.5,1.2-0.6,1.8c-0.1,0.7-0.1,1.3,0,1.9s0.4,1.1,0.7,1.5c0.3,0.4,0.8,0.8,1.3,1
		c0.5,0.2,1.1,0.4,1.8,0.4c0.5,0,1.1-0.1,1.6-0.4c0.5-0.3,1-0.7,1.6-1.2l1.7,1.4c-0.7,0.8-1.5,1.4-2.4,1.8c-0.9,0.4-1.8,0.6-2.8,0.6
		c-1,0-1.9-0.2-2.7-0.5c-0.8-0.3-1.5-0.8-2-1.4c-0.5-0.6-0.9-1.3-1.1-2.1c-0.2-0.8-0.3-1.8-0.1-2.8c0.1-1,0.4-2,0.9-2.8
		c0.5-0.9,1-1.6,1.7-2.2c0.7-0.6,1.5-1.1,2.4-1.4c0.9-0.3,1.8-0.5,2.8-0.5c0.9,0,1.7,0.2,2.4,0.5c0.7,0.3,1.3,0.8,1.9,1.6L95.2,56.2
		z"/>
	<path class="st0" d="M97.4,61.7c0.1-0.7,0.3-1.3,0.6-1.9c0.3-0.6,0.7-1.1,1.2-1.5c0.5-0.4,1-0.7,1.7-0.9s1.3-0.3,1.9-0.3
		c0.7,0,1.3,0.1,1.8,0.3s1,0.5,1.4,0.9c0.4,0.4,0.6,0.9,0.8,1.5c0.2,0.6,0.2,1.2,0.1,1.9c-0.1,0.7-0.3,1.3-0.6,1.9
		c-0.3,0.6-0.7,1.1-1.2,1.5c-0.5,0.4-1,0.7-1.7,0.9c-0.6,0.2-1.3,0.3-1.9,0.3c-0.7,0-1.3-0.1-1.8-0.3c-0.6-0.2-1-0.5-1.4-0.9
		c-0.4-0.4-0.6-0.9-0.8-1.5C97.4,63,97.3,62.4,97.4,61.7z M99.6,61.7c0,0.3,0,0.7,0,1c0.1,0.3,0.2,0.6,0.4,0.8
		c0.2,0.2,0.4,0.4,0.7,0.6c0.3,0.1,0.7,0.2,1.1,0.2s0.8-0.1,1.1-0.2c0.3-0.1,0.6-0.3,0.9-0.6c0.3-0.2,0.5-0.5,0.6-0.8
		c0.2-0.3,0.3-0.6,0.3-1c0-0.3,0-0.7,0-1c-0.1-0.3-0.2-0.6-0.4-0.8c-0.2-0.2-0.4-0.4-0.7-0.6c-0.3-0.1-0.7-0.2-1.1-0.2
		s-0.8,0.1-1.1,0.2c-0.3,0.1-0.6,0.3-0.9,0.6c-0.3,0.2-0.5,0.5-0.6,0.8C99.8,61,99.7,61.4,99.6,61.7z"/>
	<path class="st0" d="M114.1,64.9L114.1,64.9c-0.4,0.5-0.9,0.9-1.4,1.1c-0.5,0.2-1.1,0.3-1.7,0.3c-0.4,0-0.8-0.1-1.2-0.2
		c-0.4-0.1-0.7-0.3-1-0.5c-0.3-0.2-0.5-0.5-0.6-0.8c-0.1-0.3-0.2-0.7-0.1-1.2c0.1-0.7,0.4-1.3,0.8-1.7c0.4-0.4,0.9-0.7,1.5-0.9
		c0.6-0.2,1.2-0.3,1.9-0.4c0.7,0,1.3-0.1,1.8-0.1h0.6l0-0.2c0.1-0.6,0-1-0.4-1.2c-0.3-0.3-0.8-0.4-1.4-0.4c-0.5,0-0.9,0.1-1.3,0.2
		s-0.8,0.4-1.1,0.7l-1-1.2c0.6-0.5,1.2-0.9,1.9-1.1c0.7-0.2,1.4-0.3,2.1-0.3c0.6,0,1.1,0.1,1.6,0.2c0.4,0.1,0.7,0.3,1,0.5
		s0.4,0.5,0.5,0.8c0.1,0.3,0.2,0.6,0.2,0.9c0,0.3,0,0.6,0,0.9c0,0.3-0.1,0.5-0.1,0.7l-0.7,5.1h-2L114.1,64.9z M114.4,62.2h-0.5
		c-0.3,0-0.7,0-1,0c-0.4,0-0.8,0.1-1.1,0.2c-0.3,0.1-0.7,0.2-0.9,0.4c-0.3,0.2-0.4,0.4-0.5,0.7c0,0.2,0,0.4,0.1,0.5
		c0.1,0.1,0.2,0.3,0.3,0.4c0.1,0.1,0.3,0.2,0.5,0.2c0.2,0,0.3,0.1,0.5,0.1c0.8,0,1.3-0.2,1.8-0.5c0.4-0.4,0.7-0.9,0.8-1.5
		L114.4,62.2z"/>
	<path class="st0" d="M125.2,59.9c-0.2-0.3-0.5-0.5-0.7-0.6c-0.3-0.2-0.5-0.2-0.8-0.2c-0.4,0-0.8,0.1-1.1,0.2
		c-0.3,0.1-0.6,0.3-0.9,0.6c-0.3,0.2-0.5,0.5-0.6,0.8c-0.2,0.3-0.3,0.6-0.3,1c0,0.3,0,0.7,0,1c0.1,0.3,0.2,0.6,0.4,0.8
		c0.2,0.2,0.4,0.4,0.7,0.6c0.3,0.1,0.7,0.2,1.1,0.2c0.3,0,0.7-0.1,1-0.2c0.3-0.1,0.6-0.3,0.8-0.6l1.2,1.6c-0.3,0.2-0.5,0.4-0.8,0.6
		c-0.3,0.2-0.6,0.3-0.9,0.4c-0.3,0.1-0.6,0.2-0.9,0.2c-0.3,0-0.5,0.1-0.7,0.1c-0.7,0-1.3-0.1-1.8-0.3c-0.6-0.2-1-0.5-1.4-0.9
		c-0.4-0.4-0.6-0.9-0.8-1.5c-0.2-0.6-0.2-1.2-0.1-1.9c0.1-0.7,0.3-1.3,0.6-1.9c0.3-0.6,0.7-1.1,1.2-1.5c0.5-0.4,1-0.7,1.7-0.9
		c0.6-0.2,1.3-0.3,1.9-0.3c0.6,0,1.1,0.1,1.7,0.3c0.5,0.2,1,0.6,1.3,1L125.2,59.9z"/>
	<path class="st0" d="M130.4,58.5L130.4,58.5c0.3-0.4,0.6-0.7,1.1-1c0.5-0.3,1.1-0.5,1.7-0.5c0.6,0,1.1,0.1,1.5,0.3
		c0.4,0.2,0.7,0.5,0.9,0.8c0.2,0.3,0.3,0.7,0.4,1.1c0,0.4,0,0.9,0,1.3l-0.8,5.6H133l0.6-4.5c0-0.2,0.1-0.5,0.1-0.8s0-0.6-0.1-0.8
		c-0.1-0.3-0.2-0.5-0.4-0.7c-0.2-0.2-0.5-0.3-0.9-0.3c-0.4,0-0.7,0.1-1,0.2c-0.3,0.1-0.5,0.3-0.7,0.5c-0.2,0.2-0.3,0.4-0.5,0.7
		s-0.2,0.6-0.2,0.8l-0.7,4.8h-2.2l1.9-13.9h2.2L130.4,58.5z"/>
	<path class="st0" d="M139,57.3h2.2l-1.2,8.8h-2.2L139,57.3z M139.1,54.3c0-0.4,0.2-0.7,0.5-0.9c0.3-0.3,0.7-0.4,1.1-0.4
		c0.4,0,0.7,0.1,1,0.4c0.2,0.3,0.3,0.6,0.3,0.9c-0.1,0.4-0.2,0.7-0.6,0.9c-0.3,0.3-0.7,0.4-1.1,0.4c-0.4,0-0.7-0.1-0.9-0.4
		C139.1,55,139,54.7,139.1,54.3z"/>
	<path class="st0" d="M143.7,57.3h2.1l-0.2,1.4h0c0.3-0.4,0.6-0.8,1.1-1.1c0.5-0.3,1.1-0.5,1.8-0.5c0.6,0,1.1,0.1,1.5,0.3
		c0.4,0.2,0.7,0.5,0.9,0.8c0.2,0.3,0.3,0.7,0.4,1.1c0,0.4,0,0.9,0,1.3l-0.8,5.6h-2.2l0.6-4.5c0-0.2,0.1-0.5,0.1-0.8
		c0-0.3,0-0.6-0.1-0.8c-0.1-0.3-0.2-0.5-0.4-0.7c-0.2-0.2-0.5-0.3-0.9-0.3c-0.4,0-0.7,0.1-1,0.2c-0.3,0.1-0.5,0.3-0.7,0.5
		c-0.2,0.2-0.3,0.4-0.5,0.7c-0.1,0.3-0.2,0.6-0.2,0.8l-0.7,4.8h-2.2L143.7,57.3z"/>
	<path class="st0" d="M163.3,57.3l-1.1,8c-0.1,0.8-0.3,1.5-0.6,2.2c-0.3,0.6-0.7,1.2-1.1,1.6c-0.5,0.4-1,0.8-1.7,1
		c-0.7,0.2-1.4,0.4-2.3,0.4c-0.8,0-1.6-0.1-2.3-0.3s-1.3-0.6-1.9-1.1l1.6-1.8c0.4,0.4,0.8,0.7,1.2,0.9c0.4,0.2,1,0.3,1.6,0.3
		c0.5,0,1-0.1,1.4-0.2c0.4-0.1,0.7-0.3,0.9-0.6c0.3-0.3,0.5-0.6,0.6-0.9c0.1-0.4,0.3-0.8,0.3-1.2l0.1-0.6h0c-0.4,0.4-0.8,0.7-1.4,1
		s-1.1,0.3-1.7,0.3c-0.7,0-1.2-0.1-1.8-0.4c-0.5-0.2-0.9-0.6-1.2-1c-0.3-0.4-0.6-0.9-0.7-1.4c-0.1-0.6-0.2-1.1-0.1-1.8
		c0.1-0.6,0.3-1.3,0.6-1.8c0.3-0.6,0.6-1.1,1.1-1.5c0.4-0.4,0.9-0.7,1.5-1c0.6-0.2,1.2-0.4,1.9-0.4c0.6,0,1.2,0.1,1.7,0.4
		c0.5,0.2,0.9,0.6,1.1,1.2h0l0.2-1.3H163.3z M158.4,59.1c-0.4,0-0.8,0.1-1.1,0.2c-0.3,0.1-0.6,0.3-0.9,0.5c-0.3,0.2-0.5,0.5-0.7,0.8
		c-0.2,0.3-0.3,0.7-0.3,1.1c0,0.4,0,0.7,0.1,1c0.1,0.3,0.2,0.6,0.4,0.8c0.2,0.2,0.4,0.4,0.7,0.6c0.3,0.1,0.6,0.2,1,0.2
		c0.4,0,0.8-0.1,1.1-0.2c0.3-0.1,0.6-0.3,0.9-0.5c0.3-0.2,0.5-0.5,0.6-0.8c0.2-0.3,0.3-0.7,0.3-1c0.1-0.8-0.1-1.4-0.4-1.9
		C159.8,59.3,159.2,59.1,158.4,59.1z"/>
	<path class="st0" d="M165.7,63.6h2.2l-2.2,4.8h-2L165.7,63.6z"/>
	<path class="st0" d="M177.5,53.1h4.4c0.6,0,1.2,0.1,1.8,0.2c0.6,0.1,1,0.3,1.4,0.6c0.4,0.3,0.7,0.7,0.9,1.2
		c0.2,0.5,0.2,1.1,0.1,1.8c-0.1,0.8-0.3,1.5-0.7,2c-0.4,0.5-0.8,0.9-1.3,1.2c-0.5,0.3-1.1,0.5-1.7,0.6c-0.6,0.1-1.3,0.1-2,0.1h-1.7
		l-0.8,5.4h-2.3L177.5,53.1z M180.4,58.7c0.3,0,0.7,0,1,0c0.4,0,0.7-0.1,1-0.2c0.3-0.1,0.6-0.3,0.8-0.6c0.2-0.2,0.4-0.6,0.4-1
		c0-0.4,0-0.7-0.1-1c-0.1-0.2-0.3-0.4-0.6-0.6c-0.3-0.1-0.5-0.2-0.9-0.2c-0.3,0-0.6-0.1-0.9-0.1h-1.7l-0.5,3.7H180.4z"/>
	<path class="st0" d="M186.8,61.7c0.1-0.7,0.3-1.3,0.6-1.9c0.3-0.6,0.7-1.1,1.2-1.5c0.5-0.4,1-0.7,1.7-0.9c0.6-0.2,1.3-0.3,1.9-0.3
		c0.7,0,1.3,0.1,1.8,0.3s1,0.5,1.4,0.9c0.4,0.4,0.6,0.9,0.8,1.5c0.2,0.6,0.2,1.2,0.1,1.9c-0.1,0.7-0.3,1.3-0.6,1.9
		c-0.3,0.6-0.7,1.1-1.2,1.5c-0.5,0.4-1,0.7-1.7,0.9c-0.6,0.2-1.3,0.3-1.9,0.3c-0.7,0-1.3-0.1-1.8-0.3c-0.6-0.2-1-0.5-1.4-0.9
		c-0.4-0.4-0.6-0.9-0.8-1.5S186.7,62.4,186.8,61.7z M189,61.7c0,0.3,0,0.7,0,1c0.1,0.3,0.2,0.6,0.4,0.8c0.2,0.2,0.4,0.4,0.7,0.6
		c0.3,0.1,0.7,0.2,1.1,0.2c0.4,0,0.8-0.1,1.1-0.2c0.3-0.1,0.6-0.3,0.9-0.6c0.3-0.2,0.5-0.5,0.6-0.8c0.2-0.3,0.3-0.6,0.3-1s0-0.7,0-1
		c-0.1-0.3-0.2-0.6-0.4-0.8c-0.2-0.2-0.4-0.4-0.7-0.6c-0.3-0.1-0.7-0.2-1.1-0.2c-0.4,0-0.8,0.1-1.1,0.2c-0.3,0.1-0.6,0.3-0.9,0.6
		s-0.5,0.5-0.6,0.8C189.2,61,189.1,61.4,189,61.7z"/>
	<path class="st0" d="M197.9,57.3h2.4l1,6.2h0l2.6-6.2h2.4l1,6.2h0l2.7-6.2h2.2l-4.2,8.8H206l-1.2-6h0l-2.7,6h-2.3L197.9,57.3z"/>
	<path class="st0" d="M214.7,62.5c0,0.3,0,0.6,0.1,0.9c0.1,0.3,0.2,0.5,0.4,0.7c0.2,0.2,0.4,0.3,0.7,0.4c0.3,0.1,0.5,0.1,0.8,0.1
		c0.6,0,1-0.1,1.4-0.3c0.4-0.2,0.8-0.5,1.1-0.9l1.4,1.2c-0.6,0.6-1.2,1.1-1.9,1.4c-0.7,0.3-1.4,0.4-2.1,0.4c-0.7,0-1.3-0.1-1.8-0.3
		c-0.6-0.2-1-0.5-1.4-0.9c-0.4-0.4-0.6-0.9-0.8-1.5c-0.2-0.6-0.2-1.2-0.1-1.9c0.1-0.7,0.3-1.3,0.6-1.9c0.3-0.6,0.7-1.1,1.2-1.5
		c0.5-0.4,1-0.7,1.7-0.9c0.6-0.2,1.3-0.3,1.9-0.3c1.2,0,2.2,0.4,2.8,1.2c0.6,0.8,0.9,2,0.6,3.6l-0.1,0.6H214.7z M219.5,60.8
		c0.1-0.6,0-1.2-0.4-1.5c-0.3-0.4-0.9-0.6-1.6-0.6c-0.7,0-1.2,0.2-1.7,0.6c-0.4,0.4-0.7,0.9-0.9,1.5H219.5z"/>
	<path class="st0" d="M224.2,57.3h2.2l-0.2,1.4h0c0.3-0.5,0.7-0.9,1.2-1.2c0.5-0.3,1-0.4,1.6-0.4c0.1,0,0.3,0,0.4,0
		c0.1,0,0.3,0.1,0.4,0.1l-0.3,2.1c-0.2,0-0.3-0.1-0.5-0.1c-0.2,0-0.3,0-0.5,0c-0.5,0-0.9,0.1-1.3,0.3c-0.3,0.2-0.6,0.4-0.8,0.7
		c-0.2,0.2-0.3,0.5-0.4,0.7c-0.1,0.2-0.1,0.4-0.1,0.6l-0.7,4.7H223L224.2,57.3z"/>
	<path class="st0" d="M232.1,62.5c0,0.3,0,0.6,0.1,0.9c0.1,0.3,0.2,0.5,0.4,0.7c0.2,0.2,0.4,0.3,0.7,0.4c0.3,0.1,0.5,0.1,0.8,0.1
		c0.6,0,1-0.1,1.4-0.3c0.4-0.2,0.8-0.5,1.1-0.9l1.4,1.2c-0.6,0.6-1.2,1.1-1.9,1.4c-0.7,0.3-1.4,0.4-2.1,0.4c-0.7,0-1.3-0.1-1.8-0.3
		c-0.6-0.2-1-0.5-1.4-0.9c-0.4-0.4-0.6-0.9-0.8-1.5s-0.2-1.2-0.1-1.9c0.1-0.7,0.3-1.3,0.6-1.9c0.3-0.6,0.7-1.1,1.2-1.5
		c0.5-0.4,1-0.7,1.7-0.9c0.6-0.2,1.3-0.3,1.9-0.3c1.2,0,2.2,0.4,2.8,1.2c0.6,0.8,0.9,2,0.6,3.6l-0.1,0.6H232.1z M236.8,60.8
		c0.1-0.6,0-1.2-0.4-1.5c-0.3-0.4-0.9-0.6-1.6-0.6c-0.7,0-1.2,0.2-1.7,0.6c-0.4,0.4-0.7,0.9-0.9,1.5H236.8z"/>
	<path class="st0" d="M247.5,64.8L247.5,64.8c-0.4,0.5-0.9,0.9-1.5,1.2c-0.6,0.2-1.2,0.4-1.8,0.4c-0.7,0-1.3-0.1-1.8-0.4
		c-0.5-0.2-0.9-0.6-1.2-1c-0.3-0.4-0.5-0.9-0.7-1.5s-0.1-1.2,0-1.8c0.1-0.6,0.3-1.3,0.6-1.8c0.3-0.6,0.7-1.1,1.1-1.5
		c0.4-0.4,0.9-0.7,1.5-1c0.6-0.2,1.1-0.4,1.8-0.4c0.4,0,0.8,0,1.1,0.1c0.3,0.1,0.6,0.2,0.8,0.3c0.2,0.1,0.4,0.3,0.6,0.4
		c0.1,0.2,0.3,0.3,0.4,0.5h0.1l0.9-6.2h2.2l-1.9,13.9h-2.1L247.5,64.8z M242.7,61.7c0,0.3,0,0.7,0,1c0.1,0.3,0.2,0.6,0.4,0.8
		c0.2,0.2,0.4,0.4,0.7,0.6c0.3,0.1,0.7,0.2,1.1,0.2c0.4,0,0.8-0.1,1.1-0.2c0.3-0.1,0.6-0.3,0.9-0.6c0.3-0.2,0.5-0.5,0.6-0.8
		c0.2-0.3,0.3-0.6,0.3-1s0-0.7,0-1c-0.1-0.3-0.2-0.6-0.4-0.8c-0.2-0.2-0.4-0.4-0.7-0.6c-0.3-0.1-0.7-0.2-1.1-0.2
		c-0.4,0-0.8,0.1-1.1,0.2c-0.3,0.1-0.6,0.3-0.9,0.6s-0.5,0.5-0.6,0.8C242.9,61,242.8,61.4,242.7,61.7z"/>
	<path class="st0" d="M259.3,52.2h2.2l-0.9,6.2h0.1c0.1-0.1,0.3-0.3,0.5-0.5c0.2-0.2,0.4-0.3,0.7-0.4c0.3-0.1,0.6-0.2,0.9-0.3
		c0.3-0.1,0.7-0.1,1.1-0.1c0.6,0,1.2,0.1,1.7,0.4c0.5,0.2,0.9,0.6,1.2,1c0.3,0.4,0.5,0.9,0.7,1.5c0.1,0.6,0.1,1.2,0.1,1.8
		c-0.1,0.6-0.3,1.3-0.6,1.8c-0.3,0.6-0.6,1.1-1.1,1.5c-0.4,0.4-0.9,0.7-1.5,1c-0.6,0.2-1.2,0.4-1.9,0.4c-0.6,0-1.2-0.1-1.7-0.4
		c-0.5-0.2-0.9-0.6-1.1-1.2h0l-0.2,1.3h-2.1L259.3,52.2z M265.2,61.7c0-0.3,0-0.7,0-1c-0.1-0.3-0.2-0.6-0.4-0.8
		c-0.2-0.2-0.4-0.4-0.7-0.6c-0.3-0.1-0.7-0.2-1.1-0.2c-0.4,0-0.8,0.1-1.1,0.2c-0.3,0.1-0.6,0.3-0.9,0.6c-0.3,0.2-0.5,0.5-0.6,0.8
		c-0.2,0.3-0.3,0.6-0.3,1c0,0.3,0,0.7,0,1c0.1,0.3,0.2,0.6,0.4,0.8c0.2,0.2,0.4,0.4,0.7,0.6c0.3,0.1,0.7,0.2,1.1,0.2
		c0.4,0,0.8-0.1,1.1-0.2c0.3-0.1,0.6-0.3,0.9-0.6c0.3-0.2,0.5-0.5,0.6-0.8C265.1,62.4,265.2,62,265.2,61.7z"/>
	<path class="st0" d="M268.9,57.3h2.4l1.6,6.1h0l3.1-6.1h2.3L272.7,68c-0.2,0.4-0.4,0.8-0.7,1.1c-0.2,0.3-0.5,0.6-0.8,0.8
		s-0.6,0.4-1,0.5c-0.4,0.1-0.8,0.2-1.3,0.2c-0.6,0-1.1-0.1-1.7-0.2l0.6-2c0.2,0.1,0.3,0.1,0.5,0.2c0.2,0,0.4,0.1,0.6,0.1
		c0.3,0,0.5,0,0.7-0.1c0.2,0,0.4-0.1,0.5-0.2c0.1-0.1,0.3-0.2,0.4-0.4c0.1-0.2,0.2-0.4,0.4-0.6l0.6-1L268.9,57.3z"/>
	<path class="st0" d="M285.9,53.1h8.6l-0.3,2.1h-6.3l-0.4,3.2h6l-0.3,2.1h-6l-0.5,3.5h6.6l-0.3,2.1h-8.9L285.9,53.1z"/>
	<path class="st0" d="M298,61.4l-2.5-4.1h2.7l1.4,2.6l2.3-2.6h2.5l-3.6,4.1l2.9,4.7H301l-1.9-3.2l-2.8,3.2h-2.6L298,61.4z"/>
	<path class="st0" d="M306.2,57.3h2.1l-0.2,1.3h0c0.4-0.5,0.9-0.9,1.4-1.2c0.6-0.2,1.2-0.4,1.8-0.4c0.7,0,1.3,0.1,1.8,0.4
		c0.5,0.2,0.9,0.6,1.2,1c0.3,0.4,0.5,0.9,0.6,1.5c0.1,0.6,0.1,1.2,0,1.8c-0.1,0.6-0.3,1.3-0.6,1.8s-0.6,1.1-1.1,1.5
		c-0.4,0.4-0.9,0.7-1.5,1c-0.6,0.2-1.1,0.4-1.8,0.4c-0.4,0-0.8,0-1.1-0.1c-0.3-0.1-0.6-0.2-0.8-0.3c-0.2-0.1-0.4-0.3-0.6-0.4
		c-0.1-0.2-0.3-0.3-0.4-0.4h-0.1l-0.8,5.3h-2.2L306.2,57.3z M312.8,61.7c0-0.3,0-0.7,0-1c-0.1-0.3-0.2-0.6-0.4-0.8
		c-0.2-0.2-0.4-0.4-0.7-0.6c-0.3-0.1-0.7-0.2-1.1-0.2c-0.4,0-0.8,0.1-1.1,0.2c-0.3,0.1-0.6,0.3-0.9,0.6s-0.5,0.5-0.6,0.8
		c-0.2,0.3-0.3,0.6-0.3,1c0,0.3,0,0.7,0,1c0.1,0.3,0.2,0.6,0.4,0.8c0.2,0.2,0.4,0.4,0.7,0.6c0.3,0.1,0.7,0.2,1.1,0.2
		c0.4,0,0.8-0.1,1.1-0.2c0.3-0.1,0.6-0.3,0.9-0.6c0.3-0.2,0.5-0.5,0.6-0.8C312.7,62.4,312.8,62,312.8,61.7z"/>
	<path class="st0" d="M318.7,62.5c0,0.3,0,0.6,0.1,0.9c0.1,0.3,0.2,0.5,0.4,0.7c0.2,0.2,0.4,0.3,0.7,0.4c0.3,0.1,0.5,0.1,0.8,0.1
		c0.6,0,1-0.1,1.4-0.3c0.4-0.2,0.8-0.5,1.1-0.9l1.4,1.2c-0.6,0.6-1.2,1.1-1.9,1.4c-0.7,0.3-1.4,0.4-2.1,0.4c-0.7,0-1.3-0.1-1.8-0.3
		c-0.6-0.2-1-0.5-1.4-0.9c-0.4-0.4-0.6-0.9-0.8-1.5c-0.2-0.6-0.2-1.2-0.1-1.9c0.1-0.7,0.3-1.3,0.6-1.9c0.3-0.6,0.7-1.1,1.2-1.5
		c0.5-0.4,1-0.7,1.7-0.9c0.6-0.2,1.3-0.3,1.9-0.3c1.2,0,2.2,0.4,2.8,1.2c0.6,0.8,0.9,2,0.6,3.6l-0.1,0.6H318.7z M323.5,60.8
		c0.1-0.6,0-1.2-0.4-1.5c-0.3-0.4-0.9-0.6-1.6-0.6c-0.7,0-1.2,0.2-1.7,0.6c-0.4,0.4-0.7,0.9-0.9,1.5H323.5z"/>
	<path class="st0" d="M328.3,57.3h2.2l-0.2,1.4h0c0.3-0.5,0.7-0.9,1.2-1.2c0.5-0.3,1-0.4,1.6-0.4c0.1,0,0.3,0,0.4,0
		c0.1,0,0.3,0.1,0.4,0.1l-0.3,2.1c-0.2,0-0.3-0.1-0.5-0.1c-0.2,0-0.3,0-0.5,0c-0.5,0-0.9,0.1-1.3,0.3c-0.3,0.2-0.6,0.4-0.8,0.7
		c-0.2,0.2-0.3,0.5-0.4,0.7s-0.1,0.4-0.1,0.6l-0.7,4.7H327L328.3,57.3z"/>
	<path class="st0" d="M335.4,57.3h2.2l-1.2,8.8h-2.2L335.4,57.3z M335.5,54.3c0-0.4,0.2-0.7,0.5-0.9c0.3-0.3,0.7-0.4,1.1-0.4
		c0.4,0,0.7,0.1,1,0.4c0.2,0.3,0.3,0.6,0.3,0.9c-0.1,0.4-0.2,0.7-0.6,0.9c-0.3,0.3-0.7,0.4-1.1,0.4c-0.4,0-0.7-0.1-0.9-0.4
		C335.6,55,335.5,54.7,335.5,54.3z"/>
	<path class="st0" d="M341.2,62.5c0,0.3,0,0.6,0.1,0.9c0.1,0.3,0.2,0.5,0.4,0.7c0.2,0.2,0.4,0.3,0.7,0.4c0.3,0.1,0.5,0.1,0.8,0.1
		c0.6,0,1-0.1,1.4-0.3c0.4-0.2,0.8-0.5,1.1-0.9l1.4,1.2c-0.6,0.6-1.2,1.1-1.9,1.4c-0.7,0.3-1.4,0.4-2.1,0.4c-0.7,0-1.3-0.1-1.8-0.3
		c-0.6-0.2-1-0.5-1.4-0.9c-0.4-0.4-0.6-0.9-0.8-1.5s-0.2-1.2-0.1-1.9c0.1-0.7,0.3-1.3,0.6-1.9c0.3-0.6,0.7-1.1,1.2-1.5
		c0.5-0.4,1-0.7,1.7-0.9c0.6-0.2,1.3-0.3,1.9-0.3c1.2,0,2.2,0.4,2.8,1.2c0.6,0.8,0.9,2,0.6,3.6l-0.1,0.6H341.2z M345.9,60.8
		c0.1-0.6,0-1.2-0.4-1.5c-0.3-0.4-0.9-0.6-1.6-0.6c-0.7,0-1.2,0.2-1.7,0.6c-0.4,0.4-0.7,0.9-0.9,1.5H345.9z"/>
	<path class="st0" d="M350.7,57.3h2.1l-0.2,1.4h0c0.3-0.4,0.6-0.8,1.1-1.1c0.5-0.3,1.1-0.5,1.8-0.5c0.6,0,1.1,0.1,1.5,0.3
		c0.4,0.2,0.7,0.5,0.9,0.8c0.2,0.3,0.3,0.7,0.4,1.1c0,0.4,0,0.9,0,1.3l-0.8,5.6h-2.2l0.6-4.5c0-0.2,0.1-0.5,0.1-0.8
		c0-0.3,0-0.6-0.1-0.8c-0.1-0.3-0.2-0.5-0.4-0.7c-0.2-0.2-0.5-0.3-0.9-0.3c-0.4,0-0.7,0.1-1,0.2c-0.3,0.1-0.5,0.3-0.7,0.5
		c-0.2,0.2-0.3,0.4-0.5,0.7c-0.1,0.3-0.2,0.6-0.2,0.8l-0.7,4.8h-2.2L350.7,57.3z"/>
	<path class="st0" d="M366.9,59.9c-0.2-0.3-0.5-0.5-0.7-0.6c-0.3-0.2-0.5-0.2-0.8-0.2c-0.4,0-0.8,0.1-1.1,0.2
		c-0.3,0.1-0.6,0.3-0.9,0.6c-0.3,0.2-0.5,0.5-0.6,0.8c-0.2,0.3-0.3,0.6-0.3,1c0,0.3,0,0.7,0,1c0.1,0.3,0.2,0.6,0.4,0.8
		c0.2,0.2,0.4,0.4,0.7,0.6c0.3,0.1,0.7,0.2,1.1,0.2c0.3,0,0.7-0.1,1-0.2c0.3-0.1,0.6-0.3,0.8-0.6l1.2,1.6c-0.3,0.2-0.5,0.4-0.8,0.6
		c-0.3,0.2-0.6,0.3-0.9,0.4c-0.3,0.1-0.6,0.2-0.9,0.2c-0.3,0-0.5,0.1-0.7,0.1c-0.7,0-1.3-0.1-1.8-0.3c-0.6-0.2-1-0.5-1.4-0.9
		c-0.4-0.4-0.6-0.9-0.8-1.5c-0.2-0.6-0.2-1.2-0.1-1.9c0.1-0.7,0.3-1.3,0.6-1.9c0.3-0.6,0.7-1.1,1.2-1.5c0.5-0.4,1-0.7,1.7-0.9
		c0.6-0.2,1.3-0.3,1.9-0.3c0.6,0,1.1,0.1,1.7,0.3c0.5,0.2,1,0.6,1.3,1L366.9,59.9z"/>
	<path class="st0" d="M371.1,62.5c0,0.3,0,0.6,0.1,0.9c0.1,0.3,0.2,0.5,0.4,0.7c0.2,0.2,0.4,0.3,0.7,0.4c0.3,0.1,0.5,0.1,0.8,0.1
		c0.6,0,1-0.1,1.4-0.3c0.4-0.2,0.8-0.5,1.1-0.9l1.4,1.2c-0.6,0.6-1.2,1.1-1.9,1.4c-0.7,0.3-1.4,0.4-2.1,0.4c-0.7,0-1.3-0.1-1.8-0.3
		c-0.6-0.2-1-0.5-1.4-0.9c-0.4-0.4-0.6-0.9-0.8-1.5c-0.2-0.6-0.2-1.2-0.1-1.9c0.1-0.7,0.3-1.3,0.6-1.9c0.3-0.6,0.7-1.1,1.2-1.5
		c0.5-0.4,1-0.7,1.7-0.9c0.6-0.2,1.3-0.3,1.9-0.3c1.2,0,2.2,0.4,2.8,1.2c0.6,0.8,0.9,2,0.6,3.6l-0.1,0.6H371.1z M375.9,60.8
		c0.1-0.6,0-1.2-0.4-1.5c-0.3-0.4-0.9-0.6-1.6-0.6c-0.7,0-1.2,0.2-1.7,0.6c-0.4,0.4-0.7,0.9-0.9,1.5H375.9z"/>
</g>
</svg>
